<svg width="131" height="24" viewBox="0 0 131 24" fill="none" xmlns="http://www.w3.org/2000/svg">
<path fill-rule="evenodd" clip-rule="evenodd" d="M22.1567 18.9423L12.9738 0.709316C12.9663 0.694335 12.9574 0.68074 12.9486 0.667377L12.9486 0.667368C12.9416 0.656642 12.9347 0.646065 12.9287 0.635043C12.3265 0.547265 11.7109 0.5 11.0862 0.5C10.4119 0.5 9.75119 0.554017 9.10622 0.655299C9.10133 0.665063 9.09559 0.67398 9.08992 0.682784L9.08992 0.682791L9.08991 0.682799C9.08252 0.694285 9.07524 0.705581 9.07014 0.718319L0 18.9131C0.992258 20.7699 2.44005 22.3476 4.19229 23.5L9.92483 20.2342C10.5878 19.8696 11.3929 19.8764 12.0514 20.2477L18.0072 23.4797C19.7392 22.3364 21.1689 20.7744 22.1544 18.9401L22.1567 18.9423ZM15.6168 16.9324C12.7054 15.3164 9.23251 15.3074 6.30986 16.9099L6.00541 17.0832L11.0208 7.0158L16.1648 17.2295L15.6145 16.9302L15.6168 16.9324ZM29.9767 5.33V18.3788H37.8432V15.6945H32.9965V5.33H29.9767ZM47.752 14.6692C47.8017 14.2094 47.8266 13.7931 47.8266 13.4202C47.8266 12.1527 47.3916 11.1212 46.5217 10.3258C45.6518 9.53047 44.5209 9.13279 43.129 9.13279C41.6626 9.13279 40.4882 9.56153 39.6058 10.419C38.7235 11.2641 38.2823 12.4198 38.2823 13.8863C38.2823 15.3776 38.7235 16.5457 39.6058 17.3908C40.4882 18.2359 41.6936 18.6584 43.2222 18.6584C44.4152 18.6584 45.4219 18.385 46.2421 17.8382C47.0747 17.279 47.5594 16.5582 47.6961 15.6758H44.8999C44.6514 16.2351 44.0921 16.5147 43.2222 16.5147C42.5884 16.5147 42.0851 16.3531 41.7123 16.03C41.3395 15.7069 41.1406 15.2533 41.1158 14.6692H47.752ZM45.0118 12.8983H41.1158C41.1282 12.3391 41.3084 11.8917 41.6564 11.5561C42.0168 11.2082 42.5014 11.0342 43.1104 11.0342C43.7193 11.0342 44.1853 11.1957 44.5084 11.5189C44.8316 11.842 44.9993 12.3018 45.0118 12.8983ZM52.6964 18.6211C51.3915 18.6211 50.3601 18.18 49.602 17.2976C48.8439 16.4153 48.4649 15.2781 48.4649 13.8863C48.4649 12.5193 48.8563 11.3884 49.6393 10.4936C50.4222 9.59882 51.4537 9.15143 52.7337 9.15143C53.3675 9.15143 53.9329 9.28813 54.43 9.56153C54.9271 9.83494 55.3 10.2078 55.5485 10.68V9.39376H58.382V18.3788H55.5485V17.1112C55.3 17.5586 54.9147 17.9252 54.3928 18.211C53.8832 18.4844 53.3178 18.6211 52.6964 18.6211ZM53.5166 16.2537C54.2001 16.2537 54.7283 16.03 55.1011 15.5826C55.4739 15.1352 55.6604 14.5698 55.6604 13.8863C55.6604 13.2152 55.4739 12.656 55.1011 12.2086C54.7283 11.7612 54.2001 11.5375 53.5166 11.5375C52.8704 11.5375 52.3484 11.755 51.9508 12.1899C51.5655 12.6249 51.3729 13.1903 51.3729 13.8863C51.3729 14.5822 51.5655 15.1539 51.9508 15.6013C52.3484 16.0362 52.8704 16.2537 53.5166 16.2537ZM69.4739 9.39376H66.6218V10.68C66.3981 10.2202 66.0315 9.85358 65.5219 9.58018C65.0249 9.29435 64.4656 9.15143 63.8443 9.15143C62.5642 9.15143 61.5265 9.5926 60.7312 10.475C59.9358 11.3449 59.5381 12.4509 59.5381 13.7931C59.5381 15.1477 59.9234 16.2537 60.6939 17.1112C61.4644 17.9563 62.5021 18.3788 63.807 18.3788C64.4035 18.3788 64.9627 18.2483 65.4847 17.9873C66.0191 17.7139 66.3981 17.3597 66.6218 16.9248V18.1178C66.6218 19.5718 65.9134 20.2988 64.4967 20.2988C63.3658 20.2988 62.732 19.9198 62.5953 19.1617H59.6873C59.6997 19.6464 59.855 20.1124 60.1533 20.5598C60.4516 21.0072 60.8306 21.3738 61.2904 21.6596C62.0982 22.1443 63.1794 22.3866 64.534 22.3866C65.9134 22.3866 66.9822 22.1194 67.7402 21.5851C68.896 20.7773 69.4739 19.5035 69.4739 17.7636V9.39376ZM66.1557 15.5081C65.7705 15.9554 65.2486 16.1791 64.5899 16.1791C63.9561 16.1791 63.4404 15.9617 63.0427 15.5267C62.6574 15.0793 62.4648 14.5139 62.4648 13.8304C62.4648 13.1468 62.6574 12.5876 63.0427 12.1527C63.4404 11.7053 63.9561 11.4816 64.5899 11.4816C65.2486 11.4816 65.7705 11.7053 66.1557 12.1527C66.5534 12.6 66.7523 13.1593 66.7523 13.8304C66.7523 14.5014 66.5534 15.0607 66.1557 15.5081ZM80.0998 13.4202C80.0998 13.7931 80.0749 14.2094 80.0252 14.6692H73.3889C73.4138 15.2533 73.6126 15.7069 73.9855 16.03C74.3583 16.3531 74.8616 16.5147 75.4954 16.5147C76.3653 16.5147 76.9245 16.2351 77.1731 15.6758H79.9693C79.8326 16.5582 79.3479 17.279 78.5153 17.8382C77.695 18.385 76.6884 18.6584 75.4954 18.6584C73.9668 18.6584 72.7614 18.2359 71.879 17.3908C70.9967 16.5457 70.5555 15.3776 70.5555 13.8863C70.5555 12.4198 70.9967 11.2641 71.879 10.419C72.7614 9.56153 73.9358 9.13279 75.4022 9.13279C76.7941 9.13279 77.9249 9.53047 78.7949 10.3258C79.6648 11.1212 80.0998 12.1527 80.0998 13.4202ZM73.3889 12.8983H77.2849C77.2725 12.3018 77.1047 11.842 76.7816 11.5189C76.4585 11.1957 75.9925 11.0342 75.3835 11.0342C74.7746 11.0342 74.2899 11.2082 73.9295 11.5561C73.5816 11.8917 73.4014 12.3391 73.3889 12.8983ZM81.1721 9.39376V18.3788H84.0241V13.6812C84.0241 12.2645 84.602 11.5561 85.7578 11.5561C86.3294 11.5561 86.7333 11.7301 86.9694 12.0781C87.218 12.4261 87.3423 12.9853 87.3423 13.7558V18.3788H90.213V12.8237C90.213 10.3755 89.1194 9.15143 86.9322 9.15143C85.5279 9.15143 84.5585 9.66717 84.0241 10.6986V9.39376H81.1721ZM96.4882 16.1605C96.8859 16.1605 97.2152 16.1419 97.4762 16.1046V18.3788C96.9294 18.4782 96.2956 18.5279 95.5748 18.5279C95.2517 18.5279 94.9659 18.5093 94.7173 18.472C94.4688 18.4347 94.1891 18.3539 93.8785 18.2297C93.5678 18.093 93.313 17.9128 93.1142 17.6891C92.9153 17.4654 92.7413 17.1423 92.5922 16.7197C92.4555 16.2972 92.3872 15.8001 92.3872 15.2284V11.6493H90.9704V9.39376H92.3872V6.72808H95.2393V9.39376H97.2711V11.6493H95.2393V14.6319C95.2393 15.2409 95.3449 15.651 95.5562 15.8622C95.7674 16.0611 96.0781 16.1605 96.4882 16.1605ZM101 9C101 7.34315 102.343 6 104 6H128C129.657 6 131 7.34315 131 9V17C131 18.6569 129.657 20 128 20H104C102.343 20 101 18.6569 101 17V9ZM108.055 12.9515C108.53 12.9967 108.918 13.1852 109.22 13.5169C109.529 13.8411 109.683 14.2708 109.683 14.8061C109.683 15.4846 109.457 16.0199 109.005 16.4119C108.553 16.804 107.934 17 107.15 17H103.769V9.08385H107.026C107.81 9.08385 108.428 9.26856 108.881 9.63798C109.34 9.99986 109.57 10.5012 109.57 11.142C109.57 11.6472 109.435 12.0543 109.163 12.3634C108.892 12.665 108.522 12.861 108.055 12.9515ZM106.619 10.407H105.601V12.3295H106.619C106.966 12.3295 107.237 12.2465 107.433 12.0807C107.637 11.9073 107.738 11.6698 107.738 11.3682C107.738 11.0667 107.64 10.8329 107.444 10.6671C107.248 10.4937 106.973 10.407 106.619 10.407ZM106.743 15.609C107.082 15.609 107.35 15.5185 107.546 15.3376C107.742 15.1491 107.84 14.8928 107.84 14.5686C107.84 14.2746 107.738 14.0409 107.535 13.8675C107.339 13.6865 107.075 13.5961 106.743 13.5961H105.601V15.609H106.743ZM110.815 17V9.08385H115.655V10.554H112.647V12.3521H115.655V13.7883H112.647V15.5299H115.655V17H110.815ZM118.48 17V10.7123H116.309V9.08385H122.484V10.7123H120.301V17H118.48ZM127.058 17L126.787 16.0388H123.982L123.711 17H121.777L124.457 9.08385H126.301L128.992 17H127.058ZM125.385 11.0855L124.389 14.6025H126.38L125.385 11.0855Z" fill="white"/>
</svg>
