<svg width="52" height="48" viewBox="0 0 52 48" fill="none" xmlns="http://www.w3.org/2000/svg">
<path d="M49.8919 30.3245H47.081H40.7567V15.5678C40.7567 7.43088 34.137 0.811035 26 0.811035C17.863 0.811035 11.2433 7.43088 11.2433 15.5678V30.3245H4.91898H2.10813C0.943922 30.3245 0 31.2684 0 32.4326C0 33.5968 0.943922 34.5407 2.10813 34.5407H2.81084V45.0813C2.81084 46.2455 3.75477 47.1894 4.91898 47.1894H47.0811C48.2453 47.1894 49.1893 46.2455 49.1893 45.0813V34.5407H49.892C51.0562 34.5407 52.0001 33.5968 52.0001 32.4326C52.0001 31.2684 51.0562 30.3245 49.8919 30.3245ZM11.2433 42.9732H7.02701V34.5407H11.2432V42.9732H11.2433ZM23.8919 5.23926V15.5678H15.4594C15.4594 10.4776 19.0865 6.21873 23.8919 5.23926ZM15.4594 19.7839H23.8919V30.3245H15.4594V19.7839ZM19.6757 42.9732H15.4595V34.5407H19.6757V42.9732ZM28.1081 42.9732H23.8919V34.5407H28.1081V42.9732ZM36.5406 42.9732H32.3243V34.5407H36.5406V42.9732ZM36.5406 30.3245H28.1081V19.7839H36.5406V30.3245ZM28.1081 15.5678V5.23926C32.9135 6.21873 36.5406 10.4774 36.5406 15.5678H28.1081ZM44.973 42.9732H40.7567V34.5407H44.973V42.9732Z" fill="#111827"/>
</svg>
