<svg width="46" height="45" viewBox="0 0 46 45" fill="none" xmlns="http://www.w3.org/2000/svg">
<path fill-rule="evenodd" clip-rule="evenodd" d="M21.501 29.25C21.501 28.8358 21.8368 28.5 22.251 28.5H31.251C31.6652 28.5 32.001 28.8358 32.001 29.25V41.25C32.001 41.6642 31.6652 42 31.251 42H22.251C21.8368 42 21.501 41.6642 21.501 41.25V29.25ZM23 40.5H30.5V30H23V40.5Z" fill="#111827"/>
<path fill-rule="evenodd" clip-rule="evenodd" d="M28.249 36H25.249C24.8348 36 24.499 35.6642 24.499 35.25V32.25C24.499 31.8358 24.8348 31.5 25.249 31.5H28.249C28.6632 31.5 28.999 31.8358 28.999 32.25V35.25C28.999 35.6642 28.6632 36 28.249 36ZM27.4981 33H25.998V34.5H27.4981V33Z" fill="#111827"/>
<path fill-rule="evenodd" clip-rule="evenodd" d="M34.25 32.25C34.25 31.8358 34.5858 31.5 35 31.5H38C38.4142 31.5 38.75 31.8358 38.75 32.25V35.25C38.75 35.6642 38.4142 36 38 36H35C34.5858 36 34.25 35.6642 34.25 35.25V32.25ZM35.749 34.5H37.249V33H35.749V34.5Z" fill="#111827"/>
<path fill-rule="evenodd" clip-rule="evenodd" d="M40.249 32.25C40.249 31.8358 40.5848 31.5 40.999 31.5H43.999C44.4132 31.5 44.749 31.8358 44.749 32.25V35.25C44.749 35.6642 44.4132 36 43.999 36H40.999C40.5848 36 40.249 35.6642 40.249 35.25V32.25ZM41.748 34.5H43.248V33H41.748V34.5Z" fill="#111827"/>
<path fill-rule="evenodd" clip-rule="evenodd" d="M1.25 0H44.75C45.1642 0 45.5 0.335815 45.5 0.75V6.75C45.5 7.16418 45.1642 7.5 44.75 7.5H44V25.5H45.5V27H16.25V30.75C16.2474 32.8202 14.5702 34.4974 12.5 34.5H2.56396C1.50159 36.7434 1.96667 39.4131 3.72485 41.1654L6.06055 43.5H45.5V45H0.5V43.5H3.94019L2.66541 42.2249C1.00684 40.5663 0.234131 38.2189 0.582764 35.8997C0.931763 33.5801 2.36072 31.5641 4.43384 30.4666L8.15015 28.5H0.5V27H2V7.5H1.25C0.835815 7.5 0.5 7.16418 0.5 6.75V0.75C0.5 0.335815 0.835815 0 1.25 0ZM3.50098 7.5V27H5.00098V7.5H3.50098ZM14.749 7.5V9H13.999C13.5848 9 13.249 9.33582 13.249 9.75V14.25C13.249 14.6642 13.5848 15 13.999 15H31.999C32.4132 15 32.749 14.6642 32.749 14.25V9.75C32.749 9.33582 32.4132 9 31.999 9H31.249V7.5H39.499V25.5H37.999V21.75C37.999 21.3358 37.6632 21 37.249 21H28.249C27.8348 21 27.499 21.3358 27.499 21.75V25.5H18.499V21.75C18.499 21.3358 18.1632 21 17.749 21H8.74902C8.33484 21 7.99902 21.3358 7.99902 21.75V27H6.49902V7.5H14.749ZM31.251 13.5V10.5H14.751V13.5H31.251ZM16.25 9V7.5H29.75V9H16.25ZM33.5 22.5H32V25.5H33.5V22.5ZM30.4989 25.5H28.9989V22.5H30.4989V25.5ZM36.5011 22.5H35.0011V25.5H36.5011V22.5ZM12.5011 22.5H14.0011V25.7249C13.4858 25.8472 12.9834 26.0189 12.5011 26.2372V22.5ZM15.4989 22.5V25.5223C15.5492 25.5202 15.5991 25.516 15.649 25.5119C15.7198 25.5059 15.7905 25.5 15.8618 25.5H16.9989V22.5H15.4989ZM9.5 27V22.5H11V26.9894L10.9806 27H9.5ZM3.58008 33.0004H12.4999C13.7424 33.0004 14.7499 31.9929 14.7499 30.7504V27.1055C14.0358 27.2212 13.3451 27.4504 12.7039 27.7848L5.13501 31.7922C4.55273 32.105 4.02686 32.5133 3.58008 33.0004ZM42.5 25.5H41V7.5H42.5V25.5ZM31.249 6H43.999V1.5H1.99902V6H14.749V3.75H16.249V6H29.749V3.75H31.249V6Z" fill="#111827"/>
</svg>
