<svg width="62" height="62" viewBox="0 0 62 62" fill="none" xmlns="http://www.w3.org/2000/svg">
<path d="M43.9025 20.896L43.2391 18.7126C42.3964 16.2323 39.7026 14.9049 37.2224 15.7476C35.8271 16.2216 34.7314 17.3173 34.2573 18.7126L33.5939 20.896C33.0357 22.7374 32.9185 24.6843 33.2519 26.5794C33.556 28.1748 34.5689 29.5455 36.0047 30.3045L35.2617 46.9133C35.1623 47.8403 35.463 48.7658 36.0884 49.4573C37.4334 50.9286 39.7166 51.0309 41.1878 49.6858C41.2673 49.6131 41.3436 49.5369 41.4163 49.4573C42.0278 48.7854 42.3279 47.8871 42.2429 46.9825L41.4958 30.3025C42.9297 29.5431 43.941 28.1733 44.2445 26.5794C44.5779 24.6843 44.4607 22.7374 43.9025 20.896ZM42.2088 26.2198C41.9851 27.366 41.1683 28.3064 40.0647 28.6884C39.6458 28.8458 39.376 29.255 39.3961 29.7021L40.1814 47.1458C40.2176 47.4879 40.1047 47.8291 39.8714 48.082C39.2492 48.698 38.2472 48.698 37.625 48.082C37.3801 47.8087 37.2689 47.4408 37.3212 47.0776L38.1003 29.7021C38.1205 29.255 37.8506 28.8458 37.4317 28.6884C36.3281 28.3064 35.5113 27.366 35.2876 26.2198C35.0112 24.6465 35.1085 23.0302 35.5717 21.5016L36.2351 19.3171C36.7484 17.9292 38.2897 17.2202 39.6777 17.7335C40.4115 18.0049 40.9899 18.5834 41.2613 19.3171L41.9247 21.5016C42.3874 23.0304 42.4847 24.6465 42.2088 26.2198Z" fill="#0078FF"/>
<path d="M27.8997 15.5C27.3291 15.5 26.8664 15.9627 26.8664 16.5333V25.4055L24.0692 28.2028C23.8622 28.4089 23.7522 28.6932 23.7664 28.985L24.6706 47.0683C24.6921 47.4583 24.5506 47.8397 24.28 48.1213C23.7144 48.692 22.7931 48.6961 22.2223 48.1303C22.2192 48.1274 22.2163 48.1243 22.2133 48.1213C21.9426 47.8397 21.8011 47.4583 21.8227 47.0683L22.7331 28.985C22.7475 28.6933 22.6379 28.4092 22.4313 28.2028L19.6331 25.4055V16.5333C19.6331 15.9627 19.1704 15.5 18.5997 15.5C18.0291 15.5 17.5664 15.9627 17.5664 16.5333V25.8333C17.5664 26.1074 17.6754 26.3702 17.8692 26.5639L20.6447 29.3405L19.7633 46.9681C19.6695 48.8936 21.1544 50.5306 23.0799 50.6244C25.0054 50.7182 26.6424 49.2333 26.7362 47.3078C26.7418 47.1947 26.7418 47.0814 26.7362 46.9682L25.8548 29.3406L28.6303 26.564C28.8241 26.3703 28.9331 26.1076 28.9331 25.8335V16.5335C28.9331 15.9627 28.4704 15.5 27.8997 15.5Z" fill="#0078FF"/>
<path d="M21.7013 15.5C21.1306 15.5 20.668 15.9627 20.668 16.5333V24.8C20.668 25.3707 21.1306 25.8333 21.7013 25.8333C22.272 25.8333 22.7346 25.3707 22.7346 24.8V16.5333C22.7346 15.9627 22.272 15.5 21.7013 15.5Z" fill="#0078FF"/>
<path d="M24.799 15.5C24.2283 15.5 23.7656 15.9627 23.7656 16.5333V24.8C23.7656 25.3707 24.2283 25.8333 24.799 25.8333C25.3696 25.8333 25.8323 25.3707 25.8323 24.8V16.5333C25.8323 15.9627 25.3696 15.5 24.799 15.5Z" fill="#0078FF"/>
<path d="M31 0C13.8792 0 0 13.8792 0 31C0 48.1208 13.8792 62 31 62C48.1208 62 62 48.1208 62 31C61.9806 13.8872 48.1128 0.019375 31 0ZM31 59.9333C15.0205 59.9333 2.06667 46.9795 2.06667 31C2.06667 15.0205 15.0205 2.06667 31 2.06667C46.9795 2.06667 59.9333 15.0205 59.9333 31C59.9151 46.9718 46.9718 59.9151 31 59.9333Z" fill="#0078FF"/>
<path d="M34.3543 50.3969C34.2989 49.8289 33.7935 49.4134 33.2254 49.4688C33.2121 49.4701 33.1988 49.4717 33.1855 49.4735L33.1897 49.4724C31.7348 49.6414 30.2652 49.6414 28.8104 49.4724C28.2433 49.4059 27.7299 49.8116 27.6634 50.3787C27.5969 50.9457 28.0026 51.4592 28.5696 51.5257C30.183 51.7141 31.8129 51.7141 33.4263 51.5257C33.9942 51.4704 34.4098 50.965 34.3543 50.3969Z" fill="#0078FF"/>
<path d="M46.8087 17.6847C46.442 17.2475 45.7902 17.1903 45.353 17.5571C45.3515 17.5583 45.3501 17.5596 45.3486 17.5607C44.9124 17.9286 44.8568 18.5804 45.2246 19.0167C51.4549 26.4128 50.9783 37.3492 44.1282 44.1753C43.7239 44.5781 43.7227 45.2326 44.1256 45.6369C44.5285 46.0412 45.183 46.0424 45.5873 45.6395C53.2 38.0557 53.7308 25.9035 46.8087 17.6847Z" fill="#0078FF"/>
<path d="M35.8762 10.9101C31.8378 9.94226 27.6024 10.2024 23.7128 11.6572C23.1786 11.8581 22.9085 12.454 23.1094 12.9881C23.2608 13.3907 23.6457 13.6572 24.0757 13.6576C24.1993 13.657 24.3217 13.6344 24.4372 13.5906C27.94 12.2807 31.754 12.0468 35.3906 12.9189C35.9453 13.053 36.5037 12.7121 36.6378 12.1573C36.7719 11.6026 36.431 11.0442 35.8762 10.9101Z" fill="#0078FF"/>
<path d="M17.8241 44.1229C14.3406 40.6453 12.3883 35.9219 12.4002 30.9996C12.39 27.067 13.6356 23.2338 15.9559 20.0586C16.2988 19.6024 16.207 18.9546 15.7507 18.6117C15.2945 18.2688 14.6468 18.3606 14.3038 18.8168C14.2977 18.825 14.2918 18.8331 14.286 18.8414C8.31164 27.0548 9.19075 38.3919 16.3599 45.5861C16.7639 45.9904 17.4193 45.9907 17.8236 45.5866C18.2279 45.1826 18.2282 44.5272 17.8241 44.1229Z" fill="#0078FF"/>
</svg>
