<svg width="62" height="58" viewBox="0 0 62 58" fill="none" xmlns="http://www.w3.org/2000/svg">
<path d="M60.8567 0H36.265C35.6326 0 35.1211 0.51212 35.1211 1.1439V12.6542C35.1211 13.286 35.6326 13.7981 36.265 13.7981C36.8974 13.7981 37.4089 13.286 37.4089 12.6542V2.2878H59.7128V54.9035H50.8059C50.1735 54.9035 49.662 55.415 49.662 56.0474C49.662 56.6798 50.1735 57.1913 50.8059 57.1913H60.8567C61.4891 57.1913 62.0006 56.6798 62.0006 56.0474V1.1439C62.0006 0.51212 61.4891 0 60.8567 0Z" fill="#0078FF"/>
<path fill-rule="evenodd" clip-rule="evenodd" d="M56.2809 4.5752C56.9133 4.5752 57.4248 5.08732 57.4248 5.7191V12.8162C57.4248 13.448 56.9133 13.9601 56.2809 13.9601H40.8392C40.2068 13.9601 39.6953 13.448 39.6953 12.8162V5.7191C39.6953 5.08732 40.2068 4.5752 40.8392 4.5752H56.2809ZM41.9831 11.6723H55.137V6.863H41.9831V11.6723Z" fill="#0078FF"/>
<path d="M57.4261 18.6224C57.4261 17.9906 56.9146 17.4785 56.2822 17.4785H50.3197C49.6873 17.4785 49.1758 17.9906 49.1758 18.6224C49.1758 19.2542 49.6873 19.7663 50.3197 19.7663H55.1383V24.5757H50.6446C50.0122 24.5757 49.5007 25.0878 49.5007 25.7196C49.5007 26.3513 50.0122 26.8635 50.6446 26.8635H56.2822C56.9146 26.8635 57.4261 26.3513 57.4261 25.7196V18.6224Z" fill="#0078FF"/>
<path d="M57.4245 31.5248C57.4245 30.8924 56.913 30.3809 56.2806 30.3809C55.6482 30.3809 55.1367 30.8924 55.1367 31.5248V38.6225C55.1367 39.2549 55.6482 39.7664 56.2806 39.7664C56.913 39.7664 57.4245 39.2549 57.4245 38.6225V31.5248Z" fill="#0078FF"/>
<path d="M52.5892 50.3817C51.9568 50.3817 51.4453 50.8932 51.4453 51.5256C51.4453 52.158 51.9568 52.6695 52.5892 52.6695H56.2819C56.9143 52.6695 57.4258 52.158 57.4258 51.5256V44.4291C57.4258 43.7967 56.9143 43.2852 56.2819 43.2852H52.5892C51.9568 43.2852 51.4453 43.7967 51.4453 44.4291C51.4453 45.0615 51.9568 45.573 52.5892 45.573H55.138V50.3817H52.5892Z" fill="#0078FF"/>
<path fill-rule="evenodd" clip-rule="evenodd" d="M17.6798 22.2069C17.6097 22.2199 17.5372 22.2273 17.4634 22.2273H10.502V56.0471C10.502 56.6795 9.98992 57.191 9.35814 57.191C8.72636 57.191 8.21424 56.6795 8.21424 56.0471V22.2279H1.14438C0.764319 22.2279 0.410299 22.0395 0.197019 21.7251C-0.0162613 21.4108 -0.0590413 21.0109 0.0816987 20.6587L5.03798 8.26741C5.21158 7.83341 5.63256 7.54883 6.10004 7.54883H12.9399C13.4074 7.54883 13.8283 7.83341 14.0019 8.26741L18.9588 20.6587C19.1932 21.2459 18.908 21.9111 18.3215 22.1461C18.1814 22.2013 18.0381 22.2279 17.8968 22.2279C17.8236 22.2279 17.7505 22.2211 17.6798 22.2069ZM12.1643 9.83601H6.87442L2.83326 19.9401H16.206L12.1643 9.83601Z" fill="#0078FF"/>
<path fill-rule="evenodd" clip-rule="evenodd" d="M51.8913 32.3583C53.5777 33.9455 53.6837 35.6319 53.476 36.7659C53.0383 39.1641 50.8782 41.1692 49.5118 42.0384L49.2718 50.4537C49.2538 51.0724 48.7467 51.5653 48.1279 51.5653H48.0504L47.4509 56.2668C47.3783 56.8378 46.8916 57.2656 46.3163 57.2656H44.5022C43.9274 57.2656 43.4413 56.8378 43.3676 56.2668L42.7655 51.5604C42.4456 51.5455 42.1623 51.401 41.9633 51.1766H26.0491C25.8501 51.4016 25.5667 51.5461 25.2462 51.5604L24.6448 56.2668C24.5716 56.8378 24.0862 57.2656 23.5102 57.2656H21.6961C21.1207 57.2656 20.6346 56.8378 20.5615 56.2668L19.9619 51.5653H19.8844C19.2657 51.5653 18.7591 51.0724 18.7412 50.4537L18.5006 42.0384C17.1335 41.1692 14.974 39.1653 14.5351 36.7672C14.3274 35.6326 14.434 33.9468 16.1204 32.3583C17.9693 30.6186 19.8454 30.6378 21.3148 31.4029C20.6278 26.3443 20.6185 20.5008 23.4947 17.8361C27.4205 14.1998 41.1108 14.1985 45.036 17.8361C47.8669 20.4593 47.9016 26.1627 47.2469 31.1661C48.6208 30.6645 50.2669 30.8294 51.8913 32.3583ZM43.4816 19.5138C40.3804 16.642 28.1497 16.642 25.0497 19.5138C22.5399 21.8394 23.0495 28.4734 24.031 33.7769C25.3132 35.1211 26.0993 36.8217 26.2909 38.6538H41.7215C41.9186 36.7684 42.7401 35.0194 44.0892 33.6566C44.269 33.4743 44.4445 33.3007 44.6162 33.1315C45.5183 27.947 45.8897 21.7452 43.4816 19.5138ZM41.6731 40.9416V43.0595H26.3399V40.9416H41.6731ZM41.6731 45.3467H26.3399V48.8888H41.6731V45.3467ZM16.7857 36.3549C16.6282 35.4937 16.9153 34.7528 17.6896 34.0249C18.4312 33.3255 19.5844 32.5636 21.0203 34.0013L21.4772 34.4527C21.732 34.7019 22.0129 34.9778 22.2975 35.2661C23.429 36.4076 24.0521 37.9259 24.0521 39.5386V49.2775H20.9961L20.7686 41.3198C20.7555 40.8685 20.4796 40.4686 20.063 40.2956C19.4957 40.0612 17.1385 38.2831 16.7857 36.3549ZM22.9398 51.5653H22.269L22.6038 54.1935L22.9398 51.5653ZM45.4092 54.1947L45.0726 51.5653H45.744L45.4092 54.1947ZM47.2432 41.3198C47.2568 40.8697 47.5327 40.4686 47.9494 40.2956C48.5167 40.06 50.8739 38.2831 51.2273 36.3555C51.3848 35.4943 51.0977 34.754 50.3233 34.0255C49.5824 33.3262 48.4299 32.5623 46.9946 34.0007L46.5023 34.4856C46.2568 34.7267 45.9877 34.9915 45.7149 35.2661C44.584 36.4076 43.9609 37.9253 43.9609 39.5386V49.2775H47.0169L47.2432 41.3198Z" fill="#0078FF"/>
</svg>
