<svg width="52" height="57" viewBox="0 0 52 57" fill="none" xmlns="http://www.w3.org/2000/svg">
<path d="M17.8863 18.7049C18.6065 18.4648 18.9667 17.6845 18.7266 16.9643V16.9042C18.3064 15.6437 18.0063 14.5033 18.0663 13.4829C18.1264 12.4625 18.4865 11.3821 19.0267 10.1216C19.2668 9.46131 19.5669 8.86107 19.867 8.14079C20.1672 7.36048 20.4673 6.4001 20.4673 5.49975C20.5273 4.53937 20.3472 3.63902 20.0471 2.73866C19.867 2.3185 19.687 1.89833 19.4469 1.53819C19.2068 1.11803 18.9667 0.817909 18.6065 0.397744C18.3064 0.0976262 17.8262 -0.0824447 17.4061 0.0376025C16.6858 0.217673 16.2656 0.877933 16.4457 1.53819L16.5657 2.01838C16.6258 2.19845 16.7458 2.49857 16.8058 2.73866C16.8659 3.03878 16.9259 3.27888 16.9259 3.51897C16.9859 4.05918 16.9859 4.5994 16.8659 5.07959C16.7458 5.6198 16.6258 6.03996 16.3257 6.58017L15.4253 8.56095C15.1252 9.28124 14.8251 10.0015 14.645 10.8419C14.4649 11.6822 14.3449 12.5825 14.4049 13.5429C14.5249 15.4036 15.4253 17.0243 16.4457 18.2248C16.7458 18.7049 17.3461 18.885 17.8863 18.7049Z" fill="#0078FF"/>
<path d="M25.6903 18.7049C26.4105 18.4648 26.7707 17.6845 26.5306 16.9643V16.9042C26.1104 15.6437 25.8103 14.5033 25.8703 13.4829C25.9303 12.4625 26.2905 11.3821 26.8307 10.1216C27.0708 9.46131 27.3709 8.86107 27.671 8.14079C27.9712 7.36048 28.2713 6.4001 28.2713 5.49975C28.3313 4.53937 28.1512 3.63902 27.8511 2.73866C27.671 2.3185 27.491 1.89833 27.2509 1.53819C27.0108 1.11803 26.7707 0.817909 26.4105 0.397744C26.1104 0.0976262 25.6302 -0.0824447 25.2101 0.0376025C24.4898 0.217673 24.0696 0.877933 24.2497 1.53819L24.3697 2.01838C24.4298 2.19845 24.5498 2.49857 24.6098 2.73866C24.6699 3.03878 24.7299 3.27888 24.7899 3.51897C24.8499 4.05918 24.8499 4.5994 24.7299 5.07959C24.6098 5.6198 24.4898 6.03996 24.1897 6.58017L23.2893 8.56095C22.9892 9.28124 22.6891 10.0015 22.509 10.8419C22.3289 11.6822 22.2089 12.5825 22.2689 13.5429C22.389 15.4036 23.2893 17.0243 24.3097 18.2248C24.5498 18.7049 25.15 18.885 25.6903 18.7049Z" fill="#0078FF"/>
<path d="M33.4338 18.7049C34.154 18.4648 34.5142 17.6845 34.2741 16.9643V16.9042C33.8539 15.6437 33.5538 14.5033 33.6138 13.4829C33.6738 12.4625 34.034 11.3821 34.5742 10.1216C34.8143 9.46131 35.1144 8.86107 35.4145 8.14079C35.7146 7.36048 36.0148 6.4001 36.0148 5.49975C36.0748 4.53937 35.8947 3.63902 35.5946 2.73866C35.4145 2.3185 35.2345 1.89833 34.9944 1.53819C34.7543 1.11803 34.5142 0.817909 34.154 0.397744C33.8539 0.0976262 33.3737 -0.0824447 32.9536 0.0376025C32.2933 0.217673 31.8131 0.877933 31.9932 1.53819L32.1132 2.01838C32.1733 2.19845 32.2933 2.49857 32.3533 2.73866C32.4133 3.03878 32.4734 3.27888 32.4734 3.51897C32.5334 4.05918 32.5334 4.5994 32.4134 5.07959C32.2933 5.6198 32.1733 6.03996 31.8731 6.58017L30.9728 8.56095C30.6727 9.28124 30.3725 10.0015 30.1925 10.8419C30.0124 11.6822 29.8924 12.5825 29.9524 13.5429C30.0724 15.4036 30.9728 17.0243 31.9932 18.2248C32.3533 18.7049 32.8935 18.885 33.4338 18.7049Z" fill="#0078FF"/>
<path d="M49.6995 24.8871C48.7392 24.8871 48.0189 25.6674 48.0189 26.5678V29.2088H45.6179V28.1884C45.6179 24.7071 42.7368 21.8259 39.2554 21.8259C37.3947 21.8259 35.714 22.6663 34.5736 23.9268C33.4331 22.6663 31.7525 21.8259 29.8918 21.8259C28.031 21.8259 26.4104 22.6663 25.2099 23.9268C24.0695 22.6663 22.3888 21.8259 20.5281 21.8259C18.6673 21.8259 17.0467 22.6663 15.8462 23.9268C14.7058 22.6663 13.0251 21.8259 11.1644 21.8259C7.68302 21.8259 4.80189 24.7071 4.80189 28.1884V29.2088H1.68066C0.720283 29.2088 0 29.9891 0 30.8895C0 31.7898 0.780307 32.5702 1.68066 32.5702H4.74186V50.6373C4.74186 54.1186 7.623 56.9998 11.1044 56.9998C12.9651 56.9998 14.5857 56.1594 15.7862 54.8989C16.9267 56.1594 18.6073 56.9998 20.468 56.9998C22.3288 56.9998 23.9494 56.1594 25.1499 54.8989C26.2903 56.1594 27.971 56.9998 29.8317 56.9998C31.6925 56.9998 33.3731 56.1594 34.5136 54.8989C35.654 56.1594 37.3347 56.9998 39.1954 56.9998C42.6768 56.9998 45.5579 54.1186 45.5579 50.6373V32.5702H49.6995C50.6599 32.5702 51.3802 31.7898 51.3802 30.8895V26.5678C51.3802 25.6074 50.5999 24.8871 49.6995 24.8871ZM11.1644 53.6384C9.54375 53.6384 8.16321 52.3179 8.16321 50.6373V28.1884C8.16321 26.5678 9.48373 25.1872 11.1644 25.1872C12.845 25.1872 14.1656 26.5078 14.1656 28.1884V50.6373C14.1055 52.2579 12.785 53.6384 11.1644 53.6384ZM20.5281 53.6384C18.9074 53.6384 17.5269 52.3179 17.5269 50.6373V28.1884C17.5269 26.5678 18.8474 25.1872 20.5281 25.1872C22.1487 25.1872 23.5293 26.5078 23.5293 28.1884V50.6373C23.4692 52.2579 22.1487 53.6384 20.5281 53.6384ZM29.8317 53.6384C28.2111 53.6384 26.8305 52.3179 26.8305 50.6373V28.1884C26.8305 26.5678 28.1511 25.1872 29.8317 25.1872C31.4524 25.1872 32.8329 26.5078 32.8329 28.1884V50.6373C32.8329 52.2579 31.5124 53.6384 29.8317 53.6384ZM39.1954 53.6384C37.5748 53.6384 36.1942 52.3179 36.1942 50.6373V28.1884C36.1942 26.5678 37.5148 25.1872 39.1954 25.1872C40.816 25.1872 42.1966 26.5078 42.1966 28.1884V50.6373C42.1966 52.2579 40.8761 53.6384 39.1954 53.6384Z" fill="#0078FF"/>
</svg>
