<svg width="53" height="52" viewBox="0 0 53 52" fill="none" xmlns="http://www.w3.org/2000/svg">
<path fill-rule="evenodd" clip-rule="evenodd" d="M4.97546 0H49.0246H49.0344C50.2531 0 51.2457 0.992629 51.2457 2.2113V49.7887C51.2457 51.0074 50.2531 52 49.0344 52H4.97546C3.75679 52 2.76416 51.0074 2.76416 49.7887V2.2113C2.76416 0.992629 3.75679 0 4.97546 0ZM48.5823 10.5356V2.65356H5.41772V10.5356H48.5823ZM48.5823 49.3366V13.1892H5.41772V49.3366H48.5823ZM34.0466 9.16953H19.9532C19.226 9.16953 18.6265 8.67813 18.6265 8.06879V5.14004C18.6265 4.53071 19.226 4.03931 19.9532 4.03931H34.0466C34.7739 4.03931 35.3734 4.53071 35.3734 5.14004V8.06879C35.3734 8.67813 34.7739 9.16953 34.0466 9.16953ZM33.6142 7.40049V5.78869H20.3857V7.40049H33.6142ZM16.4251 7.94104H14.6659C13.9386 7.94104 13.3391 7.34153 13.3391 6.61426C13.3391 5.88698 13.9386 5.28748 14.6659 5.28748H16.4251C17.1524 5.28748 17.7519 5.88698 17.7519 6.61426C17.7519 7.34153 17.1524 7.94104 16.4251 7.94104ZM39.3343 7.94104H37.5751C36.8478 7.94104 36.2483 7.34153 36.2483 6.61426C36.2483 5.88698 36.8478 5.28748 37.5751 5.28748H39.3343C40.0616 5.28748 40.6611 5.88698 40.6611 6.61426C40.6611 7.34153 40.0616 7.94104 39.3343 7.94104ZM42.8624 7.94104H44.6216C45.3489 7.94104 45.9484 7.34153 45.9484 6.61426C45.9484 5.88698 45.3489 5.28748 44.6216 5.28748H42.8624C42.1352 5.28748 41.5356 5.88698 41.5356 6.61426C41.5356 7.34153 42.1352 7.94104 42.8624 7.94104ZM20.4055 43.253C25.634 43.253 29.8895 38.9975 29.8895 33.769C29.8895 28.5405 25.634 24.2751 20.4055 24.2751C15.177 24.2751 10.9116 28.5307 10.9116 33.769C10.9116 39.0073 15.1672 43.253 20.4055 43.253ZM13.3981 33.769C13.3981 29.9066 16.5431 26.7616 20.4055 26.7616C24.2679 26.7616 27.4128 29.9066 27.4128 33.769C27.4128 37.6314 24.2679 40.7764 20.4055 40.7764C16.5431 40.7764 13.3981 37.6314 13.3981 33.769ZM11.1375 7.94104H9.37829C8.65102 7.94104 8.05151 7.34153 8.05151 6.61426C8.05151 5.88698 8.65102 5.28748 9.37829 5.28748H11.1375C11.8648 5.28748 12.4643 5.88698 12.4643 6.61426C12.4643 7.34153 11.8648 7.94104 11.1375 7.94104ZM8.85747 47.3711H45.1425C45.8304 47.3711 46.3808 46.8109 46.3808 46.1327V16.4423C46.3808 15.7543 45.8206 15.204 45.1425 15.204H8.85747C8.16951 15.204 7.61914 15.7642 7.61914 16.4423V46.1327C7.61914 46.8207 8.17934 47.3711 8.85747 47.3711ZM43.9042 18.7421C43.1556 18.9244 42.6319 19.2567 42.2325 19.5102L42.2039 19.5283L42.1662 19.552C41.686 19.8536 41.3589 20.059 40.6118 20.059C39.8452 20.059 39.511 19.8526 39.0098 19.5283L38.9881 19.5147C38.3809 19.1326 37.5573 18.6143 36.0811 18.6143C34.5973 18.6143 33.7729 19.1378 33.1551 19.5301L33.1425 19.5381L33.1047 19.5618C32.6245 19.8634 32.2975 20.0688 31.5503 20.0688C30.7838 20.0688 30.4496 19.8625 29.9484 19.5381L29.9267 19.5245C29.3195 19.1424 28.4959 18.6241 27.0196 18.6241C25.5359 18.6241 24.7115 19.1476 24.0937 19.5399L24.0811 19.548L24.0433 19.5717C23.5631 19.8733 23.2361 20.0787 22.4889 20.0787C21.7223 20.0787 21.3882 19.8723 20.887 19.548L20.8653 19.5343C20.258 19.1522 19.4344 18.634 17.9582 18.634C16.4745 18.634 15.6501 19.1575 15.0323 19.5497L15.0196 19.5578L14.9819 19.5815C14.5017 19.8831 14.1747 20.0885 13.4275 20.0885C12.6609 20.0885 12.3268 19.8821 11.8255 19.5578C11.4324 19.3023 10.9115 18.9681 10.1253 18.7814V17.7199H43.9238V18.7715L43.9042 18.7421ZM13.398 22.5357C14.8817 22.5357 15.7062 22.0122 16.3239 21.6199L16.3366 21.6118L16.3743 21.5881C16.8545 21.2865 17.1815 21.0811 17.9287 21.0811C18.6953 21.0811 19.0295 21.2875 19.5307 21.6118L19.5524 21.6255C20.1596 22.0076 20.9832 22.5258 22.4594 22.5258C23.9431 22.5258 24.7676 22.0023 25.3854 21.61L25.398 21.602L25.4358 21.5783C25.9159 21.2767 26.243 21.0713 26.9901 21.0713C27.7567 21.0713 28.0909 21.2777 28.6019 21.602L28.6236 21.6157C29.2309 21.9978 30.0545 22.516 31.5307 22.516C33.0144 22.516 33.8388 21.9925 34.4566 21.6002L34.4693 21.5922L34.507 21.5685C34.9872 21.2669 35.3142 21.0615 36.0614 21.0615C36.828 21.0615 37.1621 21.2679 37.6634 21.5922L37.685 21.6058C38.2923 21.9879 39.1159 22.5062 40.5921 22.5062C42.0758 22.5062 42.9003 21.9827 43.518 21.5904L43.5307 21.5824C43.5709 21.5576 43.6102 21.5328 43.6485 21.5087L43.6485 21.5086L43.6486 21.5086C43.7318 21.4561 43.8105 21.4065 43.8845 21.3661V44.8551H10.0958V21.3661C10.1856 21.411 10.2754 21.4673 10.3695 21.5263L10.3696 21.5264L10.3698 21.5265C10.3992 21.545 10.429 21.5637 10.4594 21.5824L10.4811 21.596C11.0884 21.9781 11.912 22.4964 13.3882 22.4964L13.398 22.5357ZM35.6586 37.3465V40.7666H34.4301C33.7421 40.7666 33.1917 41.3268 33.1917 42.0049C33.1917 42.6831 33.7519 43.2433 34.4301 43.2433H39.3736C40.0615 43.2433 40.6119 42.6831 40.6119 42.0049C40.6119 41.3268 40.0517 40.7666 39.3736 40.7666H38.1451V37.3465C40.9952 36.7568 43.0886 34.2212 43.0886 31.2924V25.5234C43.0886 24.8354 42.5284 24.285 41.8502 24.285H31.9534C31.2655 24.285 30.7151 24.8452 30.7151 25.5234V31.2924C30.7151 34.2212 32.8183 36.7666 35.6586 37.3465ZM33.1917 26.7617H40.6021V31.2924C40.6021 33.3366 38.9411 34.9976 36.8969 34.9976C34.8527 34.9976 33.1917 33.3366 33.1917 31.2924V26.7617ZM26.5972 33.7593C26.5972 37.1696 23.8158 39.9509 20.4055 39.9509C16.9952 39.9509 14.2139 37.1696 14.2139 33.7593C14.2139 30.349 16.9952 27.5676 20.4055 27.5676C23.8158 27.5676 26.5972 30.349 26.5972 33.7593ZM20.4055 30.0541C18.3613 30.0541 16.7004 31.715 16.7004 33.7593C16.7004 35.8035 18.3613 37.4644 20.4055 37.4644C22.4497 37.4644 24.1107 35.8035 24.1107 33.7593C24.1107 31.715 22.4497 30.0541 20.4055 30.0541Z" fill="#111827"/>
</svg>
