<svg width="52" height="52" viewBox="0 0 52 52" fill="none" xmlns="http://www.w3.org/2000/svg">
<path d="M50.4706 21.9451C49.7633 21.9451 49.299 21.9451 48.4762 21.9451L50.8865 18.6715C51.3873 17.9914 51.2418 17.034 50.5616 16.5331C49.8816 16.0324 48.9239 16.1777 48.4232 16.858L45.4745 20.863V14.2793C47.6459 13.8907 48.7373 12.442 48.7373 10.4235C48.7373 7.83536 45.5863 4.93549 44.9546 4.38052C44.3771 3.87316 43.513 3.87316 42.9355 4.38052C42.3039 4.93549 39.1529 7.83536 39.1529 10.4235C39.1529 12.4399 40.2423 13.8903 42.4157 14.2793V20.863L39.4669 16.8579C38.9659 16.1776 38.0086 16.0323 37.3285 16.533C36.6483 17.0339 36.5028 17.9912 37.0036 18.6714L39.414 21.9451C37.8471 21.9451 33.8969 21.9451 30.5312 21.9451L32.9415 18.6715C33.4423 17.9914 33.2968 17.034 32.6166 16.5331C31.9365 16.0324 30.9789 16.1777 30.4782 16.858L27.5294 20.863V14.2793C29.7008 13.8907 30.7922 12.442 30.7922 10.4235C30.7922 7.83536 27.6412 4.93549 27.0095 4.38052C26.432 3.87316 25.5679 3.87316 24.9904 4.38052C24.3588 4.93549 21.2078 7.83536 21.2078 10.4235C21.2078 12.4399 22.2972 13.8903 24.4706 14.2793V20.863L21.5218 16.8579C21.0208 16.1776 20.0634 16.0323 19.3834 16.533C18.7032 17.0339 18.5577 17.9912 19.0585 18.6714L21.4689 21.9451C19.902 21.9451 15.9518 21.9451 12.5861 21.9451L14.9964 18.6715C15.4972 17.9914 15.3517 17.034 14.6715 16.5331C13.9914 16.0324 13.0339 16.1777 12.5331 16.858L9.58431 20.863V14.2793C11.7557 13.8907 12.8471 12.442 12.8471 10.4235C12.8471 7.83536 9.69606 4.93549 9.06442 4.38052C8.48691 3.87316 7.62279 3.87316 7.04529 4.38052C6.41374 4.93549 3.26275 7.83536 3.26275 10.4235C3.26275 12.4399 4.35209 13.8903 6.52549 14.2793V20.863L3.57668 16.8579C3.07585 16.1776 2.11834 16.0323 1.43826 16.533C0.758078 17.0339 0.61258 17.9912 1.11341 18.6714L3.52376 21.9451C2.70033 21.9451 2.23661 21.9451 1.52941 21.9451C0.684769 21.9451 0 22.6299 0 23.4745V47.9451C0 48.7897 0.684769 49.4745 1.52941 49.4745H50.4706C51.3152 49.4745 52 48.7897 52 47.9451V23.4745C52 22.6299 51.3152 21.9451 50.4706 21.9451V21.9451ZM9.58431 33.1608H42.4157V38.2588H9.58431V33.1608ZM42.2118 10.4235C42.2118 9.84439 43.006 8.69489 43.9451 7.67293C44.8845 8.69519 45.6784 9.84449 45.6784 10.4235C45.6784 10.9761 45.6784 11.3412 43.9451 11.3412C42.2118 11.3412 42.2118 10.9761 42.2118 10.4235ZM24.2667 10.4235C24.2667 9.84439 25.0609 8.69489 26 7.67293C26.9394 8.69519 27.7333 9.84449 27.7333 10.4235C27.7333 10.9761 27.7333 11.3412 26 11.3412C24.2667 11.3412 24.2667 10.9761 24.2667 10.4235ZM42.4156 25.0039V30.102H9.58431V25.0039H42.4156ZM6.32157 10.4235C6.32157 9.84439 7.11584 8.69489 8.0549 7.67293C8.99427 8.69519 9.78824 9.84449 9.78824 10.4235C9.78824 10.9761 9.78824 11.3412 8.0549 11.3412C6.32157 11.3412 6.32157 10.9761 6.32157 10.4235ZM3.05882 25.0039H6.52549V46.4157H3.05882V25.0039ZM9.58431 41.3177H42.4157V46.4157H9.58431V41.3177ZM48.9412 46.4157H45.4745C45.4745 43.7958 45.4745 27.1788 45.4745 25.0039H48.9412V46.4157Z" fill="#111827"/>
</svg>
