<svg width="52" height="53" viewBox="0 0 52 53" fill="none" xmlns="http://www.w3.org/2000/svg">
<path d="M19.8833 0.567428C19.5351 0.219267 19.0628 0.0236816 18.5703 0.0236816C18.0779 0.0236816 17.6056 0.219267 17.2573 0.567428L13.5431 4.28171C13.2048 4.63198 13.0176 5.10109 13.0218 5.58803C13.026 6.07497 13.2213 6.54076 13.5657 6.88509C13.91 7.22942 14.3758 7.42473 14.8627 7.42897C15.3497 7.4332 15.8188 7.24601 16.169 6.90771L18.5703 4.50643L20.9716 6.90771C21.3219 7.24601 21.791 7.4332 22.2779 7.42897C22.7649 7.42473 23.2307 7.22942 23.575 6.88509C23.9193 6.54076 24.1146 6.07497 24.1189 5.58803C24.1231 5.10109 23.9359 4.63198 23.5976 4.28171L19.8833 0.567428Z" fill="#0078FF"/>
<path d="M28.4002 3.19296L32.1145 6.90725C32.4628 7.25541 32.9351 7.451 33.4275 7.451C33.92 7.451 34.3923 7.25541 34.7405 6.90725L38.4548 3.19296C38.6322 3.02165 38.7737 2.81672 38.871 2.59014C38.9683 2.36356 39.0196 2.11987 39.0217 1.87328C39.0238 1.62669 38.9768 1.38214 38.8835 1.15391C38.7901 0.92567 38.6522 0.718317 38.4778 0.543945C38.3034 0.369572 38.0961 0.231674 37.8679 0.138295C37.6396 0.0449162 37.3951 -0.00207268 37.1485 7.01196e-05C36.9019 0.00221292 36.6582 0.0534446 36.4316 0.150776C36.205 0.248107 36.0001 0.389588 35.8288 0.566964L33.4275 2.96825L31.0262 0.566964C30.676 0.22867 30.2069 0.0414807 29.7199 0.0457121C29.233 0.0499434 28.7672 0.245257 28.4229 0.589587C28.0785 0.933916 27.8832 1.39971 27.879 1.88665C27.8747 2.37358 28.0619 2.8427 28.4002 3.19296Z" fill="#0078FF"/>
<path d="M50.1429 11.1664H1.85714C1.3646 11.1664 0.892226 11.362 0.543944 11.7103C0.195663 12.0586 0 12.531 0 13.0235V50.1664C0 50.6589 0.195663 51.1313 0.543944 51.4796C0.892226 51.8279 1.3646 52.0235 1.85714 52.0235H50.1429C50.6354 52.0235 51.1078 51.8279 51.4561 51.4796C51.8043 51.1313 52 50.6589 52 50.1664V13.0235C52 12.531 51.8043 12.0586 51.4561 11.7103C51.1078 11.362 50.6354 11.1664 50.1429 11.1664ZM13 48.3092V37.1664C13 36.1813 13.3913 35.2366 14.0879 34.54C14.7845 33.8434 15.7292 33.4521 16.7143 33.4521C17.6994 33.4521 18.6441 33.8434 19.3407 34.54C20.0372 35.2366 20.4286 36.1813 20.4286 37.1664V48.3092H13ZM31.5714 48.3092V37.1664C31.5714 36.1813 31.9628 35.2366 32.6593 34.54C33.3559 33.8434 34.3006 33.4521 35.2857 33.4521C36.2708 33.4521 37.2155 33.8434 37.9121 34.54C38.6087 35.2366 39 36.1813 39 37.1664V48.3092H31.5714ZM48.2857 48.3092H42.7143V37.1664C42.7143 35.1962 41.9316 33.3067 40.5385 31.9136C39.1454 30.5205 37.2559 29.7378 35.2857 29.7378C33.3155 29.7378 31.426 30.5205 30.0329 31.9136C28.6398 33.3067 27.8571 35.1962 27.8571 37.1664V48.3092H24.1429V37.1664C24.1429 35.1962 23.3602 33.3067 21.9671 31.9136C20.574 30.5205 18.6845 29.7378 16.7143 29.7378C14.7441 29.7378 12.8546 30.5205 11.4615 31.9136C10.0684 33.3067 9.28571 35.1962 9.28571 37.1664V48.3092H3.71429V14.8807H48.2857V48.3092Z" fill="#0078FF"/>
<path d="M22.2857 24.1664C22.2857 23.0645 21.9589 21.9873 21.3467 21.0711C20.7345 20.1549 19.8644 19.4408 18.8463 19.0191C17.8283 18.5974 16.7081 18.4871 15.6273 18.702C14.5466 18.917 13.5538 19.4476 12.7747 20.2268C11.9955 21.006 11.4649 21.9987 11.2499 23.0795C11.0349 24.1602 11.1452 25.2804 11.5669 26.2985C11.9886 27.3165 12.7027 28.1867 13.6189 28.7989C14.5352 29.4111 15.6123 29.7378 16.7143 29.7378C18.1919 29.7378 19.609 29.1508 20.6538 28.106C21.6987 27.0612 22.2857 25.644 22.2857 24.1664ZM16.7143 26.0235C16.3469 26.0235 15.9879 25.9146 15.6825 25.7106C15.3771 25.5065 15.139 25.2164 14.9985 24.8771C14.8579 24.5378 14.8211 24.1643 14.8928 23.8041C14.9645 23.4438 15.1413 23.1129 15.4011 22.8532C15.6608 22.5935 15.9917 22.4166 16.3519 22.3449C16.7122 22.2733 17.0856 22.3101 17.425 22.4506C17.7643 22.5912 18.0543 22.8292 18.2584 23.1346C18.4625 23.44 18.5714 23.7991 18.5714 24.1664C18.5714 24.6589 18.3757 25.1313 18.0275 25.4796C17.6792 25.8279 17.2068 26.0235 16.7143 26.0235Z" fill="#0078FF"/>
<path d="M40.8572 24.1664C40.8572 23.0645 40.5305 21.9873 39.9183 21.0711C39.3061 20.1549 38.4359 19.4408 37.4179 19.0191C36.3998 18.5974 35.2796 18.4871 34.1989 18.702C33.1181 18.917 32.1254 19.4476 31.3462 20.2268C30.567 21.006 30.0364 21.9987 29.8214 23.0795C29.6064 24.1602 29.7168 25.2804 30.1385 26.2985C30.5601 27.3165 31.2743 28.1867 32.1905 28.7989C33.1067 29.4111 34.1839 29.7378 35.2858 29.7378C36.7634 29.7378 38.1805 29.1508 39.2254 28.106C40.2702 27.0612 40.8572 25.644 40.8572 24.1664ZM35.2858 26.0235C34.9185 26.0235 34.5594 25.9146 34.254 25.7106C33.9486 25.5065 33.7106 25.2164 33.57 24.8771C33.4294 24.5378 33.3927 24.1643 33.4643 23.8041C33.536 23.4438 33.7129 23.1129 33.9726 22.8532C34.2323 22.5935 34.5632 22.4166 34.9235 22.3449C35.2837 22.2733 35.6571 22.3101 35.9965 22.4506C36.3358 22.5912 36.6259 22.8292 36.8299 23.1346C37.034 23.44 37.1429 23.7991 37.1429 24.1664C37.1429 24.6589 36.9473 25.1313 36.599 25.4796C36.2507 25.8279 35.7783 26.0235 35.2858 26.0235Z" fill="#0078FF"/>
</svg>
