<svg width="58" height="62" viewBox="0 0 58 62" fill="none" xmlns="http://www.w3.org/2000/svg">
<path d="M51.9996 0H6.00003C3.24176 0 0.996094 2.24567 0.996094 5.00394V37.0047H7.24491C7.09846 38.0177 7.00082 39.0307 7.00082 40.0193C7.02523 52.1386 16.8866 62 29.0059 62C41.1252 62 50.9866 52.1386 50.9866 40.0193C50.9866 39.0307 50.889 38.0177 50.7425 37.0047H56.9914V5.00394H57.0036C57.0036 2.24567 54.7579 0 51.9996 0ZM9.0146 40.0193C9.0146 39.0307 9.08783 38.0177 9.24649 37.0047H20.5359C20.1941 37.9689 19.9866 38.9941 19.9866 40.0193C19.9866 43.0827 21.5244 45.7921 23.88 47.4154L20.5481 58.0945C13.75 54.9091 9.0146 48.0134 9.0146 40.0193ZM29.0059 45.011C31.7642 45.011 34.0099 42.7654 34.0099 40.0071C34.0099 38.872 33.6193 37.8346 32.9725 36.9925H35.3158C35.7674 37.9323 35.9992 38.9697 35.9992 40.0071C35.9992 43.8638 32.8626 47.0126 28.9937 47.0126C25.137 47.0126 21.9882 43.876 21.9882 40.0071C21.9882 38.9697 22.2201 37.9323 22.6717 36.9925H25.015C24.3681 37.8346 23.9776 38.872 23.9776 40.0071C24.002 42.7654 26.2477 45.011 29.0059 45.011ZM26.0036 40.0193C26.0036 38.3594 27.3461 37.0169 29.0059 37.0169C30.6658 37.0169 32.0083 38.3594 32.0083 40.0193C32.0083 41.6791 30.6658 43.0217 29.0059 43.0217C27.3461 43.0094 26.0036 41.6669 26.0036 40.0193ZM29.0059 59.9984C26.687 59.9984 24.478 59.5835 22.4154 58.8512L25.6985 48.3673C26.7237 48.7823 27.8465 49.0142 29.0181 49.0142C30.1898 49.0142 31.3126 48.7823 32.3378 48.3673L35.6209 58.8512C33.5339 59.5835 31.3248 59.9984 29.0059 59.9984ZM37.4638 58.0945L34.1197 47.4154C36.463 45.7921 38.013 43.0827 38.013 40.0193C38.013 38.9941 37.8177 37.9689 37.4638 37.0047H48.7532C48.9118 38.0177 48.9851 39.0307 48.9851 40.0193C48.9973 48.0134 44.2618 54.9091 37.4638 58.0945ZM55.002 35.0031H3.00987V28.9984H55.002V35.0031ZM55.0142 26.9969H55.002H3.00987V5.00394C3.00987 3.34409 4.35239 2.00157 6.01224 2.00157H52.0118C53.6717 2.00157 55.0142 3.34409 55.0142 5.00394V26.9969Z" fill="#0078FF"/>
<path d="M9.01487 31H5.01172V33.0016H9.01487V31Z" fill="#0078FF"/>
<path d="M15.0071 31H11.0039V33.0016H15.0071V31Z" fill="#0078FF"/>
<path d="M21.011 31H17.0078V33.0016H21.011V31Z" fill="#0078FF"/>
</svg>
