<svg width="53" height="52" viewBox="0 0 53 52" fill="none" xmlns="http://www.w3.org/2000/svg">
<g clip-path="url(#clip0_748_1571)">
<g clip-path="url(#clip1_748_1571)">
<path d="M40.9489 50C37.1954 50 34.1327 46.9594 34.1327 43.2327V42.5838H17.8859V43.2327C17.8859 46.9594 14.8233 50 11.0698 50C7.31618 50 4.25357 46.9594 4.25357 43.2327V42.5838H1.73252C1.06023 42.5838 0.518674 42.0462 0.518674 41.3787C0.518674 40.7112 1.06023 40.1736 1.73252 40.1736H2.38612V32.1085C2.38612 31.5893 2.72226 31.1258 3.24515 30.959L3.82406 30.7736L0.5 17.5728L0.612047 17.3874L0.686745 17.2947L0.724094 17.1464C0.705419 16.9239 0.705419 16.8682 0.724094 16.7941C0.724094 16.7941 0.780117 16.7199 0.817466 16.6643L0.892164 16.5716L0.966862 16.3306L7.37221 8.3211C8.15654 7.30138 9.33303 6.72663 10.6029 6.70809H16.2052L16.7468 5.37318C17.0269 4.66864 17.5124 4.07535 18.1474 3.64892C18.7823 3.22249 19.5106 3 20.2763 3C21.5461 3 22.7226 3.63037 23.4323 4.66864C23.7311 5.13215 23.9365 5.68836 24.0112 6.24458L24.0859 6.80079H28.6798C30.9581 6.80079 32.8068 8.63629 32.8068 10.8982V17.925H42.9844C44.5157 17.925 45.8603 18.8335 46.4019 20.2241L49.2404 27.2509C49.4832 27.8627 49.5952 28.5116 49.5952 29.1606V40.1736H50.2488C50.9211 40.1736 51.4627 40.7112 51.4627 41.3787C51.4627 42.0462 50.9211 42.5838 50.2488 42.5838H47.7278V43.2327C47.7278 46.9594 44.6651 50 40.9116 50H40.9489ZM40.9489 38.8757C38.5212 38.8757 36.5604 40.8225 36.5604 43.2327C36.5604 45.643 38.5212 47.5897 40.9489 47.5897C43.3766 47.5897 45.3374 45.643 45.3374 43.2327C45.3374 40.8225 43.3766 38.8757 40.9489 38.8757ZM11.0698 38.8757C8.64207 38.8757 6.68125 40.8225 6.68125 43.2327C6.68125 45.643 8.64207 47.5897 11.0698 47.5897C13.4974 47.5897 15.4583 45.643 15.4583 43.2327C15.4583 40.8225 13.4974 38.8757 11.0698 38.8757ZM32.8255 40.1736H34.8984L35.0851 39.8584C35.44 39.2465 35.9068 38.7089 36.4297 38.2268C37.6809 37.1329 39.2869 36.5211 40.9489 36.5211C42.8911 36.5211 44.7585 37.3554 46.0471 38.8016L47.1862 40.0809V31.4596H37.1953C36.5231 31.4596 35.9815 30.9219 35.9815 30.2544V20.3353H32.8068V40.1736H32.8255ZM11.0511 36.5211C13.4601 36.5211 15.701 37.8004 16.9335 39.8584L17.1203 40.1736H30.3978V33.3136H4.8138V40.0809L5.95295 38.8016C6.41981 38.2639 6.98004 37.8189 7.5963 37.4667C8.64207 36.8548 9.83724 36.5211 11.0511 36.5211ZM6.43848 31.0517L11.4993 18.4627H3.2825L6.43848 31.0517ZM26.4015 30.8848H30.3792V24.9333L26.4015 30.8848ZM14.73 30.8848H23.4696L30.3418 20.669L30.3978 18.7408V18.4627H19.7534L14.73 30.8848ZM20.2949 5.50296C19.716 5.50296 19.2305 5.85523 19.0251 6.3929L9.14628 30.9219H12.1155L21.5275 7.39408C21.7142 7.04181 21.7142 6.55976 21.4901 6.17041C21.1726 5.74398 20.7618 5.5215 20.3136 5.50296H20.2949ZM38.4279 29.0493H47.3729L44.1796 21.1325C44.0115 20.669 43.5447 20.3353 43.0218 20.3353H38.4279V29.0493ZM20.7058 16.071H30.3978V10.8982C30.3978 9.9712 29.6322 9.21105 28.6985 9.21105H23.4883L20.7058 16.071ZM10.5842 9.21105C10.08 9.21105 9.59447 9.45207 9.25833 9.84142L4.2349 16.071H12.5077L15.2715 9.21105H10.5655H10.5842Z" fill="#111827"/>
</g>
</g>
<defs>
<clipPath id="clip0_748_1571">
<rect width="52" height="52" fill="white" transform="translate(0.5)"/>
</clipPath>
<clipPath id="clip1_748_1571">
<rect width="51" height="47" fill="white" transform="translate(0.5 3)"/>
</clipPath>
</defs>
</svg>
