<svg width="52" height="57" viewBox="0 0 52 57" fill="none" xmlns="http://www.w3.org/2000/svg">
<path d="M29.8314 0C17.6074 0 7.6626 9.94481 7.6626 22.1687C7.6626 23.0838 8.4093 23.8256 9.32443 23.8256C9.87273 23.8256 10.3856 23.5543 10.6942 23.1009C11.5426 21.8547 12.947 21.1106 14.4511 21.1106C15.9554 21.1106 17.3598 21.8546 18.2081 23.1009C18.5166 23.5543 19.0294 23.8256 19.5779 23.8256C20.1262 23.8256 20.639 23.5543 20.9476 23.1009C21.796 21.8547 23.2005 21.1106 24.7046 21.1106C26.05 21.1106 27.3144 21.7072 28.1739 22.7248V33.6297H26.7817C25.8666 33.6297 25.1248 34.3716 25.1248 35.2866C25.1248 36.2016 25.8667 36.9435 26.7817 36.9435H28.1739V43.3712H13.5577L2.82854 32.6425C2.18153 31.9955 1.13235 31.9955 0.485339 32.6425C-0.16178 33.2895 -0.16178 34.3387 0.485339 34.9857L11.6997 46.2C12.0104 46.5107 12.4318 46.6854 12.8713 46.6854H18.9397L14.5014 53.6679C14.0105 54.4402 14.2386 55.4642 15.0108 55.9551C15.7831 56.446 16.807 56.2177 17.298 55.4457L22.8664 46.6854H28.1737V54.5568C28.1737 55.4719 28.9155 56.2137 29.8305 56.2137C30.7457 56.2137 31.4874 55.4718 31.4874 54.5568V46.6854H36.7947L42.3631 55.4457C42.6787 55.9424 43.2149 56.2139 43.763 56.2139C44.067 56.2139 44.3747 56.1302 44.6503 55.9551C45.4225 55.4642 45.6507 54.4401 45.1597 53.6679L40.7213 46.6854H46.7897C47.7048 46.6854 48.4466 45.9436 48.4466 45.0285C48.4466 44.1134 47.7047 43.3717 46.7897 43.3717H31.4876V36.944H32.881C33.7961 36.944 34.5379 36.2021 34.5379 35.2871C34.5379 34.3721 33.796 33.6302 32.881 33.6302H31.4876V22.7267C32.3468 21.7082 33.6118 21.111 34.9581 21.111C36.4622 21.111 37.8668 21.8549 38.715 23.1013C39.0236 23.5546 39.5364 23.8259 40.0847 23.8259C40.6329 23.8259 41.1459 23.5546 41.4544 23.1014C42.3029 21.855 43.7074 21.111 45.2115 21.111C46.7157 21.111 48.1203 21.8549 48.9684 23.1013C49.277 23.5546 49.7948 23.8259 50.3431 23.8259C51.2582 23.8259 52 23.084 52 22.169C52.0001 9.94481 42.0553 0 29.8314 0ZM45.2116 17.797C43.3065 17.797 41.4945 18.4861 40.0849 19.7009C38.6754 18.4864 36.8632 17.797 34.9582 17.797C33.1737 17.797 31.4708 18.4018 30.1041 19.4766C30.015 19.4618 29.9242 19.4522 29.8309 19.4522C29.738 19.4522 29.6474 19.4616 29.5587 19.4764C28.1919 18.4016 26.4892 17.7969 24.7047 17.7969C22.7997 17.7969 20.9875 18.4862 19.578 19.7008C18.1686 18.4862 16.3562 17.7969 14.4512 17.7969C13.3677 17.7969 12.3141 18.02 11.3477 18.4356C13.0845 9.82063 20.7122 3.31388 29.8316 3.31388C38.951 3.31388 46.5784 9.82063 48.3152 18.4357C47.3489 18.0201 46.2949 17.797 45.2116 17.797Z" fill="#111827"/>
</svg>
