<svg width="62" height="62" viewBox="0 0 62 62" fill="none" xmlns="http://www.w3.org/2000/svg">
<path d="M43.834 34.7539C42.3316 34.7539 41.1094 35.9761 41.1094 37.4785C41.1094 38.9809 42.3316 40.2031 43.834 40.2031C45.3364 40.2031 46.5586 38.9809 46.5586 37.4785C46.5586 35.9761 45.3364 34.7539 43.834 34.7539ZM43.834 38.3867C43.3331 38.3867 42.9258 37.9794 42.9258 37.4785C42.9258 36.9777 43.3331 36.5703 43.834 36.5703C44.3348 36.5703 44.7422 36.9777 44.7422 37.4785C44.7422 37.9794 44.3348 38.3867 43.834 38.3867Z" fill="#0078FF"/>
<path d="M36.5684 34.7539C35.0659 34.7539 33.8438 35.9761 33.8438 37.4785C33.8438 38.9809 35.0659 40.2031 36.5684 40.2031C38.0708 40.2031 39.293 38.9809 39.293 37.4785C39.293 35.9761 38.0708 34.7539 36.5684 34.7539ZM36.5684 38.3867C36.0675 38.3867 35.6602 37.9794 35.6602 37.4785C35.6602 36.9777 36.0675 36.5703 36.5684 36.5703C37.0692 36.5703 37.4766 36.9777 37.4766 37.4785C37.4766 37.9794 37.0692 38.3867 36.5684 38.3867Z" fill="#0078FF"/>
<path d="M43.834 42.0195C42.3316 42.0195 41.1094 43.2417 41.1094 44.7441C41.1094 46.2466 42.3316 47.4688 43.834 47.4688C45.3364 47.4688 46.5586 46.2466 46.5586 44.7441C46.5586 43.2417 45.3364 42.0195 43.834 42.0195ZM43.834 45.6523C43.3331 45.6523 42.9258 45.245 42.9258 44.7441C42.9258 44.2433 43.3331 43.8359 43.834 43.8359C44.3348 43.8359 44.7422 44.2433 44.7422 44.7441C44.7422 45.245 44.3348 45.6523 43.834 45.6523Z" fill="#0078FF"/>
<path d="M36.5684 42.0195C35.0659 42.0195 33.8438 43.2417 33.8438 44.7441C33.8438 46.2466 35.0659 47.4688 36.5684 47.4688C38.0708 47.4688 39.293 46.2466 39.293 44.7441C39.293 43.2417 38.0708 42.0195 36.5684 42.0195ZM36.5684 45.6523C36.0675 45.6523 35.6602 45.245 35.6602 44.7441C35.6602 44.2433 36.0675 43.8359 36.5684 43.8359C37.0692 43.8359 37.4766 44.2433 37.4766 44.7441C37.4766 45.245 37.0692 45.6523 36.5684 45.6523Z" fill="#0078FF"/>
<path d="M51.0996 42.0195C49.5972 42.0195 48.375 43.2417 48.375 44.7441C48.375 46.2466 49.5972 47.4688 51.0996 47.4688C52.602 47.4688 53.8242 46.2466 53.8242 44.7441C53.8242 43.2417 52.602 42.0195 51.0996 42.0195ZM51.0996 45.6523C50.5988 45.6523 50.1914 45.245 50.1914 44.7441C50.1914 44.2433 50.5988 43.8359 51.0996 43.8359C51.6005 43.8359 52.0078 44.2433 52.0078 44.7441C52.0078 45.245 51.6005 45.6523 51.0996 45.6523Z" fill="#0078FF"/>
<path d="M43.834 49.2852C42.3316 49.2852 41.1094 50.5074 41.1094 52.0098C41.1094 53.5122 42.3316 54.7344 43.834 54.7344C45.3364 54.7344 46.5586 53.5122 46.5586 52.0098C46.5586 50.5074 45.3364 49.2852 43.834 49.2852ZM43.834 52.918C43.3331 52.918 42.9258 52.5106 42.9258 52.0098C42.9258 51.5089 43.3331 51.1016 43.834 51.1016C44.3348 51.1016 44.7422 51.5089 44.7422 52.0098C44.7422 52.5106 44.3348 52.918 43.834 52.918Z" fill="#0078FF"/>
<path d="M36.5684 49.2852C35.0659 49.2852 33.8438 50.5074 33.8438 52.0098C33.8438 53.5122 35.0659 54.7344 36.5684 54.7344C38.0708 54.7344 39.293 53.5122 39.293 52.0098C39.293 50.5074 38.0708 49.2852 36.5684 49.2852ZM36.5684 52.918C36.0675 52.918 35.6602 52.5106 35.6602 52.0098C35.6602 51.5089 36.0675 51.1016 36.5684 51.1016C37.0692 51.1016 37.4766 51.5089 37.4766 52.0098C37.4766 52.5106 37.0692 52.918 36.5684 52.918Z" fill="#0078FF"/>
<path d="M51.0996 49.2852C49.5972 49.2852 48.375 50.5074 48.375 52.0098C48.375 53.5122 49.5972 54.7344 51.0996 54.7344C52.602 54.7344 53.8242 53.5122 53.8242 52.0098C53.8242 50.5074 52.602 49.2852 51.0996 49.2852ZM51.0996 52.918C50.5988 52.918 50.1914 52.5106 50.1914 52.0098C50.1914 51.5089 50.5988 51.1016 51.0996 51.1016C51.6005 51.1016 52.0078 51.5089 52.0078 52.0098C52.0078 52.5106 51.6005 52.918 51.0996 52.918Z" fill="#0078FF"/>
<path d="M51.0996 34.7539C49.5972 34.7539 48.375 35.9761 48.375 37.4785C48.375 38.9809 49.5972 40.2031 51.0996 40.2031C52.602 40.2031 53.8242 38.9809 53.8242 37.4785C53.8242 35.9761 52.602 34.7539 51.0996 34.7539ZM51.0996 38.3867C50.5988 38.3867 50.1914 37.9794 50.1914 37.4785C50.1914 36.9777 50.5988 36.5703 51.0996 36.5703C51.6005 36.5703 52.0078 36.9777 52.0078 37.4785C52.0078 37.9794 51.6005 38.3867 51.0996 38.3867Z" fill="#0078FF"/>
<path d="M58.3672 24.7637V4.54102C58.3672 4.03945 57.9606 3.63281 57.459 3.63281H30.2129C29.7113 3.63281 29.3047 4.03945 29.3047 4.54102V24.7637C29.3047 25.2652 29.7113 25.6719 30.2129 25.6719H57.459C57.9606 25.6719 58.3672 25.2652 58.3672 24.7637ZM56.5508 5.44922V18.4062H31.1211V5.44922H56.5508ZM31.1211 23.8555V20.2227H56.5508V23.8555H31.1211Z" fill="#0078FF"/>
<path d="M57.459 0H30.2129C28.0199 0 26.1852 1.56259 25.7633 3.63281H23.7642C23.3422 1.56259 21.5075 0 19.3145 0H8.17383C5.98082 0 4.14613 1.56259 3.72424 3.63281H0.908203C0.406633 3.63281 0 4.03945 0 4.54102V57.459C0 57.9606 0.406633 58.3672 0.908203 58.3672H3.72424C4.14613 60.4374 5.98082 62 8.17383 62H19.3145C21.5075 62 23.3422 60.4374 23.764 58.3672H25.7632C26.1851 60.4374 28.0198 62 30.2128 62H57.4589C59.9628 62 61.9999 59.963 61.9999 57.459V4.54102C62 2.03704 59.963 0 57.459 0ZM1.81641 5.44922H3.63281V56.5508H1.81641V5.44922ZM22.0391 57.459C22.0391 58.9614 20.8169 60.1836 19.3145 60.1836H8.17383C6.67142 60.1836 5.44922 58.9614 5.44922 57.459V4.54102C5.44922 3.03861 6.67142 1.81641 8.17383 1.81641H19.3145C20.8169 1.81641 22.0391 3.03861 22.0391 4.54102V57.459ZM25.6719 56.5508H23.8555V5.44922H25.6719V56.5508ZM57.459 60.1836H30.2129C28.7105 60.1836 27.4883 58.9614 27.4883 57.459V29.3047H30.2129C30.7145 29.3047 31.1211 28.8981 31.1211 28.3965C31.1211 27.8949 30.7145 27.4883 30.2129 27.4883H27.4883V4.54102C27.4883 3.03861 28.7105 1.81641 30.2129 1.81641H57.459C58.9614 1.81641 60.1836 3.03861 60.1836 4.54102V27.4883H33.8457C33.3441 27.4883 32.9375 27.8949 32.9375 28.3965C32.9375 28.8981 33.3441 29.3047 33.8457 29.3047H60.1836V57.459C60.1836 58.9614 58.9614 60.1836 57.459 60.1836Z" fill="#0078FF"/>
</svg>
