<svg width="52" height="52" viewBox="0 0 52 52" fill="none" xmlns="http://www.w3.org/2000/svg">
<g clip-path="url(#clip0_748_1558)">
<path d="M5.42 48.38C4.53 48.38 3.81 47.66 3.81 46.77V35.73H2.61C1.72 35.73 1 35.01 1 34.12C1 33.23 1.72 32.51 2.61 32.51H12.25V17.25C12.24 9.4 18.64 3 26.5 3C34.36 3 40.76 9.4 40.76 17.26V32.52H50.4C51.29 32.52 52.01 33.24 52.01 34.13C52.01 35.02 51.29 35.74 50.4 35.74H49.2V46.78C49.2 47.67 48.48 48.39 47.59 48.39H5.42V48.38ZM40.76 45.16H45.98V35.73H40.76V45.16ZM32.33 45.16H37.55V35.73H32.33V45.16ZM23.9 45.16H29.12V35.73H23.9V45.16ZM15.47 45.16H20.69V35.73H15.47V45.16ZM7.04 45.16H12.26V35.73H7.04V45.16ZM28.12 32.51H37.55V20.97H28.12V32.51ZM15.47 32.51H24.9V20.97H15.47V32.51ZM28.12 17.75H37.55V17.25C37.55 12.02 33.84 7.48 28.72 6.43L28.12 6.31V17.75ZM24.3 6.43C19.18 7.47 15.47 12.02 15.47 17.25V17.75H24.9V6.32L24.3 6.44V6.43Z" fill="#111827"/>
</g>
<defs>
<clipPath id="clip0_748_1558">
<rect width="51" height="45.38" fill="white" transform="translate(1 3)"/>
</clipPath>
</defs>
</svg>
