<svg width="50" height="45" viewBox="0 0 50 45" fill="none" xmlns="http://www.w3.org/2000/svg">
<path d="M48.6927 43.2697C47.3727 43.2697 46.162 42.5895 45.3709 41.4038C45.2236 41.183 44.9906 41.0527 44.7427 41.0527C44.4939 41.053 44.2607 41.1838 44.1137 41.4051C43.3378 42.5726 42.0977 43.2697 40.7963 43.2697C39.4957 43.2697 38.254 42.5722 37.4745 41.4038C37.3273 41.183 37.0942 41.0527 36.8464 41.0527C36.5985 41.0527 36.3654 41.183 36.2182 41.4038C35.4388 42.5721 34.197 43.2697 32.8964 43.2697C31.579 43.2697 30.3695 42.5895 29.5781 41.4037C29.4307 41.183 29.1977 41.0527 28.9499 41.0527C28.7021 41.0527 28.4691 41.183 28.3218 41.4038C27.5424 42.5721 26.3006 43.2697 25.0001 43.2697C23.6986 43.2697 22.4584 42.5726 21.6826 41.4051C21.5356 41.184 21.3029 41.0533 21.0551 41.0527C20.8063 41.0527 20.5736 41.1824 20.4263 41.4023C19.6314 42.589 18.4203 43.2697 17.1037 43.2697C15.8023 43.2697 14.5621 42.5726 13.7863 41.4051C13.6393 41.1838 13.4061 41.053 13.158 41.0527C12.9095 41.0527 12.6764 41.183 12.5291 41.4038C11.7498 42.5722 10.5066 43.2697 9.20359 43.2697C7.90555 43.2697 6.6651 42.5721 5.88517 41.4036C5.7378 41.1829 5.50484 41.0527 5.25697 41.0527C5.00911 41.0527 4.77614 41.1831 4.62889 41.4038C3.83813 42.5895 2.62746 43.2697 1.30744 43.2697C0.876081 43.2697 0.526367 43.6569 0.526367 44.1349C0.526367 44.6128 0.876081 45.0001 1.30744 45.0001C2.78315 45.0001 4.20304 44.3505 5.25739 43.2251C6.31163 44.3506 7.73017 45.0001 9.2038 45.0001C10.6812 45.0001 12.1019 44.351 13.1566 43.2259C14.2086 44.3508 15.6274 45.0001 17.1039 45.0001C18.601 45.0001 19.9977 44.3643 21.0543 43.2274C22.1062 44.3514 23.5244 45.0001 25.0004 45.0001C26.475 45.0001 27.8939 44.3515 28.948 43.2274C30.0023 44.3643 31.3983 45.0001 32.8966 45.0001C34.3722 45.0001 35.7921 44.3505 36.8465 43.2251C37.9008 44.3505 39.3206 45.0001 40.7964 45.0001C42.273 45.0001 43.6916 44.351 44.7436 43.2261C45.798 44.3508 47.2175 45.0001 48.6927 45.0001C49.124 45.0001 49.4737 44.6128 49.4737 44.1349C49.4737 43.6569 49.124 43.2697 48.6927 43.2697Z" fill="#111827"/>
<path fill-rule="evenodd" clip-rule="evenodd" d="M5.25739 36.2939C4.20304 37.3089 2.78315 37.8947 1.30744 37.8947C0.876081 37.8947 0.526367 37.5455 0.526367 37.1144C0.526367 36.6833 0.876081 36.3341 1.30744 36.3341C2.62746 36.3341 3.83813 35.7206 4.6292 34.6513C4.77646 34.4522 5.00943 34.3346 5.25729 34.3346C5.50515 34.3346 5.73812 34.452 5.88548 34.6511C6.15927 35.0211 6.49076 35.3373 6.86068 35.5938V10.2315C6.86068 4.58981 11.4549 0 17.1019 0C19.3576 0 21.499 0.721964 23.2944 2.08807C23.6376 2.34922 23.7039 2.83885 23.4426 3.18168C23.1811 3.5245 22.6909 3.59088 22.3479 3.32973C20.8268 2.17245 19.0127 1.56067 17.1019 1.56067C12.3162 1.56067 8.42283 5.45037 8.42283 10.2315V18.728H9.98498V10.2315C9.98498 6.31092 13.1776 3.12133 17.1019 3.12133C18.8157 3.12133 20.4735 3.74258 21.7697 4.87053C22.0951 5.15353 22.129 5.64649 21.8458 5.97142C21.5624 6.29656 21.069 6.33058 20.7437 6.04727C19.7319 5.16684 18.4385 4.682 17.1018 4.682C14.0389 4.682 11.547 7.17157 11.547 10.2315V18.728H22.657V10.2315C22.657 4.58981 27.2512 0 32.8983 0C38.5454 0 43.1395 4.58981 43.1395 10.2315C43.1395 11.5223 42.0884 12.5725 40.7963 12.5725C39.5042 12.5725 38.4531 11.5223 38.4531 10.2315C38.4531 7.17157 35.9612 4.682 32.8983 4.682C29.8353 4.682 27.3435 7.17157 27.3435 10.2315V35.5961C27.715 35.3393 28.0476 35.0223 28.322 34.6513C28.4693 34.4521 28.7023 34.3346 28.9501 34.3346C29.1979 34.3346 29.4309 34.4521 29.5783 34.6512C30.3697 35.7206 31.5792 36.3341 32.8966 36.3341C34.1972 36.3341 35.4389 35.7049 36.2183 34.6513C36.3655 34.4521 36.5986 34.3346 36.8465 34.3346C37.0943 34.3346 37.3274 34.4521 37.4747 34.6513C38.2541 35.705 39.4958 36.3341 40.7964 36.3341C42.0978 36.3341 43.3379 35.7054 44.1137 34.6524C44.2607 34.4528 44.4939 34.3349 44.7427 34.3346C44.9906 34.3346 45.2236 34.4521 45.3709 34.6513C46.162 35.7206 47.3727 36.3341 48.6927 36.3341C49.124 36.3341 49.4737 36.6833 49.4737 37.1144C49.4737 37.5455 49.124 37.8947 48.6927 37.8947C47.2175 37.8947 45.798 37.3092 44.7436 36.2947C43.6916 37.3093 42.273 37.8947 40.7964 37.8947C39.3206 37.8947 37.9008 37.3089 36.8465 36.2939C35.7921 37.3089 34.3722 37.8947 32.8966 37.8947C31.3983 37.8947 30.0023 37.3214 28.948 36.2959C28.3527 36.8684 27.6411 37.3039 26.8689 37.5748C26.8303 37.5913 26.7897 37.604 26.7481 37.6142C26.1883 37.7967 25.5992 37.8947 25.0004 37.8947C24.4005 37.8947 23.8107 37.7966 23.2507 37.6138C23.2099 37.6037 23.1703 37.5913 23.1323 37.5752C22.3598 37.3044 21.6485 36.8687 21.0543 36.296C19.9977 37.3214 18.601 37.8947 17.1039 37.8947C15.6274 37.8947 14.2086 37.3092 13.1566 36.2946C12.5596 36.869 11.8453 37.3054 11.0699 37.5764C11.0337 37.5917 10.9957 37.6034 10.9568 37.6132C10.3956 37.7964 9.8046 37.8947 9.2038 37.8947C8.60393 37.8947 8.01365 37.7961 7.45304 37.6126C7.41285 37.6026 7.37358 37.5903 7.33609 37.5744C6.56418 37.3031 5.85267 36.8671 5.25739 36.2939ZM21.0383 34.1576C21.2848 34.1581 21.5163 34.2853 21.6625 34.5005C21.934 34.9001 22.2634 35.2417 22.6317 35.5186V30.7891H11.5791V35.5215C11.9503 35.2439 12.2825 34.9009 12.5563 34.4992C12.7028 34.2843 12.9348 34.1576 13.182 34.1576C13.4288 34.1578 13.6607 34.2851 13.807 34.5005C14.5788 35.6369 15.8126 36.3154 17.1073 36.3154C18.4171 36.3154 19.6219 35.653 20.4127 34.4978C20.5593 34.2838 20.7908 34.1576 21.0383 34.1576ZM22.6317 22.8945V26.0524H11.5791V22.8945H22.6317ZM8.4209 26.0524H9.99985V22.8945H8.4209V26.0524ZM8.4209 27.6309H22.6314V29.2098H8.4209V27.6309ZM32.8947 1.5791C28.1061 1.5791 24.2104 5.46471 24.2104 10.2408V36.2387C24.4663 36.2888 24.7277 36.3159 24.992 36.3159C25.2561 36.3159 25.5176 36.2887 25.7735 36.2387V10.2408C25.7735 6.32436 28.968 3.13813 32.8947 3.13813C36.8213 3.13813 40.0158 6.32436 40.0158 10.2408C40.0158 10.6707 40.3663 11.0203 40.7973 11.0203C41.2282 11.0203 41.5789 10.6707 41.5789 10.2408C41.5789 5.46471 37.6832 1.5791 32.8947 1.5791ZM22.6314 19.7363V21.3153H8.4209V19.7363H22.6314ZM9.99985 30.7891H8.4209V36.2316C8.67942 36.2858 8.94353 36.3154 9.21037 36.3154C9.47721 36.3154 9.74132 36.2861 9.99985 36.2322V30.7891Z" fill="#111827"/>
</svg>
