<svg width="46" height="45" viewBox="0 0 46 45" fill="none" xmlns="http://www.w3.org/2000/svg">
<path fill-rule="evenodd" clip-rule="evenodd" d="M44.7742 0H8.48387C8.08234 0 7.75806 0.325337 7.75806 0.725806V27.6561C7.52204 27.6083 7.27963 27.5806 7.03226 27.5806C5.03133 27.5806 3.40323 29.2087 3.40323 31.2097V31.2249C2.69337 31.759 2.20997 32.5312 2.03135 33.3871H1.22581C0.824274 33.3871 0.5 33.7124 0.5 34.1129V37.0161C0.5 37.4166 0.824274 37.7419 1.22581 37.7419H1.95161V39.9194C1.95161 42.7209 4.23145 45 7.03226 45H44.7742C45.1757 45 45.5 44.6747 45.5 44.2742V0.725806C45.5 0.325337 45.1757 0 44.7742 0ZM44.0477 1.45215V8.71021H9.20898V1.45215H44.0477ZM4.88872 31.4978C4.92664 31.7916 4.78205 32.0783 4.5244 32.2236C4.05837 32.4855 3.72594 32.9065 3.5498 33.3871H20.6902C20.3897 32.5443 19.5913 31.9355 18.6464 31.9355C18.0106 31.9355 17.4053 32.2236 16.9864 32.7251C16.805 32.9405 16.519 33.0344 16.2454 32.9618C15.9732 32.8906 15.7673 32.6684 15.7156 32.3926C15.5713 31.6218 14.7952 31.1016 14.0375 31.2366C13.7355 31.2908 13.4279 31.1473 13.277 30.8772C12.8885 30.1869 12.1649 29.758 11.3884 29.758C10.7437 29.758 10.272 30.044 9.98886 30.2843C9.82583 30.4229 9.61071 30.4831 9.39949 30.447C9.18933 30.4119 9.00469 30.2857 8.89589 30.1029C8.49613 29.432 7.8001 29.0322 7.03353 29.0322C5.83319 29.0322 4.85611 30.0093 4.85611 31.2096C4.85611 31.2683 4.8642 31.3243 4.87223 31.3798L4.87702 31.4134L4.88872 31.4978ZM14.291 25.4032C14.291 18.5994 19.826 13.0645 26.6297 13.0645C33.4335 13.0645 38.9684 18.5994 38.9684 25.4032C38.9684 32.2069 33.4335 37.7419 26.6297 37.7419C25.6055 37.7419 24.604 37.604 23.6287 37.3595C23.6857 37.2556 23.7265 37.1422 23.7265 37.0161V35.8969C24.6671 36.1566 25.6388 36.2903 26.6297 36.2903C32.6329 36.2903 37.5168 31.4063 37.5168 25.4032C37.5168 19.4 32.6329 14.5161 26.6297 14.5161C20.6266 14.5161 15.7426 19.4 15.7426 25.4032C15.7426 27.3166 16.2398 29.1623 17.1783 30.8017C17.0156 30.8751 16.8576 30.9583 16.7073 31.0558C16.3391 30.5012 15.7862 30.0911 15.1462 29.8923C14.5866 28.4623 14.291 26.9565 14.291 25.4032ZM17.4463 27.5804C17.6894 28.6095 18.1097 29.5887 18.6874 30.4878C20.4204 30.5084 21.8663 31.7456 22.2009 33.3868H23.0001C23.4016 33.3868 23.7259 33.7122 23.7259 34.1126V34.3731C24.6608 34.6758 25.6332 34.8384 26.6291 34.8384C31.081 34.8384 34.8139 31.735 35.8013 27.5804H35.3388C34.6775 27.5804 34.0555 27.3227 33.5866 26.8546L33.1613 26.43C32.7729 26.0416 32.0982 26.0416 31.7097 26.43L31.2845 26.8546C30.3474 27.7909 28.7172 27.7902 27.7802 26.8546L27.3549 26.43C26.9665 26.0416 26.2917 26.0416 25.9033 26.43L25.478 26.8546C24.541 27.7909 22.9107 27.7902 21.9737 26.8546L21.5484 26.43C21.16 26.0416 20.4853 26.0416 20.0968 26.43L19.6716 26.8546C19.2034 27.3227 18.5807 27.5804 17.9194 27.5804H17.4463ZM17.1934 25.4033C17.1934 20.2007 21.4263 15.9678 26.6288 15.9678C31.8314 15.9678 36.0643 20.2007 36.0643 25.4033C36.0643 25.6485 36.0463 25.8888 36.0275 26.1291H35.3385C35.0642 26.1291 34.8073 26.0224 34.6127 25.8285L34.1874 25.4033C33.2504 24.4676 31.6202 24.4669 30.6832 25.4033L30.2579 25.8278C29.8695 26.2162 29.1947 26.2162 28.8063 25.8278L28.381 25.4033C27.444 24.4676 25.8137 24.4669 24.8767 25.4033L24.4514 25.8278C24.063 26.2162 23.3882 26.2162 22.9998 25.8278L22.5745 25.4033C21.6375 24.4676 20.0073 24.4669 19.0702 25.4033L18.645 25.8278C18.4504 26.0224 18.1935 26.1291 17.9192 26.1291H17.221C17.2029 25.8888 17.1934 25.6464 17.1934 25.4033ZM22.2752 34.8389H1.95264V36.2905H22.2752V34.8389ZM16.4664 43.5486H7.03089C5.02996 43.5486 3.40186 41.9205 3.40186 39.9196V37.7422H20.8212V39.9196C20.8212 41.9205 19.1931 43.5486 17.1922 43.5486H16.4664ZM22.2735 39.9192C22.2735 41.3403 21.6856 42.625 20.7414 43.5482H44.0477V10.1611H9.20898V28.3237C9.37591 28.4516 9.53787 28.5866 9.68211 28.7433C10.207 28.458 10.7935 28.3063 11.3864 28.3063C12.0707 28.3063 12.7278 28.5065 13.2924 28.8609C13.0014 27.7378 12.838 26.5839 12.838 25.4031C12.838 17.7988 19.024 11.6127 26.6283 11.6127C34.2327 11.6127 40.4187 17.7988 40.4187 25.4031C40.4187 33.0074 34.2327 39.1934 26.6283 39.1934C25.1317 39.1934 23.673 38.946 22.2735 38.4793V39.9192Z" fill="#111827"/>
<path fill-rule="evenodd" clip-rule="evenodd" d="M15.0165 5.08074C15.0165 6.28108 14.0394 7.25816 12.839 7.25816C11.6387 7.25816 10.6616 6.28108 10.6616 5.08074C10.6616 3.88039 11.6387 2.90332 12.839 2.90332C14.0394 2.90332 15.0165 3.88039 15.0165 5.08074ZM13.5659 5.08128C13.5659 4.68151 13.2405 4.35547 12.8401 4.35547C12.4396 4.35547 12.1143 4.68151 12.1143 5.08128C12.1143 5.48104 12.4396 5.80708 12.8401 5.80708C13.2405 5.80708 13.5659 5.48104 13.5659 5.08128Z" fill="#111827"/>
<path fill-rule="evenodd" clip-rule="evenodd" d="M20.8226 5.08074C20.8226 6.28108 19.8455 7.25816 18.6452 7.25816C17.4448 7.25816 16.4678 6.28108 16.4678 5.08074C16.4678 3.88039 17.4448 2.90332 18.6452 2.90332C19.8455 2.90332 20.8226 3.88039 20.8226 5.08074ZM19.372 5.08128C19.372 4.68151 19.0467 4.35547 18.6462 4.35547C18.2457 4.35547 17.9204 4.68151 17.9204 5.08128C17.9204 5.48104 18.2457 5.80708 18.6462 5.80708C19.0467 5.80708 19.372 5.48104 19.372 5.08128Z" fill="#111827"/>
<path fill-rule="evenodd" clip-rule="evenodd" d="M26.6302 5.08074C26.6302 6.28109 25.6532 7.25816 24.4528 7.25816C23.2525 7.25816 22.2754 6.28109 22.2754 5.08074C22.2754 3.88039 23.2525 2.90332 24.4528 2.90332C25.6532 2.90332 26.6302 3.88039 26.6302 5.08074ZM25.1796 5.08127C25.1796 4.68151 24.8543 4.35547 24.4538 4.35547C24.0534 4.35547 23.728 4.68151 23.728 5.08127C23.728 5.48104 24.0534 5.80708 24.4538 5.80708C24.8543 5.80708 25.1796 5.48104 25.1796 5.08127Z" fill="#111827"/>
<path d="M41.145 5.80664H42.5966V7.25825H41.145V5.80664Z" fill="#111827"/>
<path d="M41.145 2.90332H42.5966V4.35493H41.145V2.90332Z" fill="#111827"/>
<path d="M38.2407 5.80664H39.6923V7.25825H38.2407V5.80664Z" fill="#111827"/>
<path d="M38.2407 2.90332H39.6923V4.35493H38.2407V2.90332Z" fill="#111827"/>
<path d="M35.3384 5.80664H36.79V7.25825H35.3384V5.80664Z" fill="#111827"/>
<path d="M35.3384 2.90332H36.79V4.35493H35.3384V2.90332Z" fill="#111827"/>
<path d="M32.4365 5.80664H33.8881V7.25825H32.4365V5.80664Z" fill="#111827"/>
<path d="M32.4365 2.90332H33.8881V4.35493H32.4365V2.90332Z" fill="#111827"/>
</svg>
