<svg width="46" height="30" viewBox="0 0 46 30" fill="none" xmlns="http://www.w3.org/2000/svg">
<path fill-rule="evenodd" clip-rule="evenodd" d="M42.4384 0H3.56156C1.87342 0 0.5 1.3531 0.5 3.01624V24.4651C0.5 25.8808 1.49535 27.0711 2.83261 27.3943V28.2952C2.83261 29.1136 3.50839 29.7794 4.33909 29.7794H5.89417C6.72487 29.7794 7.40065 29.1136 7.40065 28.2952V27.4813H38.5994V28.2952C38.5994 29.1136 39.2751 29.7794 40.1058 29.7794H41.6609C42.4916 29.7794 43.1674 29.1136 43.1674 28.2952V27.3943C44.5047 27.0712 45.5 25.8808 45.5 24.4651V3.01624C45.5 1.3531 44.1266 0 42.4384 0ZM5.94182 28.2954C5.94182 28.3217 5.92005 28.3432 5.89322 28.3432H4.33815C4.31132 28.3432 4.28955 28.3217 4.28955 28.2954V27.4814H5.94182V28.2954ZM1.95801 24.4653C1.95801 25.3366 2.67742 26.0452 3.56168 26.0452H34.7142L34.7136 26.0368L34.7136 26.0366C34.7127 26.0236 34.7118 26.0106 34.7118 25.9974V1.43652H3.56168C2.67742 1.43652 1.95801 2.1452 1.95801 3.01646V24.4653ZM41.7084 28.2954C41.7084 28.3217 41.6866 28.3432 41.6598 28.3432H40.1047C40.0779 28.3432 40.0562 28.3217 40.0562 28.2954V27.4814H41.7084V28.2954ZM42.4393 26.0452C43.3236 26.0452 44.043 25.3366 44.043 24.4653V3.01646C44.043 2.1452 43.3236 1.43652 42.4393 1.43652H36.1704V25.9974C36.1704 26.0107 36.1695 26.0237 36.1686 26.0368C36.1684 26.0396 36.1682 26.0424 36.168 26.0452H42.4393Z" fill="#111827"/>
<path fill-rule="evenodd" clip-rule="evenodd" d="M4.3388 3.06445H32.3302C32.7327 3.06445 33.0591 3.3859 33.0591 3.78261V23.6994C33.0591 24.0961 32.7327 24.4175 32.3302 24.4175H4.3388C3.93623 24.4175 3.60986 24.0961 3.60986 23.6994V3.78261C3.60986 3.3859 3.93623 3.06445 4.3388 3.06445ZM5.06787 22.9814H31.6013V4.50098H5.06787V22.9814Z" fill="#111827"/>
<path fill-rule="evenodd" clip-rule="evenodd" d="M39.3287 4.5957H40.8838C41.7145 4.5957 42.3903 5.26148 42.3903 6.07989V7.61195C42.3903 8.43035 41.7145 9.09613 40.8838 9.09613H39.3287C38.498 9.09613 37.8223 8.43035 37.8223 7.61195V6.07989C37.8223 5.26148 38.498 4.5957 39.3287 4.5957ZM40.8839 7.66004C40.9108 7.66004 40.9325 7.6385 40.9325 7.61216V6.0801C40.9325 6.05377 40.9108 6.03223 40.8839 6.03223H39.3289C39.302 6.03223 39.2803 6.05377 39.2803 6.0801V7.61216C39.2803 7.6385 39.302 7.66004 39.3289 7.66004H40.8839Z" fill="#111827"/>
<path d="M41.6614 10.7246H38.5512C38.1486 10.7246 37.8223 11.0461 37.8223 11.4428C37.8223 11.8395 38.1486 12.1609 38.5512 12.1609H41.6614C42.0639 12.1609 42.3903 11.8395 42.3903 11.4428C42.3903 11.0461 42.0639 10.7246 41.6614 10.7246Z" fill="#111827"/>
<path d="M41.6614 16.8525H38.5512C38.1486 16.8525 37.8223 17.174 37.8223 17.5707C37.8223 17.9674 38.1486 18.2888 38.5512 18.2888H41.6614C42.0639 18.2888 42.3903 17.9674 42.3903 17.5707C42.3903 17.174 42.0639 16.8525 41.6614 16.8525Z" fill="#111827"/>
<path d="M41.6614 13.7881H38.5512C38.1486 13.7881 37.8223 14.1095 37.8223 14.5062C37.8223 14.9029 38.1486 15.2244 38.5512 15.2244H41.6614C42.0639 15.2244 42.3903 14.9029 42.3903 14.5062C42.3903 14.1095 42.0639 13.7881 41.6614 13.7881Z" fill="#111827"/>
<path d="M16.8296 15.7864C16.8296 17.0465 17.3417 17.7187 17.7531 18.2587C18.1197 18.7399 18.3847 19.0877 18.3847 19.8687C18.3847 20.2654 18.711 20.5868 19.1136 20.5868C19.5162 20.5868 19.8425 20.2654 19.8425 19.8687C19.8425 18.6086 19.3304 17.9364 18.9191 17.3965C18.5524 16.9152 18.2875 16.5675 18.2875 15.7864C18.2875 15.0043 18.5525 14.6561 18.9192 14.1744C19.3305 13.6339 19.8425 12.9614 19.8425 11.7005C19.8425 10.4391 19.3306 9.76626 18.9194 9.22545C18.5525 8.74323 18.2875 8.39469 18.2875 7.61171C18.2875 7.215 17.9611 6.89355 17.5585 6.89355C17.156 6.89355 16.8296 7.215 16.8296 7.61171C16.8296 8.87317 17.3415 9.54603 17.7528 10.0868C18.1196 10.5691 18.3847 10.9176 18.3847 11.7005C18.3847 12.4826 18.1196 12.8308 17.7529 13.3126C17.3416 13.8531 16.8296 14.5256 16.8296 15.7864Z" fill="#111827"/>
<path d="M20.7641 16.5041C21.0045 16.5041 21.2178 16.3894 21.3507 16.2125C21.8727 15.5268 22.9525 14.1037 22.9525 11.7009C22.9525 10.7248 22.7738 9.80432 22.4215 8.96542C22.2676 8.59887 21.8411 8.4246 21.4692 8.57618C21.0972 8.72786 20.9205 9.14793 21.0743 9.51438C21.3532 10.1784 21.4946 10.914 21.4946 11.7008C21.4946 13.6198 20.6806 14.6986 20.1885 15.3451C20.0924 15.4668 20.0352 15.6197 20.0352 15.786C20.0352 16.1827 20.3615 16.5041 20.7641 16.5041Z" fill="#111827"/>
<path d="M14.9151 18.9471C15.0073 18.9471 15.1011 18.9297 15.1916 18.8932C15.564 18.7426 15.742 18.323 15.5891 17.9561C15.3144 17.2969 15.1752 16.5668 15.1752 15.7862C15.1752 13.858 15.9972 12.7781 16.4884 12.1329C16.5018 12.1153 16.5144 12.0971 16.526 12.0784C16.6703 11.8477 16.6695 11.5512 16.5253 11.3204C16.3144 10.9826 15.8653 10.8773 15.5224 11.0851C15.419 11.1478 15.337 11.2319 15.2788 11.328C14.7435 12.0329 13.7173 13.4442 13.7173 15.7862C13.7173 16.7549 13.8933 17.6684 14.2405 18.5016C14.3561 18.7792 14.6282 18.9471 14.9151 18.9471Z" fill="#111827"/>
</svg>
