<svg width="46" height="45" viewBox="0 0 46 45" fill="none" xmlns="http://www.w3.org/2000/svg">
<path fill-rule="evenodd" clip-rule="evenodd" d="M2 0H44C44.8284 0 45.5 0.671573 45.5 1.5V3C45.5 3.82843 44.8284 4.5 44 4.5H42.5V9.75H44C44.8284 9.75 45.5 10.4216 45.5 11.25V12.75C45.5 13.5784 44.8284 14.25 44 14.25V34.275L45.248 36.1425C45.4124 36.389 45.5001 36.6787 45.5 36.975V43.5C45.5 44.3284 44.8284 45 44 45H2C1.17157 45 0.5 44.3284 0.5 43.5V36.975C0.501408 36.6813 0.589032 36.3944 0.752 36.15L2 34.275V14.25C1.17157 14.25 0.5 13.5784 0.5 12.75V11.25C0.5 10.4216 1.17157 9.75 2 9.75H3.5V4.5H2C1.17157 4.5 0.5 3.82843 0.5 3V1.5C0.5 0.671573 1.17157 0 2 0ZM36.501 18.75V14.25H9.50098V18.75H36.501ZM35.253 36.1447C35.089 36.3906 35.0014 36.6795 35.001 36.975V40.5H32.334C32.6039 40.046 32.7479 39.5282 32.751 39C32.751 37.3431 31.4078 36 29.751 36H28.014C28.57 35.5783 29.0258 35.039 29.349 34.4205C30.0772 32.9715 29.8095 31.2172 28.614 29.6063C28.3924 29.3204 28.1506 29.051 27.8902 28.8C27.5739 28.5249 27.3103 28.1945 27.1125 27.825C26.8474 27.0881 26.7911 26.2924 26.9497 25.5255C27.03 24.6042 27.4783 23.7541 28.1932 23.1675C28.4347 22.9902 28.5476 22.6862 28.4802 22.3943C28.4128 22.1024 28.1782 21.8786 27.8835 21.825C26.3064 21.5627 24.6903 21.9496 23.403 22.8975C22.5412 23.6409 21.962 24.6585 21.7627 25.779C20.7096 25.2363 19.5595 24.9073 18.3787 24.8107C18.0702 24.773 17.7703 24.9296 17.6249 25.2043C17.4794 25.479 17.5186 25.815 17.7232 26.049C17.763 26.0963 18.69 27.2272 17.628 29.1877C17.5186 29.3906 17.3994 29.5899 17.2799 29.7898L17.2799 29.7899L17.2672 29.811C16.8341 30.4525 16.5156 31.1643 16.326 31.9147C16.1163 33.0001 16.3712 34.1237 17.0287 35.0122C17.3012 35.3848 17.6246 35.7173 17.9895 36H16.251C14.5941 36 13.251 37.3431 13.251 39C13.2541 39.5282 13.398 40.046 13.668 40.5H11.001V36.975C11.001 36.6787 10.9134 36.389 10.749 36.1425L9.50098 34.275V20.25H36.501V34.275L35.253 36.1447ZM16.25 37.5C15.4216 37.5 14.75 38.1716 14.75 39C14.75 39.8284 15.4216 40.5 16.25 40.5H29.75C30.5784 40.5 31.25 39.8284 31.25 39C31.25 38.1716 30.5784 37.5 29.75 37.5H16.25ZM19.5442 26.5346C21.2737 26.9479 21.5639 27.5471 21.5925 27.6199C21.6119 28.0341 21.9635 28.3541 22.3777 28.3346C22.7919 28.3152 23.1119 27.9636 23.0925 27.5494C23.0925 25.9346 23.5177 24.7594 24.3562 24.0566C24.8659 23.6494 25.4776 23.39 26.1247 23.3066C25.7923 23.9217 25.5704 24.5904 25.4692 25.2821C25.2685 26.3185 25.3556 27.3901 25.7212 28.3804C25.9863 28.9407 26.3612 29.4422 26.8237 29.8549C27.0331 30.0563 27.2286 30.2718 27.4087 30.4999C27.8085 31.0384 28.668 32.4341 28.0087 33.7466C27.5264 34.5985 26.7398 35.2364 25.8067 35.5324C25.9315 35.2023 25.9965 34.8526 25.9987 34.4996C25.9987 32.9689 23.8845 31.2394 23.4607 30.9086C23.1893 30.6964 22.8081 30.6964 22.5367 30.9086C22.113 31.2394 19.9987 32.9689 19.9987 34.4996C20.0016 34.8527 20.0674 35.2024 20.193 35.5324C19.4196 35.2692 18.7412 34.7833 18.243 34.1359C17.8294 33.5843 17.6662 32.8845 17.7929 32.2069C17.9555 31.6264 18.2119 31.0764 18.552 30.5786C18.6862 30.3536 18.8204 30.1286 18.9435 29.9036C19.5528 28.8933 19.7668 27.6933 19.5442 26.5346ZM23 32.4795C22.2118 33.1882 21.5 34.0627 21.5 34.5C21.5 35.3243 22.1652 35.9942 22.9895 36H23.0045C23.8312 35.9975 24.5 35.3267 24.5 34.5C24.5 34.0627 23.7882 33.1882 23 32.4795ZM8.00003 33.75H3.50003V14.25H8.00003V33.75ZM3.5 39H2V43.5H9.5V39H6.5C6.08579 39 5.75 38.6642 5.75 38.25C5.75 37.8358 6.08579 37.5 6.5 37.5H9.5V36.975L8.34875 35.25H3.15125L2 36.975V37.5H3.5C3.91421 37.5 4.25 37.8358 4.25 38.25C4.25 38.6642 3.91421 39 3.5 39ZM11.0015 42H35.0015V43.5H11.0015V42ZM36.499 39V43.5H43.999V39H40.999C40.5848 39 40.249 38.6642 40.249 38.25C40.249 37.8358 40.5848 37.5 40.999 37.5H43.999V36.975L42.8478 35.25H37.6503L36.499 36.975V37.5H37.999C38.4132 37.5 38.749 37.8358 38.749 38.25C38.749 38.6642 38.4132 39 37.999 39H36.499ZM42.499 33.75H37.999V14.25H42.499V33.75ZM2 12.75H44V11.25H2V12.75ZM41 9.75H5V4.5H41V9.75ZM2 3H41.75H44V1.5H2V3Z" fill="#111827"/>
<path d="M12.5 18C12.9142 18 13.25 17.6642 13.25 17.25V15.75C13.25 15.3358 12.9142 15 12.5 15C12.0858 15 11.75 15.3358 11.75 15.75V17.25C11.75 17.6642 12.0858 18 12.5 18Z" fill="#111827"/>
<path d="M15.5 18C15.9142 18 16.25 17.6642 16.25 17.25V15.75C16.25 15.3358 15.9142 15 15.5 15C15.0858 15 14.75 15.3358 14.75 15.75V17.25C14.75 17.6642 15.0858 18 15.5 18Z" fill="#111827"/>
<path d="M18.501 18C18.9152 18 19.251 17.6642 19.251 17.25V15.75C19.251 15.3358 18.9152 15 18.501 15C18.0868 15 17.751 15.3358 17.751 15.75V17.25C17.751 17.6642 18.0868 18 18.501 18Z" fill="#111827"/>
<path d="M21.501 18C21.9152 18 22.251 17.6642 22.251 17.25V15.75C22.251 15.3358 21.9152 15 21.501 15C21.0868 15 20.751 15.3358 20.751 15.75V17.25C20.751 17.6642 21.0868 18 21.501 18Z" fill="#111827"/>
<path d="M24.4985 18C24.9127 18 25.2485 17.6642 25.2485 17.25V15.75C25.2485 15.3358 24.9127 15 24.4985 15C24.0843 15 23.7485 15.3358 23.7485 15.75V17.25C23.7485 17.6642 24.0843 18 24.4985 18Z" fill="#111827"/>
<path d="M27.499 18C27.9132 18 28.249 17.6642 28.249 17.25V15.75C28.249 15.3358 27.9132 15 27.499 15C27.0848 15 26.749 15.3358 26.749 15.75V17.25C26.749 17.6642 27.0848 18 27.499 18Z" fill="#111827"/>
<path d="M30.5 18C30.9142 18 31.25 17.6642 31.25 17.25V15.75C31.25 15.3358 30.9142 15 30.5 15C30.0858 15 29.75 15.3358 29.75 15.75V17.25C29.75 17.6642 30.0858 18 30.5 18Z" fill="#111827"/>
<path d="M33.5 18C33.9142 18 34.25 17.6642 34.25 17.25V15.75C34.25 15.3358 33.9142 15 33.5 15C33.0858 15 32.75 15.3358 32.75 15.75V17.25C32.75 17.6642 33.0858 18 33.5 18Z" fill="#111827"/>
</svg>
