<svg width="41" height="54" viewBox="0 0 41 54" fill="none" xmlns="http://www.w3.org/2000/svg">
<path d="M39.8821 40.3008C39.7499 39.7499 39.1959 39.4138 38.646 39.542C38.095 39.6742 37.7545 40.2277 37.8867 40.7786C38.7782 44.5029 38.4937 47.2546 37.0392 48.9565C35.138 51.1808 31.7332 50.9399 31.616 50.9354H16.2018C16.6275 49.7133 17.7915 48.8338 19.1568 48.8338H24.3477C24.9146 48.8338 25.3734 48.3745 25.3734 47.8081C25.3734 47.2416 24.9146 46.7823 24.3477 46.7823C20.9058 46.7823 18.106 43.9821 18.106 40.5397C18.106 37.0978 20.9058 34.2976 24.3477 34.2976C24.9146 34.2976 25.3734 33.8383 25.3734 33.2718C25.3734 32.7054 24.9146 32.2461 24.3477 32.2461C19.7749 32.2461 16.0546 35.9664 16.0546 40.5397C16.0546 43.0416 17.1728 45.2833 18.9301 46.8052C16.1814 46.9269 13.978 49.1829 13.978 51.9611C13.978 52.5276 14.4368 52.9869 15.0038 52.9869L31.5299 52.9834C31.5639 52.9864 31.7493 53.0004 32.0438 53.0004C33.2889 53.0004 36.4863 52.7455 38.5849 50.3048C40.5011 48.076 40.9379 44.7103 39.8821 40.3008Z" fill="#0078FF" stroke="#0078FF" stroke-width="0.75"/>
<path d="M10.4174 12.7165C9.95561 12.3779 9.37061 12.143 8.69246 11.8705C7.15585 11.2535 5.05127 10.4081 3.41047 7.80563C3.04485 7.22464 2.93967 6.42328 3.16205 5.90089C3.28726 5.60589 3.50564 5.4356 3.84822 5.36448C4.21484 5.28835 4.72471 5.40454 5.26062 5.52775C5.72742 5.63544 6.21024 5.74663 6.72111 5.76516C7.86305 5.79771 9.10015 5.58836 10.192 5.15161C10.5697 5.00086 10.9593 4.83708 11.36 4.66879C14.2589 3.45022 17.5415 2.07187 19.9386 4.0252C22.1223 5.80573 22.5991 10.7076 21.362 13.0681C21.0004 13.7572 20.0588 14.1364 19.0701 13.9886C18.5773 13.915 17.4003 13.5875 17.1298 12.144C16.9094 10.966 17.4664 8.3771 18.8427 7.00126C19.2434 6.60058 19.2434 5.95147 18.8427 5.55079C18.442 5.15011 17.7929 5.15011 17.3923 5.55079C15.5862 7.35686 14.7558 10.6134 15.1144 12.5216C15.465 14.3933 16.8644 15.7326 18.7666 16.0176C19.709 16.1593 20.6247 16.0244 21.4009 15.6684C21.8724 18.8656 23.4586 21.4583 25.2156 24.0187C30.3072 31.4353 33.9534 37.7195 30.8191 45.4061C30.6047 45.9305 30.8572 46.529 31.381 46.7429C31.5083 46.7949 31.6395 46.8195 31.7687 46.8195C32.1734 46.8195 32.556 46.5781 32.7183 46.1804C36.5188 36.859 31.1897 29.0958 26.9064 22.8577C25.0017 20.0808 23.3021 17.2886 23.3042 13.7457C24.7921 10.5331 24.1765 4.83376 21.2348 2.43549C17.8841 -0.296654 13.6539 1.47937 10.5656 2.77758C10.176 2.94085 9.79634 3.10063 9.43071 3.24687C8.5973 3.57994 7.6597 3.74172 6.79523 3.71467C6.4797 3.70365 6.11107 3.61851 5.72141 3.52885C5.02723 3.36908 4.23989 3.18777 3.43151 3.35606C2.42981 3.56341 1.6635 4.18247 1.27484 5.09802C0.794024 6.22845 0.954297 7.75604 1.67552 8.89949C3.66992 12.0639 6.23228 13.0931 7.92816 13.7743C8.47709 13.9947 8.9509 14.1855 9.20533 14.3713C9.35158 14.4785 12.7614 17.0764 9.91253 23.5118C7.91614 28.0195 8.73453 33.3726 9.45576 38.0951C9.58999 38.9731 9.72221 39.8356 9.8334 40.6735C10.3172 44.3318 9.64808 46.0216 9.00199 46.7954C8.46708 47.436 7.69677 47.7716 6.69707 47.8202H5.6583C3.37541 47.8202 1.51725 49.6778 1.51725 51.9607C1.51725 52.5272 1.97603 52.9865 2.543 52.9865H10.8501C11.4171 52.9865 11.8759 52.5272 11.8759 51.9607C11.8759 51.3943 11.4171 50.935 10.8501 50.935H3.8382C4.19781 50.3009 4.87897 49.8717 5.6583 49.8717L6.74615 49.8707C8.37692 49.793 9.66511 49.2005 10.5767 48.1107C11.8989 46.5265 12.3337 43.9341 11.8669 40.4046C11.7537 39.5526 11.6204 38.6766 11.4842 37.7851C10.771 33.1232 10.0347 28.302 11.7877 24.3423C14.5905 18.0125 12.2455 14.0563 10.4174 12.7165Z" fill="#0078FF" stroke="#0078FF" stroke-width="0.75"/>
<path d="M13.9665 7.31378C14.54 7.31378 15.0048 6.84892 15.0048 6.27548C15.0048 5.70204 14.54 5.23718 13.9665 5.23718C13.3931 5.23718 12.9282 5.70204 12.9282 6.27548C12.9282 6.84892 13.3931 7.31378 13.9665 7.31378Z" fill="#0078FF" stroke="#0078FF" stroke-width="0.75"/>
</svg>
