<svg width="54" height="55" viewBox="0 0 54 55" fill="none" xmlns="http://www.w3.org/2000/svg">
<path d="M51.9062 52.1166H43.0045V43.3149H48.6469C49.323 43.3149 49.911 42.7269 49.911 42.0509V25.7547C49.911 25.0786 49.323 24.4907 48.6469 24.4907H44.6117C43.9357 24.4907 43.3477 25.0786 43.3477 25.7547V36.7516H34.834C34.1579 36.7516 33.57 37.3396 33.57 38.0156V42.0509C33.57 42.7269 34.1579 43.3149 34.834 43.3149H40.4764V52.1166H28.3379V33.2268H37.162C37.838 33.2268 38.426 32.6388 38.426 31.9628C38.426 31.2867 37.838 30.6987 37.162 30.6987H28.3379V16.6978H49.3453C50.0214 16.6978 50.6094 16.1098 50.6094 15.4338V15.4324V15.431V15.4297V15.4283V15.4269V15.4256V15.4242V15.4229V15.4215V15.4201V15.4188V15.4174V15.416V15.4147V15.4133V15.4119V15.4106V15.4092V15.4079V15.4065V15.4051V15.4038V15.4024V15.401V15.3997V15.3983V15.3969V15.3956V15.3942V15.3929V15.3915V15.3901V15.3888V15.3874V15.386V15.3847V15.3833V15.382V15.3806V15.3792V15.3779V15.3765V15.3752V15.3738V15.3724V15.3711V15.3697V15.3684V15.367V15.3656V15.3643V15.3629V15.3616V15.3602V15.3588V15.3575V15.3561V15.3548V15.3534V15.352V15.3507V15.3493V15.348V15.3466V15.3453V15.3439V15.3425V15.3412V15.3398V15.3385V15.3371V15.3358V15.3344V15.3331V15.3317V15.3303V15.329V15.3276V15.3263V15.3249V15.3236V15.3222V15.3209V15.3195V15.3182V15.3168V15.3155V15.3141V15.3128V15.3114V15.3101V15.3087V15.3074V15.306V15.3047V15.3033V15.302V15.3006V15.2993V15.2979V15.2966V15.2952V15.2939V15.2926V15.2912V15.2899V15.2885V15.2872V15.2858V15.2845V15.2831V15.2818V15.2805V15.2791V15.2778V15.2764V15.2751V15.2738V15.2724V15.2711V15.2697V15.2684V15.2671V15.2657V15.2644V15.263V15.2617V15.2604V15.259V15.2577V15.2564V15.255V15.2537V15.2524V15.251V15.2497V15.2484V15.247V15.2457V15.2444V15.243V15.2417V15.2404V15.2391V15.2377V15.2364V15.2351V15.2338V15.2324V15.2311V15.2298V15.2285V15.2271V15.2258V15.2245V15.2232V15.2218V15.2205V15.2192V15.2179V15.2166V15.2152V15.2139V15.2126V15.2113V15.21V15.2087V15.2073V15.206V15.2047V15.2034V15.2021V15.2008V15.1995V15.1981V15.1968V15.1955V15.1942V15.1929V15.1916V15.1903V15.189V15.1877V15.1864V15.1851V15.1838V15.1825V15.1812V15.1799V15.1786V15.1773V15.176V15.1747V15.1734V15.1721V15.1708V15.1695V15.1682V15.1669V15.1656V15.1643V15.163V15.1617V15.1604V15.1591V15.1578V15.1565V15.1552V15.1539V15.1527V15.1514V15.1501V15.1488V15.1475V15.1462V15.1449V15.1437V15.1424V15.1411V15.1398V15.1385V15.1373V15.136V15.1347V15.1334V15.1322V15.1309V15.1296V15.1283V15.1271V15.1258V15.1245V15.1232V15.122V15.1207V15.1194V15.1182V15.1169V15.1156V15.1144V15.1131V15.1119V15.1106V15.1093V15.1081V15.1068V15.1055V15.1043V15.103V15.1018V15.1005V15.0993V15.098V15.0968V15.0955V15.0943V15.093V15.0918V15.0905V15.0893V15.088V15.0868V15.0855V15.0843V15.083V15.0818V15.0806V15.0793V15.0781V15.0768V15.0756V15.0744V15.0731V15.0719V15.0707V15.0694V15.0682V15.067V15.0657V15.0645V15.0633V15.0621V15.0608V15.0596V15.0584V15.0572V15.0559V15.0547V15.0535V15.0523V15.0511V15.0498V15.0486V15.0474V15.0462V15.045V15.0438V15.0426V15.0414V15.0402V15.0389V15.0377V15.0365V15.0353V15.0341V15.0329V15.0317V15.0305V15.0293V15.0281V15.0269V15.0257V15.0245V15.0233V15.0222V15.021V15.0198V15.0186V15.0174V15.0162V15.015V15.0138V15.0127V15.0115V15.0103V15.0091V15.0079V15.0067V15.0056V15.0044V15.0032V15.002V15.0009V14.9997V14.9985V14.9974V14.9962V14.995V14.9939V14.9927V14.9915V14.9904V14.9892V14.9881V14.9869V14.9857V14.9846V14.9834V14.9823V14.9811V14.98V14.9788V14.9777V14.9765V14.9754V14.9742V14.9731V14.972V14.9708V14.9697V14.9685V14.9674V14.9663V14.9651V14.964V14.9629V14.9617V14.9606V14.9595V14.9583V14.9572V14.9561V14.955V14.9538V14.9527V14.9516V14.9505V14.9494V14.9483V14.9471V14.946V14.9449V14.9438V14.9427V14.9416V14.9405V14.9394V14.9383V14.9372V14.9361V14.935V14.9339V14.9328V14.9317V14.9306V14.9295V14.9284V14.9273V14.9262V14.9251V14.9241V14.923V14.9219V14.9208V14.9197V14.9186V14.9176V14.9165V14.9154V14.9143V14.9133V14.9122V14.9111V14.9101V14.909V14.9079V14.9069V14.9058V14.9047V14.9037V14.9026V14.9016V14.9005V14.8995V14.8984V14.8974V14.8963V14.8953V14.8942V14.8932V14.8921V14.8911V14.8901V14.889V14.888V14.8869V14.8859V14.8849V14.8839V14.8828V14.8818V14.8808V14.8797V14.8787V14.8777V14.8767V14.8757V14.8746V14.8736V14.8726V14.8716V14.8706V14.8696V14.8686V14.8676V14.8666V14.8656V14.8646V14.8636V14.8626V14.8616V14.8606V14.8596V14.8586V14.8576V14.8566V14.8556V14.8546V14.8537V14.8527V14.8517V14.8507V14.8497V14.8488V14.8478V14.8468V14.8458V14.8449V14.8439V14.8429V14.842V14.841V14.8401V14.8391V14.8381V14.8372V14.8362V14.8353V14.8343V14.8334V14.8324V14.8315V14.8306V14.8296V14.8287V14.8277V14.8268V14.8259V14.8249V14.824V14.8231V14.8221V14.8212V14.8203V14.8194V14.8184V14.8175V14.8166V14.8157V14.8148V14.8139V14.813H50.6096L50.6091 14.8057C50.295 10.4873 46.9219 6.50492 41.3176 3.85841L41.3168 3.85804C37.2676 1.9892 32.3644 0.9 27.2291 0.9H27.2286H27.2282H27.2277H27.2273H27.2268H27.2264H27.2259H27.2255H27.225H27.2246H27.2241H27.2236H27.2232H27.2227H27.2223H27.2218H27.2214H27.2209H27.2205H27.22H27.2196H27.2191H27.2186H27.2182H27.2177H27.2173H27.2168H27.2164H27.2159H27.2155H27.215H27.2146H27.2141H27.2137H27.2132H27.2128H27.2123H27.2119H27.2114H27.2109H27.2105H27.21H27.2096H27.2091H27.2087H27.2082H27.2078H27.2073H27.2069H27.2064H27.206H27.2055H27.2051H27.2046H27.2042H27.2037H27.2033H27.2028H27.2024H27.2019H27.2015H27.201H27.2006H27.2001H27.1997H27.1993H27.1988H27.1984H27.1979H27.1975H27.197H27.1966H27.1961H27.1957H27.1952H27.1948H27.1944H27.1939H27.1935H27.193H27.1926H27.1921H27.1917H27.1912H27.1908H27.1904H27.1899H27.1895H27.189H27.1886H27.1882H27.1877H27.1873H27.1868H27.1864H27.186H27.1855H27.1851H27.1846H27.1842H27.1838H27.1833H27.1829H27.1825H27.182H27.1816H27.1812H27.1807H27.1803H27.1799H27.1794H27.179H27.1786H27.1781H27.1777H27.1773H27.1768H27.1764H27.176H27.1755H27.1751H27.1747H27.1742H27.1738H27.1734H27.173H27.1725H27.1721H27.1717H27.1713H27.1708H27.1704H27.17H27.1696H27.1691H27.1687H27.1683H27.1679H27.1674H27.167H27.1666H27.1662H27.1658H27.1653H27.1649H27.1645H27.1641H27.1637H27.1633H27.1628H27.1624H27.162H27.1616H27.1612H27.1608H27.1604H27.1599H27.1595H27.1591H27.1587H27.1583H27.1579H27.1575H27.1571H27.1567H27.1563H27.1559H27.1555H27.155H27.1546H27.1542H27.1538H27.1534H27.153H27.1526H27.1522H27.1518H27.1514H27.151H27.1506H27.1502H27.1498H27.1494H27.149H27.1486H27.1482H27.1479H27.1475H27.1471H27.1467H27.1463H27.1459H27.1455H27.1451H27.1447H27.1443H27.1439H27.1436H27.1432H27.1428H27.1424H27.142H27.1416H27.1412H27.1409H27.1405H27.1401H27.1397H27.1393H27.139H27.1386H27.1382H27.1378H27.1375H27.1371H27.1367H27.1363H27.136H27.1356H27.1352H27.1349H27.1345H27.1341H27.1337H27.1334H27.133H27.1326H27.1323H27.1319H27.1316H27.1312H27.1308H27.1305H27.1301H27.1297H27.1294H27.129H27.1287H27.1283H27.128H27.1276H27.1273H27.1269H27.1266H27.1262H27.1259H27.1255H27.1252H27.1248H27.1245H27.1241H27.1238H27.1234H27.1231H27.1227H27.1224H27.1221H27.1217H27.1214H27.121H27.1207H27.1204H27.12H27.1197H27.1194H27.119H27.1187H27.1184H27.118H27.1177H27.1174H27.1171H27.1167H27.1164H27.1161H27.1158H27.1154H27.1151H27.1148H27.1145H27.1142H27.1138H27.1135H27.1132H27.1129H27.1126H27.1123H27.112H27.1116H27.1113H27.111H27.1107H27.1104H27.1101H27.1098H27.1095H27.1092H27.1089H27.1086H27.1083H27.108H27.1077H27.1074H27.1071H27.1068H27.1065H27.1062H27.1059H27.1057H27.1054H27.1051H27.1048H27.1045H27.1042H27.1039H27.1037H27.1034H27.1031H27.1028H27.1025H27.1023H27.102H27.1017H27.1014H27.1012H27.1009H27.1006H27.1004H27.1001H27.0998H27.0996H27.0993H27.099H27.0988H27.0985H27.0983H27.098H27.0977H27.0975H27.0972H27.097H27.0967H27.0965H27.0962H27.096H27.0957H27.0955H27.0952H27.095H27.0947H27.0945H27.0943H27.094H27.0938H27.0935H27.0933H27.0931H27.0928H27.0926H27.0924H27.0922H27.0919H27.0917H27.0915H27.0912H27.091H27.0908H27.0906H27.0904H27.0901H27.0899H27.0897H27.0895H27.0893H27.0891H27.0889H27.0887H27.0884H27.0882H27.088H27.0878H27.0876H27.0874H27.0872H27.087H27.0868H27.0866H27.0864H27.0863H27.0861H27.0859H27.0857H27.0855H27.0853H27.0851H27.0849H27.0848H27.0846H27.0844H27.0842H27.084H27.0839H27.0837H27.0835H27.0834H27.0832H27.083H27.0828H27.0827H27.0825H27.0824H27.0822H27.082H27.0819H27.0817H27.0816H27.0814H27.0813H27.0811H27.081H27.0808H27.0807H27.0805H27.0804H27.0802H27.0801H27.08H27.0798H27.0797H27.0795H27.0794H27.0793H27.0792H27.079H27.0789H27.0788H27.0786H27.0785H27.0784H27.0783H27.0782H27.078H27.0779H27.0778H27.0777H27.0776H27.0775H27.0774H27.0773H27.0772H27.0771H27.077H27.0769H27.0768H27.0767H27.0766H27.0765H27.0764H27.0763H27.0762H27.0761H27.076H27.076H27.0759H27.0758H27.0757H27.0756H27.0756H27.0755H27.0754H27.0753H27.0753H27.0752H27.0751H27.0751H27.075H27.075H27.0749H27.0748H27.0748H27.0747H27.0747H27.0746H27.0746H27.0745H27.0745H27.0744H27.0744H27.0744H27.0743H27.0743H27.0742H27.0742H27.0742H27.0741H27.0741H27.0741H27.0741H27.074H27.074H27.074H27.074H27.074H27.0739H27.0739H27.0739H26.8411C21.708 0.9 16.8825 1.8332 12.7547 3.70224C6.68416 6.34858 2.99522 10.7213 2.99522 15.4338C2.99522 16.1098 3.5832 16.6978 4.25924 16.6978H25.7323V30.6987H16.9082C16.2321 30.6987 15.6442 31.2867 15.6442 31.9628C15.6442 32.6388 16.2321 33.2268 16.9082 33.2268H25.7323V52.1166H13.5161V43.3149H19.1586C19.8346 43.3149 20.4226 42.7269 20.4226 42.0509V38.0156C20.4226 37.3396 19.8346 36.7516 19.1586 36.7516H10.7225V25.7547C10.7225 25.0786 10.1345 24.4907 9.4585 24.4907H5.42325C4.74721 24.4907 4.15924 25.0786 4.15924 25.7547V42.0509C4.15924 42.7269 4.74721 43.3149 5.42325 43.3149H11.0657V52.1166H2.16401C1.48798 52.1166 0.9 52.7046 0.9 53.3806C0.9 54.0566 1.48798 54.6446 2.16401 54.6446H51.8286C52.5025 54.6446 53.089 54.0602 53.0926 53.3868C53.1742 52.7013 52.5771 52.1166 51.9062 52.1166ZM33.5136 4.19475L33.5139 4.19452L33.5079 4.18853C33.4565 4.13712 33.4161 4.08805 33.375 4.03808C33.3701 4.03215 33.3652 4.02619 33.3603 4.02022C35.8608 4.42112 38.1486 5.17123 40.2237 6.13467C44.5786 8.19761 47.3235 11.0789 47.9066 14.1698H37.1784C36.929 10.3079 35.6085 6.67754 33.5136 4.19475ZM13.6893 5.98037L13.6898 5.98011C15.8536 5.01014 18.2353 4.32754 20.7661 3.8635C20.7457 3.89483 20.7253 3.92975 20.7051 3.96928C18.4584 6.45441 17.1399 10.1601 16.8916 14.1698H5.61998C6.20722 11.0007 9.17988 7.96755 13.6893 5.98037ZM31.4967 5.79612L31.4966 5.79615L31.4986 5.7985C33.2477 7.85172 34.3245 10.8148 34.5714 14.1698H19.4212C19.6696 10.8129 20.8217 7.69833 22.5703 5.64479C23.4957 4.64261 24.9455 3.42714 26.9206 3.35043H26.9963C29.0471 3.35043 30.5734 4.6421 31.4967 5.79612ZM6.68726 40.7869V27.0187H8.19448V38.0156C8.19448 38.6917 8.78246 39.2796 9.4585 39.2796H17.9722V40.7869H6.68726ZM36.098 40.7869V39.2796H44.6117C45.2877 39.2796 45.8757 38.6917 45.8757 38.0156V27.0187H47.3829V40.7869H36.098Z" fill="#111827" stroke="#111827" stroke-width="0.2"/>
</svg>
