<svg width="52" height="52" viewBox="0 0 52 52" fill="none" xmlns="http://www.w3.org/2000/svg">
<path d="M47.334 6.93344H33.4671V3.46672H38.6672C39.6252 3.46672 40.4006 2.69139 40.4006 1.73336C40.4006 0.775332 39.6252 0 38.6672 0H24.8003C23.8432 0 23.067 0.775332 23.067 1.73336C23.067 2.69139 23.8432 3.46672 24.8003 3.46672H30.0004V6.93344H16.1335C11.355 6.93344 7.46672 10.8217 7.46672 15.6002V27.7338H5.73336C4.7762 27.7338 4 28.5091 4 29.4671V34.6672C4 35.6252 4.7762 36.4006 5.73336 36.4006H23.067C24.0241 36.4006 24.8003 35.6252 24.8003 34.6672V29.4671C24.8003 28.5091 24.0241 27.7338 23.067 27.7338H21.3336V20.8003H47.334C48.292 20.8003 49.0674 20.025 49.0674 19.067V8.6668C49.0674 7.70877 48.292 6.93344 47.334 6.93344ZM21.3336 32.9338H7.46672V31.2005H9.20008H19.6002H21.3336V32.9338ZM45.6006 17.3336H21.3336C19.4217 17.3336 17.8669 18.8893 17.8669 20.8003V27.7338H10.9334V15.6002C10.9334 12.7327 13.266 10.4002 16.1335 10.4002H45.6006V17.3336Z" fill="#111827"/>
<path d="M12.9739 38.8812C11.8391 40.525 9.20007 44.5842 9.20007 46.7999C9.20007 49.6674 11.5327 52 14.4002 52C17.2676 52 19.6002 49.6674 19.6002 46.7999C19.6002 44.5842 16.9612 40.525 15.8264 38.8812C15.1796 37.9435 13.6207 37.9435 12.9739 38.8812ZM14.4002 48.5333C13.4446 48.5333 12.6668 47.7564 12.6668 46.8016C12.6812 46.2718 13.4023 44.7618 14.4002 43.0793C15.3989 44.7601 16.1191 46.27 16.1335 46.7999C16.1335 47.7564 15.3558 48.5333 14.4002 48.5333Z" fill="#111827"/>
</svg>
