<svg width="52" height="52" viewBox="0 0 52 52" fill="none" xmlns="http://www.w3.org/2000/svg">
<g clip-path="url(#clip0_748_1568)">
<path d="M30.6232 46C27.4891 46 24.7717 43.8333 23.9928 40.7222L23.9203 40.4444H19.2283L19.1558 40.7222C18.5399 43.2037 16.6377 45.1481 14.2101 45.7778C13.6486 45.9259 13.087 46 12.5072 46C9.37319 46 6.6558 43.8333 5.87681 40.7222L5.80435 40.4444H3.44928C2.65217 40.4444 2 39.7963 2 38.963V7.48148C2 7.18519 2.07246 6.90741 2.23551 6.66667C2.50725 6.24074 2.96014 6 3.44928 6C3.72101 6 3.99275 6.07407 4.24638 6.24074L16.4928 14.3889V7.48148C16.4928 6.66667 17.1449 6 17.942 6H27C27.5797 6 28.087 6.35185 28.3225 6.87037L35.1884 22.6667H39.6812C40.4783 22.6667 41.1304 23.3333 41.1304 24.1481V30.0741H43.7935L43.8478 29.7778C44.4638 26.537 46.7464 23.8889 49.808 22.8333L50.0797 22.7407C50.2246 22.6852 50.3877 22.6667 50.5326 22.6667C51.1486 22.6667 51.7101 23.0741 51.9094 23.6852C52.0362 24.0556 52 24.463 51.837 24.8148C51.6739 25.1667 51.3659 25.4259 51.0036 25.5556L50.7319 25.6481C48.9203 26.2593 47.4891 27.7407 46.8732 29.5926C46.3659 31.1667 46.4746 32.8519 47.1993 34.3519C47.9239 35.8333 49.1739 36.9444 50.7138 37.4815L51.0036 37.5741C51.7645 37.8333 52.1812 38.6852 51.9275 39.4444C51.7283 40.0556 51.1667 40.463 50.5507 40.463C50.3877 40.463 50.2428 40.4444 50.0978 40.3889L49.8261 40.2963C46.7645 39.2593 44.4819 36.5926 43.8659 33.3519L43.8116 33.0556H41.1486V38.9815C41.1486 39.7963 40.4964 40.463 39.6993 40.463H37.3442L37.2717 40.7407C36.6558 43.2222 34.7536 45.1667 32.3261 45.7963C31.7645 45.9444 31.2029 46.0185 30.6232 46.0185V46ZM30.6232 34.8889C28.4312 34.8889 26.6377 36.7222 26.6377 38.963C26.6377 41.2037 28.4312 43.037 30.6232 43.037C32.8152 43.037 34.6087 41.2037 34.6087 38.963C34.6087 36.7222 32.8152 34.8889 30.6232 34.8889ZM12.5072 34.8889C10.3152 34.8889 8.52174 36.7222 8.52174 38.963C8.52174 41.2037 10.3152 43.037 12.5072 43.037C14.6993 43.037 16.4928 41.2037 16.4928 38.963C16.4928 36.7222 14.6993 34.8889 12.5072 34.8889ZM30.6232 31.9259C33.7572 31.9259 36.4928 34.0926 37.2899 37.2037L37.3623 37.4815H38.2319V32.3519L28.1051 25.6296H4.89855V37.4815H5.76812L5.84058 37.2037C6.6558 34.1296 9.3913 31.963 12.5072 31.9259C15.6232 31.963 18.3587 34.1296 19.1739 37.2037L19.2464 37.4815H23.8841L23.9565 37.2037C24.5906 34.7222 26.4746 32.7963 28.9022 32.1481C29.4638 32 30.0435 31.9259 30.6232 31.9259ZM38.2319 28.8333V25.6296H33.413L38.2319 28.8333ZM19.3913 16.3148L28.9565 22.6852H32.0181L26.058 8.98148H19.3913V16.3333V16.3148ZM19.3913 22.6852H23.6486L19.3913 19.8519V22.6852ZM8.88406 17.1296C9.37319 17.1296 9.82609 17.3704 10.0978 17.7963L13.2862 22.6852H16.4928V17.9259L4.89855 10.2222V17.1296H8.88406ZM4.89855 22.6852H9.80797L8.12319 20.0926H4.91667V22.6852H4.89855Z" fill="#111827"/>
</g>
<defs>
<clipPath id="clip0_748_1568">
<rect width="52" height="52" fill="white"/>
</clipPath>
</defs>
</svg>
