<svg width="67" height="61" viewBox="0 0 67 61" fill="none" xmlns="http://www.w3.org/2000/svg">
<path fill-rule="evenodd" clip-rule="evenodd" d="M14 53C14 51.3431 15.3431 50 17 50C18.6569 50 20 51.3431 20 53C20 54.6569 18.6569 56 17 56C15.3431 56 14 54.6569 14 53ZM15.5 53C15.5 53.8284 16.1716 54.5 17 54.5C17.8284 54.5 18.5 53.8284 18.5 53C18.5 52.1716 17.8284 51.5 17 51.5C16.1716 51.5 15.5 52.1716 15.5 53Z" fill="#0078FF"/>
<path fill-rule="evenodd" clip-rule="evenodd" d="M49 53C49 51.3431 50.3431 50 52 50C53.6569 50 55 51.3431 55 53C55 54.6569 53.6569 56 52 56C50.3431 56 49 54.6569 49 53ZM50.5 53C50.5 53.8284 51.1716 54.5 52 54.5C52.8284 54.5 53.5 53.8284 53.5 53C53.5 52.1716 52.8284 51.5 52 51.5C51.1716 51.5 50.5 52.1716 50.5 53Z" fill="#0078FF"/>
<path fill-rule="evenodd" clip-rule="evenodd" d="M11.2236 54.0675H5.97081L5.73561 53.8162C5.53961 53.6119 3.84618 51.6952 6.37849 46.6206C7.42121 44.5232 16.1158 43.4548 20.0828 43.0699C26.1745 37.8303 28.8244 36 37.4484 36C50.055 36 54.3122 40.784 55.3392 42.2844H59.3062L59.5179 42.7164C62.1365 47.9639 60.6469 51.7266 59.8629 53.1013C59.535 53.6965 58.9106 54.0665 58.2322 54.0675H57.0248C56.3329 56.4003 54.193 58 51.7642 58C49.3353 58 47.1954 56.4003 46.5035 54.0675H21.7449C21.053 56.4003 18.9131 58 16.4842 58C14.0554 58 11.9155 56.4003 11.2236 54.0675ZM12.5642 52.4964C12.5642 54.6657 14.3193 56.4242 16.4842 56.4242C18.6492 56.4242 20.4042 54.6657 20.4042 52.4964C20.4042 50.3272 18.6492 48.5687 16.4842 48.5687C14.3193 48.5687 12.5642 50.3272 12.5642 52.4964ZM51.7642 56.4242C49.5992 56.4242 47.8442 54.6657 47.8442 52.4964C47.8442 50.3272 49.5992 48.5687 51.7642 48.5687C53.9291 48.5687 55.6842 50.3272 55.6842 52.4964C55.6842 54.6657 53.9291 56.4242 51.7642 56.4242ZM10.2122 47.7832H7.57801C6.29225 50.5483 6.52745 51.9701 6.73913 52.4964H10.9962C10.9962 49.4595 13.4533 46.9976 16.4842 46.9976C19.5152 46.9976 21.9722 49.4595 21.9722 52.4964H46.2762C46.2762 49.4595 48.7332 46.9976 51.7642 46.9976C54.7951 46.9976 57.2522 49.4595 57.2522 52.4964H58.2322C58.3405 52.4951 58.4396 52.4349 58.4909 52.3393C59.2307 50.942 59.5442 49.3576 59.3925 47.7832H56.4682V46.2121H59.1181C58.9356 45.4024 58.673 44.6129 58.3341 43.8554H54.4141L54.2024 43.4234L54.2016 43.422C54.1363 43.306 50.9071 37.5711 37.4484 37.5711C29.2556 37.5711 26.9506 39.2286 20.9138 44.476L20.7257 44.641H20.4748C17.0169 44.9314 13.5861 45.4855 10.2122 46.2985V47.7832Z" fill="#0078FF"/>
<path fill-rule="evenodd" clip-rule="evenodd" d="M40 44.9999H26.6195C25.9552 45.0042 25.3564 44.6271 25.1124 44.0508C24.8685 43.4745 25.0295 42.8176 25.5178 42.3975C27.303 40.8525 30.0129 39 32.8594 39H40V44.9999ZM32.8594 40.5C30.4149 40.5 27.9061 42.3825 26.6195 43.4999H38.3918V40.5H32.8594Z" fill="#0078FF"/>
<path fill-rule="evenodd" clip-rule="evenodd" d="M50.8885 42.9455C51.0827 43.4099 51.0205 43.9357 50.7226 44.3476C50.4298 44.7537 49.9457 44.9975 49.4273 45H41V39.0013H44.9491C47.6226 38.9471 50.0253 40.5426 50.8885 42.9455ZM44.9491 40.501H42.5796V43.5003H49.4273C48.7986 41.6696 46.9766 40.4493 44.9491 40.501Z" fill="#0078FF"/>
<rect x="35" y="46" width="3" height="2" fill="#0078FF"/>
<path fill-rule="evenodd" clip-rule="evenodd" d="M47 13.5C47 20.9558 40.9558 27 33.5 27C26.0442 27 20 20.9558 20 13.5C20 6.04416 26.0442 0 33.5 0C40.9558 0 47 6.04416 47 13.5ZM45.4118 13.5C45.4118 6.92131 40.0787 1.58824 33.5 1.58824C26.9213 1.58824 21.5882 6.92131 21.5882 13.5C21.5882 20.0787 26.9213 25.4118 33.5 25.4118C40.0787 25.4118 45.4118 20.0787 45.4118 13.5Z" fill="#0078FF"/>
<path d="M59.1913 57.4237L61.773 59.2847H5.22695L7.80083 57.4237L6.92967 56L0 61H67L60.0783 56L59.1913 57.4237Z" fill="#0078FF"/>
<path fill-rule="evenodd" clip-rule="evenodd" d="M35.224 15.4935H31.5098V20H30V6.00392H35.224C36.9069 5.93327 38.4919 6.82184 39.3537 8.31897C40.2154 9.8161 40.2154 11.6813 39.3537 13.1784C38.4919 14.6755 36.9069 15.5641 35.224 15.4935ZM35.224 7.56598H31.5098V13.9314H35.224C36.3594 13.9896 37.4335 13.396 38.0181 12.3873C38.6026 11.3786 38.6026 10.1188 38.0181 9.11005C37.4335 8.10134 36.3594 7.50777 35.224 7.56598Z" fill="#0078FF"/>
</svg>
