<svg width="52" height="52" viewBox="0 0 52 52" fill="none" xmlns="http://www.w3.org/2000/svg">
<path d="M38.7128 9.82058H26.5457C25.7311 5.8445 22.2115 3 18.1384 3H9.56397C8.62402 3 7.86162 3.75784 7.86162 4.70255V6.4051H2.71279C1.7624 6.4051 1 7.16294 1 8.10765C1 9.05236 1.7624 9.8102 2.71279 9.8102H7.85117V13.2153H2.71279C1.7624 13.2153 1 13.9731 1 14.9179C1 15.8626 1.7624 16.6204 2.71279 16.6204H7.85117V18.323C7.85117 19.2677 8.61358 20.0255 9.56397 20.0255H18.1384C22.2115 20.0255 25.7206 17.181 26.5352 13.2049H38.7023C42.4935 13.2049 45.564 16.2571 45.564 20.0255V21.7281C45.564 25.4965 42.4935 28.5486 38.7023 28.5486H11.2872C5.60574 28.5486 1 33.1268 1 38.7743C1 44.4218 5.60574 49 11.2872 49H40.4256C41.376 49 42.1384 48.2422 42.1384 47.2974C42.1384 46.3527 41.376 45.5949 40.4256 45.5949H11.2872C7.49608 45.5949 4.42559 42.5428 4.42559 38.7743C4.42559 35.0059 7.49608 31.9537 11.2872 31.9537H38.7128C44.3943 31.9537 49 27.3755 49 21.7281V20.0255C49 14.378 44.3943 9.79982 38.7128 9.79982V9.82058ZM18.1384 16.6412H11.2768V6.4051H18.1384C20.9791 6.4051 23.2768 8.68901 23.2768 11.5128C23.2768 14.3365 20.9791 16.6204 18.1384 16.6204V16.6412Z" fill="#111827"/>
</svg>
