<svg width="62" height="58" viewBox="0 0 62 58" fill="none" xmlns="http://www.w3.org/2000/svg">
<path d="M61.2422 11.7716C61.2422 11.7581 61.2412 11.7447 61.2412 11.7313C61.2412 11.7279 61.2422 11.7245 61.2422 11.7212C61.2422 11.7154 61.2405 11.7099 61.2405 11.7041C61.2038 5.35517 56.0147 0.201172 49.6399 0.201172C47.7962 0.201172 45.9544 0.427252 44.1652 0.873172L20.3954 6.79805L14.4751 5.04101C14.1849 4.95437 13.8705 5.01077 13.6279 5.19197C13.3852 5.37293 13.2422 5.65829 13.2422 5.96117V18.4412C13.2422 18.7321 13.3742 19.0073 13.601 19.1897C13.8278 19.3721 14.1259 19.441 14.4093 19.3786L20.3836 18.0581L36.7773 21.3269L37.2086 22.9757L35.6932 25.2173C35.1895 25.9625 35.1386 26.9189 35.5607 27.7133C35.9827 28.5077 36.8035 29.0012 37.703 29.0012H38.7849L39.0117 29.8683L37.4135 32.233C36.9489 32.9199 36.9021 33.8017 37.2909 34.5339C37.6799 35.2661 38.4364 35.7212 39.2659 35.7212H40.5429L44.0527 49.1369C44.4993 50.8428 46.0401 52.0349 47.8022 52.0405V52.5212C47.8022 55.4326 50.1707 57.8012 53.0822 57.8012C55.9936 57.8012 58.3622 55.4326 58.3622 52.5212V28.0412C58.3622 27.511 57.9323 27.0812 57.4022 27.0812C56.872 27.0812 56.4422 27.511 56.4422 28.0412V52.5212C56.4422 54.374 54.935 55.8812 53.0822 55.8812C51.2294 55.8812 49.7222 54.374 49.7222 52.5212V51.7993C50.1321 51.631 50.5072 51.3785 50.8247 51.0478C51.4396 50.4072 51.7586 49.5661 51.7223 48.679L50.692 23.2923C56.5982 22.7602 61.2422 17.7977 61.2422 11.7716ZM44.6299 2.73605C45.934 2.41109 47.2691 2.21573 48.6112 2.14901C47.7479 5.30957 43.0382 10.7612 32.9222 10.7612C29.0013 10.7612 24.4857 9.95357 21.9213 8.39645L44.6299 2.73605ZM37.703 27.0812C37.4284 27.0812 37.2991 26.8935 37.2566 26.8126C37.2136 26.732 37.1306 26.5196 37.2839 26.2923L37.8551 25.4473L38.2826 27.0812H37.703ZM39.2659 33.8012C39.1007 33.8012 39.0201 33.696 38.987 33.6334C38.9536 33.5708 38.9116 33.4453 39.0043 33.3082L39.6585 32.3403L40.0406 33.8012H39.2659ZM49.4397 49.7182C49.1901 49.9781 48.8543 50.1212 48.4941 50.1212H47.8147C46.9199 50.1212 46.1368 49.5166 45.9103 48.6512L38.8711 21.7445L44.1823 22.8037C45.6916 23.1046 47.2315 23.2789 48.7715 23.3271L48.8099 24.2753C45.809 26.5616 43.9622 30.5221 43.9622 34.7612C43.9622 39.3872 46.1114 43.6097 49.5712 45.7808C49.6084 45.8041 49.6466 45.824 49.6855 45.8415L49.8038 48.757C49.8184 49.117 49.6891 49.4583 49.4397 49.7182ZM48.9105 26.7483L49.5868 43.4153C47.2771 41.4533 45.8822 38.2515 45.8822 34.7612C45.8822 31.6546 47.0111 28.7362 48.9105 26.7483ZM49.6399 21.4222C47.9373 21.4222 46.2273 21.2535 44.5579 20.9206L20.5612 16.1355C20.4991 16.1233 20.4362 16.117 20.3735 16.117C20.3039 16.117 20.2346 16.1245 20.1664 16.1396L15.1622 17.2457V7.24733L18.9746 8.37869C21.0595 10.9645 26.5802 12.6812 32.9222 12.6812C44.3193 12.6812 49.7702 6.22829 50.573 2.16677C53.3411 2.43197 55.7721 3.86309 57.3645 5.96117H53.5622C53.032 5.96117 52.6022 6.39101 52.6022 6.92117C52.6022 7.45133 53.032 7.88117 53.5622 7.88117H58.3622C58.4066 7.88117 58.4488 7.87397 58.4915 7.86821C58.8931 8.76917 59.1619 9.74141 59.2689 10.7612H54.5222C53.992 10.7612 53.5622 11.191 53.5622 11.7212C53.5622 12.2513 53.992 12.6812 54.5222 12.6812H59.2778C59.1815 13.7012 58.9259 14.6753 58.5355 15.5787C58.4791 15.5684 58.4215 15.5612 58.3622 15.5612H53.5622C53.032 15.5612 52.6022 15.991 52.6022 16.5212C52.6022 17.0513 53.032 17.4812 53.5622 17.4812H57.4396C55.6754 19.8692 52.8367 21.4222 49.6399 21.4222Z" fill="#0078FF"/>
<path d="M6.04359 9.80105H10.3636C10.8938 9.80105 11.3236 9.37121 11.3236 8.84105C11.3236 8.31089 10.8938 7.88105 10.3636 7.88105H6.04359C5.24943 7.88105 4.60359 7.23521 4.60359 6.44105C4.60359 5.64689 5.24943 5.00105 6.04359 5.00105H7.48359C8.01375 5.00105 8.44359 4.57121 8.44359 4.04105C8.44359 3.51089 8.01375 3.08105 7.48359 3.08105H6.04359C4.19079 3.08105 2.68359 4.58825 2.68359 6.44105C2.68359 8.29385 4.19079 9.80105 6.04359 9.80105Z" fill="#0078FF"/>
<path d="M11.3217 11.7207H5.08172C2.69972 11.7207 0.761719 13.6587 0.761719 16.0407C0.761719 18.4227 2.69972 20.3607 5.08172 20.3607H6.52172C7.05188 20.3607 7.48172 19.9309 7.48172 19.4007C7.48172 18.8705 7.05188 18.4407 6.52172 18.4407H5.08172C3.75836 18.4407 2.68172 17.3641 2.68172 16.0407C2.68172 14.7173 3.75836 13.6407 5.08172 13.6407H11.3217C11.8519 13.6407 12.2817 13.2109 12.2817 12.6807C12.2817 12.1505 11.8519 11.7207 11.3217 11.7207Z" fill="#0078FF"/>
</svg>
