<svg width="52" height="60" viewBox="0 0 52 60" fill="none" xmlns="http://www.w3.org/2000/svg">
<path d="M0.222431 44.6488C0.528689 45.1793 1.08432 45.4756 1.65582 45.4756C1.93628 45.4756 2.22071 45.4042 2.48133 45.254L8.11634 42.001V48.5078C8.11634 49.4213 8.85652 50.1614 9.77 50.1614C10.6835 50.1614 11.4237 49.4213 11.4237 48.5078V40.0913L17.4079 36.6365L19.4452 37.8126L16.4528 42.9951C15.9964 43.7863 16.2669 44.7976 17.058 45.254C17.3186 45.4049 17.6031 45.4756 17.8835 45.4756C18.455 45.4756 19.0113 45.1786 19.3169 44.6488L22.3087 39.4662L24.346 40.6423V47.5526L17.0573 51.7602C16.2662 52.2166 15.9957 53.228 16.4521 54.0191C16.7584 54.5496 17.314 54.8459 17.8855 54.8459C18.166 54.8459 18.4504 54.7745 18.711 54.6243L24.346 51.3713V57.8781C24.346 58.7916 25.0862 59.5317 25.9997 59.5317C26.9132 59.5317 27.6533 58.7916 27.6533 57.8781V51.3719L33.2883 54.625C33.549 54.7758 33.8334 54.8466 34.1138 54.8466C34.6853 54.8466 35.2416 54.5496 35.5472 54.0198C36.0036 53.2286 35.7331 52.2173 34.942 51.7609L27.654 47.5526V40.6423L29.6913 39.4662L32.6831 44.6488C32.9894 45.1793 33.545 45.4756 34.1165 45.4756C34.3969 45.4756 34.6814 45.4042 34.942 45.254C35.7331 44.7976 36.0036 43.7863 35.5472 42.9951L32.5554 37.8126L34.5927 36.6365L40.577 40.0913V48.5071C40.577 49.4206 41.3172 50.1608 42.2307 50.1608C43.1441 50.1608 43.8843 49.4206 43.8843 48.5071V42.0003L49.5193 45.2534C49.78 45.4042 50.0644 45.475 50.3448 45.475C50.9163 45.475 51.4726 45.178 51.7782 44.6481C52.2346 43.857 51.9641 42.8456 51.173 42.3892L45.538 39.1362L51.173 35.8831C51.9641 35.4267 52.2346 34.4153 51.7782 33.6242C51.3218 32.8331 50.3098 32.5612 49.5193 33.0189L42.2307 37.2272L36.2464 33.7724V31.4195H42.2307C43.1441 31.4195 43.8843 30.6793 43.8843 29.7659C43.8843 28.8524 43.1441 28.1122 42.2307 28.1122H36.2464V25.7594L42.2307 22.3046L49.5193 26.5128C49.78 26.6636 50.0644 26.7344 50.3448 26.7344C50.9163 26.7344 51.4726 26.4374 51.7782 25.9075C52.2346 25.1164 51.9641 24.1051 51.173 23.6486L45.538 20.3956L51.173 17.1425C51.9641 16.6861 52.2346 15.6747 51.7782 14.8836C51.3218 14.0925 50.3098 13.8206 49.5193 14.2784L43.8843 17.5314V11.0246C43.8843 10.1111 43.1441 9.37096 42.2307 9.37096C41.3172 9.37096 40.577 10.1111 40.577 11.0246V19.4404L34.5927 22.8952L32.5554 21.7192L35.5479 16.5366C36.0043 15.7455 35.7338 14.7341 34.9427 14.2777C34.1509 13.82 33.1395 14.0925 32.6838 14.8829L29.692 20.0655L27.6547 18.8894V11.9791L34.9433 7.77154C35.7344 7.31513 36.005 6.30375 35.5486 5.51264C35.0921 4.72153 34.0801 4.449 33.2897 4.9074L27.654 8.15982V1.65366C27.654 0.740178 26.9138 0 26.0003 0C25.0868 0 24.3467 0.740178 24.3467 1.65366V8.15982L18.7117 4.90674C17.9199 4.44834 16.9092 4.72153 16.4528 5.51198C15.9964 6.30309 16.2669 7.31447 17.058 7.77087L24.3467 11.9791V18.8894L22.3094 20.0655L19.3169 14.8829C18.8605 14.0918 17.8485 13.82 17.058 14.2777C16.2669 14.7341 15.9964 15.7455 16.4528 16.5366L19.4446 21.7192L17.4073 22.8952L11.423 19.4404V11.0246C11.423 10.1111 10.6828 9.37096 9.76934 9.37096C8.85585 9.37096 8.11568 10.1111 8.11568 11.0246V17.5314L2.48067 14.2784C1.6889 13.8206 0.677518 14.0931 0.221769 14.8836C-0.234641 15.6747 0.0358979 16.6861 0.827008 17.1425L6.46202 20.3956L0.827008 23.6486C0.0358979 24.1051 -0.234641 25.1164 0.221769 25.9075C0.528027 26.438 1.08366 26.7344 1.65516 26.7344C1.93562 26.7344 2.22005 26.6629 2.48067 26.5128L9.76934 22.3046L15.7536 25.7594V28.1122H9.76934C8.85585 28.1122 8.11568 28.8524 8.11568 29.7659C8.11568 30.6793 8.85585 31.4195 9.76934 31.4195H15.7536V33.7724L9.76934 37.2272L2.48067 33.0189C1.6889 32.5612 0.677518 32.8337 0.221769 33.6242C-0.234641 34.4153 0.0358979 35.4267 0.827008 35.8831L6.46202 39.1362L0.827008 42.3892C0.0365593 42.8463 -0.23464 43.8577 0.222431 44.6488ZM19.0616 25.7594L26.0003 21.7536L32.9391 25.76V33.7724L26.0003 37.7782L19.0616 33.7717V25.7594Z" fill="#0078FF"/>
</svg>
