<svg width="52" height="52" viewBox="0 0 52 52" fill="none" xmlns="http://www.w3.org/2000/svg">
<path d="M51 27.694V13.8866C51 12.2356 49.7123 10.8892 48.1332 10.8892C46.5542 10.8892 45.2665 12.2356 45.2665 13.8866V24.6967H41.9016V20.353C41.9016 18.3875 40.3789 16.7955 38.4991 16.7955H32.7092C32.2204 14.0635 30.209 11.8228 27.643 11.1251C27.6618 11.0072 27.6618 10.8892 27.6618 10.7713C27.6618 9.23825 26.4681 8 25.0112 8C23.5544 8 22.3607 9.24807 22.3607 10.7713C22.3607 10.8892 22.3607 11.0072 22.3795 11.1251C19.8135 11.8228 17.8021 14.0635 17.3133 16.7955H13.1495C11.2696 16.7955 9.74696 18.3875 9.74696 20.353V24.6967H5.72411V13.8866C5.72411 12.2356 4.43642 10.8892 2.85735 10.8892C1.27829 10.8892 0 12.2356 0 13.8866V27.694C0 29.1485 1.01511 30.3769 2.3404 30.6422V39.0544C1.01511 39.3198 0 40.5482 0 42.0027C0 43.6536 1.28769 45 2.86675 45H48.1332C49.7123 45 51 43.6536 51 42.0027C51 40.5482 49.9849 39.3198 48.6596 39.0544V30.6422C49.9849 30.3769 51 29.1485 51 27.694ZM24.8985 10.7713C24.8985 10.7025 24.9548 10.6534 25.0112 10.6534C25.0676 10.6534 25.124 10.7124 25.124 10.7713C25.124 10.8991 24.8891 10.8991 24.8891 10.7713H24.8985ZM19.9169 16.7955C20.462 14.8791 22.1445 13.5525 24.1089 13.5525H25.923C27.878 13.5525 29.5605 14.889 30.115 16.7955H19.9263H19.9169ZM12.2847 24.6967V20.353C12.2847 19.8518 12.6701 19.4489 13.1495 19.4489H38.4991C38.9784 19.4489 39.3638 19.8518 39.3638 20.353V24.6967H12.2847ZM4.45522 27.3501H14.9917C15.1703 27.3501 15.3207 27.5073 15.3207 27.694C15.3207 27.8807 15.1703 28.038 14.9917 28.038H2.86675C2.68817 28.038 2.53778 27.8807 2.53778 27.694V13.8866C2.53778 13.6999 2.68817 13.5426 2.86675 13.5426C3.04534 13.5426 3.19572 13.6999 3.19572 13.8866V26.0234C3.19572 26.7506 3.76907 27.3501 4.46461 27.3501H4.45522ZM17.8397 27.3501H22.6144V39.0053H15.3019V30.6717C16.74 30.5046 17.8585 29.2369 17.8585 27.694C17.8585 27.5761 17.8585 27.468 17.8397 27.3501ZM12.7641 30.6914V39.0053H4.87818V30.6914H12.7735H12.7641ZM25.1522 39.0053V27.3501H25.8102V39.0053H25.1522ZM47.7855 26.0234V13.8866C47.7855 13.6999 47.9359 13.5426 48.1144 13.5426C48.293 13.5426 48.4434 13.6999 48.4434 13.8866V27.694C48.4434 27.8807 48.293 28.038 48.1144 28.038H35.9801C35.8015 28.038 35.6511 27.8807 35.6511 27.694C35.6511 27.5073 35.8015 27.3501 35.9801 27.3501H46.5166C47.2121 27.3501 47.7855 26.7506 47.7855 26.0234ZM35.6605 30.6717V39.0053H28.3386V27.3501H33.1227C33.1133 27.468 33.1039 27.5761 33.1039 27.694C33.1039 29.2369 34.2224 30.5145 35.6605 30.6717ZM38.1983 39.0053V30.6914H46.0936V39.0053H38.1983ZM2.84795 41.6587H48.1144C48.293 41.6587 48.4434 41.8159 48.4434 42.0027C48.4434 42.1894 48.293 42.3466 48.1144 42.3466H2.86675C2.68817 42.3466 2.53778 42.1894 2.53778 42.0027C2.53778 41.8159 2.68817 41.6587 2.86675 41.6587H2.84795Z" fill="#111827"/>
</svg>
