<svg width="54" height="54" viewBox="0 0 54 54" fill="none" xmlns="http://www.w3.org/2000/svg">
<path fill-rule="evenodd" clip-rule="evenodd" d="M48.6179 6.6778L46.7428 8.55283C56.6263 19.1348 56.4166 35.7809 46.1016 46.0973C40.8332 51.3654 33.9114 54 26.9906 54C20.0698 54 13.1481 51.3654 7.87965 46.0973C-1.38785 36.8302 -2.60593 22.0788 4.89176 11.4418C3.25802 9.61523 3.30182 6.80734 5.05579 5.05346C6.80975 3.29864 9.61685 3.25578 11.4444 4.88944C21.8294 -2.42896 36.1314 -1.43833 45.4268 7.23323L47.3001 5.36006C47.6645 4.99568 48.2535 4.99568 48.6179 5.36006C48.9823 5.72444 48.9823 6.31342 48.6179 6.6778ZM8.3503 5.55297C7.60286 5.55297 6.90109 5.8428 6.37359 6.3712C5.28319 7.46155 5.28319 9.235 6.37359 10.3254C6.45054 10.4031 6.53694 10.4667 6.62361 10.5304L6.66903 10.5639L6.68394 10.5751C6.79577 10.6581 6.91413 10.7252 7.03436 10.7895C7.05144 10.7982 7.06832 10.8072 7.0852 10.8162C7.11896 10.8342 7.15272 10.8522 7.18813 10.8677C7.248 10.8957 7.30982 10.9179 7.37196 10.9401L7.37198 10.9402L7.40901 10.9535C7.5311 10.9945 7.65412 11.0336 7.77993 11.0588L7.83678 11.07C8.5311 11.192 9.26829 11.0634 9.86941 10.686C9.87415 10.683 9.87929 10.6804 9.88455 10.6777C9.89066 10.6746 9.89695 10.6714 9.90296 10.6674C10.0539 10.5695 10.1965 10.4558 10.327 10.3254C10.4547 10.1977 10.5637 10.0598 10.6616 9.91531C10.7051 9.85045 10.7404 9.7821 10.7759 9.71347L10.7759 9.71346L10.7759 9.71344L10.7759 9.71343L10.7759 9.71341C10.7853 9.69528 10.7946 9.67714 10.8042 9.65903C10.8131 9.64251 10.8222 9.62598 10.8315 9.60941C10.856 9.5652 10.8808 9.52059 10.9011 9.47451C10.9514 9.35615 10.9915 9.235 11.0251 9.11199L11.0339 9.08358L11.0339 9.08356C11.0414 9.05982 11.0489 9.03629 11.0549 9.01227C11.0884 8.87155 11.1108 8.72804 11.1238 8.58359C11.1243 8.57613 11.125 8.56891 11.1257 8.56169C11.1264 8.55447 11.1271 8.54724 11.1276 8.53979C11.1378 8.38229 11.136 8.2248 11.1192 8.06823C11.1189 8.06761 11.1187 8.06678 11.1185 8.06596L11.1184 8.06488L11.1182 8.06264C11.0661 7.57525 10.8871 7.09624 10.5768 6.68246L10.5227 6.6107C10.5048 6.58811 10.4875 6.56529 10.4701 6.54252C10.4253 6.4836 10.3808 6.42497 10.327 6.3712C9.79951 5.84373 9.09774 5.55297 8.3503 5.55297ZM44.7828 44.7795C34.972 54.5899 19.0083 54.5899 9.19653 44.7795C0.581403 36.1639 -0.567715 22.4544 6.37918 12.5555C6.57676 12.6477 6.78086 12.7204 6.98962 12.7838C7.00379 12.7879 7.01796 12.7923 7.03212 12.7967C7.05337 12.8033 7.07462 12.8099 7.09587 12.8155C7.29717 12.8723 7.50127 12.9161 7.71097 12.945C7.72961 12.9473 7.74825 12.949 7.76689 12.9506C7.78553 12.9522 7.80417 12.9538 7.8228 12.9562C7.87117 12.9616 7.91938 12.9679 7.96762 12.9742C8.09413 12.9908 8.22075 13.0074 8.3503 13.0074C8.79951 13.0074 9.23287 12.9236 9.65226 12.8005L9.70226 12.7863L9.70227 12.7863L9.70229 12.7863L9.70231 12.7863C9.77291 12.7663 9.8429 12.7464 9.91228 12.7223C10.0577 12.6701 10.1993 12.6123 10.3382 12.5461C10.464 12.4874 10.5852 12.4194 10.7063 12.3495C10.7288 12.3363 10.7514 12.3233 10.7739 12.3103C10.8549 12.2636 10.9356 12.2171 11.0129 12.1631C11.2347 12.0093 11.4491 11.8397 11.6448 11.6431C11.847 11.4409 12.0204 11.22 12.1779 10.9898C12.2223 10.9253 12.261 10.8588 12.2998 10.7921C12.3131 10.7691 12.3265 10.7462 12.3401 10.7233C12.4239 10.5816 12.5004 10.4381 12.5684 10.289C12.6234 10.1688 12.6746 10.0495 12.7184 9.92649C12.7562 9.82083 12.7853 9.71279 12.8145 9.60457L12.8145 9.60455L12.8145 9.60454L12.8145 9.60452L12.8219 9.57702C12.9757 9.01321 13.0213 8.43168 12.9598 7.85296C12.9576 7.83254 12.956 7.81227 12.9543 7.79202V7.79202V7.79201V7.792C12.9519 7.76144 12.9494 7.73095 12.9449 7.70012C12.9179 7.50628 12.8759 7.31804 12.8247 7.12885C12.8098 7.07294 12.793 7.01702 12.7753 6.96018C12.7156 6.76727 12.6476 6.57902 12.5619 6.3945C12.5602 6.39111 12.5592 6.38771 12.5582 6.38453L12.5582 6.38451C12.5576 6.38245 12.557 6.38048 12.5563 6.37865C22.2031 -0.389913 35.452 0.547603 44.095 8.56588L40.7968 11.8649C32.7614 4.52599 20.2646 4.7189 12.4929 12.4902C4.49847 20.4843 4.49847 33.4902 12.4929 41.4843C16.4901 45.4813 21.7408 47.4803 26.9915 47.4803C32.2423 47.4803 37.493 45.4813 41.4902 41.4843C44.7157 38.2598 46.7521 34.0205 47.3075 29.4895C48.0727 29.2854 48.7996 28.9042 49.398 28.305C51.2134 26.4887 51.2134 23.5317 49.398 21.7153C48.561 20.8785 47.4818 20.4461 46.384 20.3799C45.479 17.7146 44.0252 15.2496 42.1277 13.1696L45.4268 9.87058C54.5825 19.7257 54.3728 35.19 44.7828 44.7795ZM48.0783 23.0331C47.5331 22.4888 46.8173 22.2158 46.1016 22.2158C46.0998 22.2158 46.0981 22.2159 46.0964 22.2161L46.091 22.2169C46.0885 22.2173 46.0864 22.2176 46.0848 22.2176L45.8127 22.2456C45.3532 22.2941 44.6887 22.4702 44.1249 23.0331C43.0345 24.1234 43.0345 25.8969 44.1249 26.9872C44.2684 27.1308 44.4268 27.2556 44.5955 27.3619C44.6004 27.365 44.6054 27.3678 44.6105 27.3704C44.6141 27.3722 44.6178 27.374 44.6214 27.3757C44.6235 27.3767 44.6256 27.3777 44.6277 27.3786C44.6386 27.3838 44.6496 27.3889 44.6598 27.3954C44.8145 27.4877 44.9758 27.5688 45.1463 27.6284C45.1525 27.6309 45.1587 27.6325 45.1649 27.6342L45.1743 27.6368C45.5526 27.7663 45.9627 27.8166 46.3784 27.7756L46.6496 27.7486C47.1733 27.6442 47.6729 27.3917 48.0783 26.9872C49.1678 25.8969 49.1678 24.1234 48.0783 23.0331ZM44.4809 20.6539C44.2227 20.7499 43.9739 20.8729 43.7325 21.0164C43.7099 21.0294 43.6866 21.0406 43.6633 21.0519L43.6632 21.0519C43.6346 21.0658 43.606 21.0796 43.5787 21.0965C43.3057 21.2727 43.0447 21.4758 42.8052 21.7153C40.9888 23.5317 40.9888 26.4887 42.8052 28.305C43.0084 28.5081 43.2311 28.6833 43.4632 28.8418C43.5283 28.8868 43.5959 28.9255 43.6635 28.9642C43.68 28.9736 43.6964 28.9831 43.7129 28.9926C43.7226 28.9982 43.7322 29.0038 43.7418 29.0095C43.8826 29.0915 44.0252 29.1698 44.1733 29.236C44.3001 29.2937 44.4268 29.3431 44.5573 29.3888C44.671 29.4279 44.7856 29.4606 44.9021 29.4904C45.0634 29.5333 45.2237 29.5733 45.3877 29.5985C45.3953 29.5995 45.4026 29.6016 45.4098 29.6036C45.4159 29.6053 45.4218 29.607 45.4278 29.6078C44.8649 33.5974 43.0186 37.3158 40.1687 40.1656C32.9002 47.4337 21.0763 47.4337 13.8079 40.1656C6.54041 32.8984 6.54041 21.0742 13.8079 13.807C17.4417 10.1735 22.2152 8.35713 26.9888 8.35713C31.4697 8.35713 35.9394 9.97961 39.4771 13.1817L35.5237 17.1349C33.1556 15.0791 30.164 13.9468 26.9888 13.9468C23.4995 13.9468 20.2227 15.3018 17.7632 17.7621C15.3037 20.2224 13.9477 23.4981 13.9477 26.9872C13.9477 30.4764 15.3028 33.753 17.7632 36.2124C20.2236 38.6717 23.4995 40.0277 26.9888 40.0277C30.478 40.0277 33.7548 38.6726 36.2143 36.2124C38.6738 33.7521 40.0298 30.4764 40.0298 26.9872C40.0298 23.8122 38.8975 20.8207 36.8415 18.4527L40.7921 14.5022C42.4091 16.2915 43.6896 18.3735 44.5079 20.6399C44.5033 20.6418 44.4988 20.6443 44.4944 20.6469C44.4921 20.6482 44.4899 20.6495 44.4876 20.6507C44.4854 20.6519 44.4832 20.653 44.4809 20.6539ZM26.9897 27.9192C26.7511 27.9192 26.5125 27.8278 26.3308 27.6461C25.9664 27.2817 25.9664 26.6927 26.3308 26.3284L34.2069 18.4527C32.1938 16.7463 29.6672 15.8107 26.9897 15.8107C23.9981 15.8107 21.19 16.9728 19.0819 19.0799C16.9738 21.1869 15.8126 23.9958 15.8126 26.9872C15.8126 29.9787 16.9747 32.7866 19.0819 34.8946C21.1891 37.0026 23.9981 38.1638 26.9897 38.1638C29.9813 38.1638 32.7893 37.0017 34.8974 34.8946C37.0056 32.7875 38.1668 29.9787 38.1668 26.9872C38.1668 24.3098 37.2311 21.7834 35.5247 19.7704L27.6486 27.6461C27.4669 27.8278 27.2283 27.9192 26.9897 27.9192Z" fill="#0078FF"/>
</svg>
