<svg width="46" height="32" viewBox="0 0 46 32" fill="none" xmlns="http://www.w3.org/2000/svg">
<path fill-rule="evenodd" clip-rule="evenodd" d="M2.74997 0H43.25C44.525 0 45.5001 0.992606 45.5 2.2907V17.5622C45.5 18.8603 44.525 19.8529 43.25 19.8529H2.74997C1.47496 19.8529 0.5 18.8603 0.5 17.5622V2.2907C0.5 0.992606 1.47496 0 2.74997 0ZM43.2496 18.326C43.6996 18.326 43.9996 18.0206 43.9996 17.5624H43.9995V2.29088C43.9995 1.83274 43.6995 1.52734 43.2495 1.52734H2.74947C2.37454 1.52734 1.99951 1.83274 1.99951 2.29088V17.5624C1.99951 18.0206 2.29948 18.326 2.74947 18.326H43.2496Z" fill="#111827"/>
<path d="M19.7577 6.61747H25.5813C26.0181 6.61747 26.3092 6.35278 26.3092 5.95571C26.3092 5.55864 26.0181 5.29395 25.5813 5.29395H19.7577C19.3209 5.29395 19.0298 5.55864 19.0298 5.95571C19.0298 6.35278 19.3209 6.61747 19.7577 6.61747Z" fill="#111827"/>
<path d="M41.4408 15.2207H3.89827C3.44777 15.2207 3.14746 15.4854 3.14746 15.8825C3.14746 16.2795 3.44777 16.5442 3.89827 16.5442H41.4408C41.8913 16.5442 42.1916 16.2795 42.1916 15.8825C42.1916 15.4854 41.8913 15.2207 41.4408 15.2207Z" fill="#111827"/>
<path d="M41.4408 12.5742H3.89827C3.44777 12.5742 3.14746 12.8389 3.14746 13.236C3.14746 13.6331 3.44777 13.8977 3.89827 13.8977H41.4408C41.8913 13.8977 42.1916 13.6331 42.1916 13.236C42.1916 12.8389 41.8913 12.5742 41.4408 12.5742Z" fill="#111827"/>
<path d="M23.0547 25.1314C22.2827 24.7466 21.8966 24.285 21.8966 23.9003C21.8966 23.5155 22.3598 23.0539 22.9775 22.5922C23.3635 22.4383 23.4407 21.9766 23.2863 21.592C23.1318 21.2072 22.6686 21.0534 22.2827 21.2842C21.0474 21.9767 20.3525 22.9 20.3525 23.9003C20.3525 24.9006 21.0474 25.824 22.2827 26.5933C23.0547 26.9781 23.4407 27.4397 23.4407 27.8245C23.4407 28.2092 22.9775 28.6709 22.2827 29.0555C21.8966 29.2094 21.7423 29.6711 21.9739 30.0557C22.1283 30.2866 22.3599 30.4405 22.6687 30.4405C22.8232 30.4405 22.9003 30.4405 23.0548 30.3636C24.2901 29.6711 24.9849 28.7478 24.9849 27.7475C24.9849 26.7472 24.29 25.747 23.0547 25.1314Z" fill="#111827"/>
<path d="M15.1138 26.4556C14.3418 26.0708 13.9557 25.6092 13.9557 25.2244C13.9557 24.8397 14.4189 24.3781 15.0366 23.9164C15.4226 23.7625 15.577 23.3008 15.3454 22.9162C15.1909 22.5315 14.7277 22.3776 14.3418 22.6085C13.1064 23.3009 12.4116 24.2242 12.4116 25.2245C12.4116 26.2247 13.1064 27.1481 14.3418 27.9175C15.1138 28.3023 15.4998 28.7639 15.4998 29.1486C15.4998 29.5334 15.0366 29.995 14.3418 30.3798C13.9557 30.5337 13.8014 30.9953 14.033 31.38C14.1874 31.6108 14.419 31.7647 14.7278 31.7647C14.8822 31.7647 14.9594 31.7647 15.1138 31.6878C16.3491 30.9953 17.044 30.072 17.044 29.0717C17.044 28.0714 16.3491 27.0711 15.1138 26.4556Z" fill="#111827"/>
<path d="M31.6582 26.4556C30.8862 26.0708 30.5001 25.6092 30.5001 25.2244C30.5001 24.8397 30.9634 24.3781 31.581 23.9164C31.9671 23.7625 32.0442 23.3008 31.8898 22.9162C31.7354 22.5315 31.2721 22.3776 30.8862 22.6085C29.6509 23.3009 28.9561 24.2242 28.9561 25.2245C28.9561 26.2247 29.6509 27.1481 30.8862 27.9175C31.6582 28.3023 32.0442 28.7639 32.0442 29.1486C32.0442 29.5334 31.581 29.995 30.8862 30.3798C30.5001 30.5337 30.3458 30.9953 30.5774 31.38C30.7318 31.6108 30.9635 31.7647 31.2722 31.7647C31.4267 31.7647 31.5038 31.7647 31.6583 31.6878C32.8936 30.9953 33.5884 30.072 33.5884 29.0717C33.5884 28.0714 32.8934 27.0711 31.6582 26.4556Z" fill="#111827"/>
</svg>

