<svg width="55" height="55" viewBox="0 0 55 55" fill="none" xmlns="http://www.w3.org/2000/svg">
<path d="M37.6158 22.6395C38.302 23.3256 39.2142 23.7035 40.1846 23.7035C41.1551 23.7035 42.0673 23.3256 42.7535 22.6395L53.7139 11.679C54.4001 10.9929 54.7779 10.0807 54.7779 9.11012C54.7779 8.13955 54.4 7.22735 53.7139 6.54111L48.2341 1.06112C46.8178 -0.355071 44.513 -0.354949 43.0965 1.06112L32.1359 12.0216C31.4498 12.7078 31.072 13.62 31.072 14.5906C31.072 15.5612 31.4499 16.4732 32.1359 17.1595L34.0196 19.0432L32.3352 20.7276L25.7743 14.1666C24.6599 13.0523 23.1782 12.4385 21.6023 12.4385C20.0264 12.4385 18.5445 13.0522 17.4302 14.1666L14.1678 17.429C13.0535 18.5435 12.4398 20.0252 12.4398 21.6011C12.4398 23.177 13.0535 24.6586 14.1678 25.773L20.729 32.3341L19.0445 34.0185L17.1608 32.1348C15.7444 30.7184 13.4396 30.7184 12.023 32.1348L1.06233 43.0951C-0.354109 44.5116 -0.354109 46.8164 1.06233 48.2329L6.54256 53.7132C7.25084 54.4214 8.18108 54.7754 9.11144 54.7754C10.0417 54.7754 10.9721 54.4213 11.6803 53.7132L22.6408 42.7527C24.0572 41.3363 24.0572 39.0315 22.6408 37.6149L20.7571 35.7312L22.4415 34.0468L29.0025 40.6079C30.1168 41.7222 31.5986 42.336 33.1745 42.336C33.6149 42.336 34.0475 42.2864 34.4672 42.193C33.5891 45.6996 34.5171 49.5696 37.2539 52.3063C37.4904 52.5427 37.8003 52.661 38.1102 52.661C38.4201 52.661 38.7301 52.5427 38.9664 52.3063L44.7805 46.4922L45.9913 47.703C46.2278 47.9394 46.5377 48.0577 46.8476 48.0577C47.1575 48.0577 47.4675 47.9394 47.7039 47.703C48.1767 47.2301 48.1767 46.4634 47.7039 45.9904L46.4929 44.7796L52.2845 38.988C52.7574 38.5151 52.7574 37.7484 52.2845 37.2754C50.2771 35.268 47.608 34.1623 44.7689 34.1623C43.8884 34.1623 43.0245 34.2691 42.1913 34.4757C42.2861 34.0531 42.3364 33.6172 42.3364 33.1736C42.3364 31.5975 41.7227 30.1159 40.6084 29.0015L34.0474 22.4405L35.7318 20.7561L37.6158 22.6395ZM41.0411 20.9268C40.8124 21.1556 40.5085 21.2816 40.1849 21.2816C39.8614 21.2816 39.5574 21.1556 39.3286 20.9268L37.4449 19.0431L40.5275 15.9605L43.2676 18.7006L41.0411 20.9268ZM44.9801 16.988L42.24 14.248L45.3227 11.1654L48.0627 13.9056L44.9801 16.988ZM52.0018 8.25374C52.2305 8.48261 52.3564 8.78656 52.3564 9.11012C52.3564 9.43356 52.2305 9.73763 52.0017 9.96625L49.7754 12.1926L47.0353 9.45257L50.118 6.36988L52.0018 8.25374ZM44.8089 2.77363C45.045 2.53762 45.355 2.41956 45.6651 2.41956C45.9752 2.41956 46.2854 2.53762 46.5214 2.77363L48.4051 4.65737L45.3224 7.74006L42.5823 4.99983L44.8089 2.77363ZM40.8699 6.71258L43.61 9.45282L40.5275 12.5354L37.7873 9.79527L40.8699 6.71258ZM13.7353 33.8474C13.9713 33.6114 14.2814 33.4932 14.5916 33.4932C14.9017 33.4932 15.2118 33.6114 15.4478 33.8474L17.3315 35.7312L14.249 38.8137L11.5089 36.0736L13.7353 33.8474ZM9.79635 37.7863L12.5365 40.5264L9.45378 43.6089L6.71366 40.8688L9.79635 37.7863ZM2.77472 46.5204C2.30257 46.0484 2.30257 45.28 2.77472 44.808L5.00115 42.5816L7.74127 45.3216L4.65858 48.4043L2.77472 46.5204ZM9.96758 52.0006C9.49555 52.4727 8.72721 52.4727 8.25507 52.0006L6.37133 50.1169L9.45402 47.0342L12.1941 49.7743L9.96758 52.0006ZM13.9065 48.0617L11.1664 45.3216L14.2491 42.2389L16.9892 44.979L13.9065 48.0617ZM20.9279 39.3277C21.4003 39.7997 21.4003 40.568 20.928 41.0401L18.7017 43.2665L15.9616 40.5264L19.0442 37.4438L20.9279 39.3277ZM44.7693 36.584C46.5523 36.584 48.2484 37.1487 49.6535 38.1937L38.1723 49.6749C37.1274 48.2699 36.5627 46.5737 36.5627 44.7907C36.5627 42.5987 37.4163 40.5379 38.9664 38.9879C40.5163 37.4376 42.5771 36.584 44.7693 36.584ZM38.8961 30.7139C39.553 31.3708 39.9148 32.2443 39.9148 33.1734C39.9148 34.1025 39.5531 34.9758 38.8961 35.6329L35.6338 38.8952C34.9769 39.5522 34.1034 39.914 33.1743 39.914C32.2452 39.914 31.3719 39.5521 30.7149 38.8951L15.8802 24.0604C14.5241 22.7044 14.5241 20.4977 15.8802 19.1417L19.1426 15.8793C19.7996 15.2223 20.6729 14.8605 21.602 14.8605C22.5312 14.8605 23.4045 15.2223 24.0616 15.8793L31.4786 23.2963C31.4787 23.2964 31.4788 23.2965 31.4788 23.2966C31.4788 23.2968 31.4791 23.2968 31.4792 23.2969L38.8961 30.7139ZM33.8483 15.4466C33.6197 15.218 33.4937 14.9139 33.4937 14.5905C33.4937 14.2669 33.6197 13.9628 33.8484 13.7342L36.0746 11.5079L38.8147 14.248L35.7321 17.3307L33.8483 15.4466Z" fill="#0078FF"/>
</svg>
