<svg id="Layer_1" data-name="Layer 1" xmlns="http://www.w3.org/2000/svg" viewBox="0 0 24 24" stroke-width="1.5" width="24" height="24" color="#000000"><defs><style>.cls-637b82edf95e86b59c57a08e-1{fill:none;stroke:currentColor;stroke-miterlimit:10;}</style></defs><polyline class="cls-637b82edf95e86b59c57a08e-1" points="1.5 23.48 1.5 9.16 12 1.52 22.5 9.16 22.5 23.48"></polyline><path class="cls-637b82edf95e86b59c57a08e-1" d="M7.23,14.89h9.55a1.91,1.91,0,0,1,1.91,1.91v3.82a0,0,0,0,1,0,0H5.32a0,0,0,0,1,0,0V16.8a1.91,1.91,0,0,1,1.91-1.91Z"></path><line class="cls-637b82edf95e86b59c57a08e-1" x1="10.09" y1="17.75" x2="8.18" y2="17.75"></line><line class="cls-637b82edf95e86b59c57a08e-1" x1="15.82" y1="17.75" x2="13.91" y2="17.75"></line><rect class="cls-637b82edf95e86b59c57a08e-1" x="7.23" y="20.61" width="0.95" height="1.91"></rect><rect class="cls-637b82edf95e86b59c57a08e-1" x="15.82" y="20.61" width="0.95" height="1.91"></rect><path class="cls-637b82edf95e86b59c57a08e-1" d="M16.77,14.89H7.23l.59-2.38a1.9,1.9,0,0,1,1.85-1.44h4.66a1.9,1.9,0,0,1,1.85,1.44Z"></path></svg>