<svg width="62" height="62" viewBox="0 0 62 62" fill="none" xmlns="http://www.w3.org/2000/svg">
<path d="M58.9 8.2666H3.1C1.3879 8.2666 0 9.6545 0 11.3666V44.4333C0 46.1454 1.3879 47.5333 3.1 47.5333H20.8031L18.0472 51.6666H12.4C11.8293 51.6666 11.3667 52.1293 11.3667 52.6999C11.3667 53.2706 11.8293 53.7333 12.4 53.7333H49.6C50.1707 53.7333 50.6333 53.2706 50.6333 52.6999C50.6333 52.1293 50.1707 51.6666 49.6 51.6666H43.9528L41.1969 47.5333H58.9C60.6121 47.5333 62 46.1454 62 44.4333V11.3666C62 9.6545 60.6121 8.2666 58.9 8.2666ZM41.4687 51.6666H20.5313L23.2862 47.5333H38.7138L41.4687 51.6666ZM59.9333 44.4333C59.9333 45.0039 59.4707 45.4666 58.9 45.4666H3.1C2.52934 45.4666 2.06667 45.0039 2.06667 44.4333V11.3666C2.06667 10.7959 2.52934 10.3333 3.1 10.3333H58.9C59.4707 10.3333 59.9333 10.7959 59.9333 11.3666V44.4333Z" fill="#0078FF"/>
<path d="M3.10156 11.3662V44.4329H58.9016V11.3662H3.10156ZM56.8349 42.3662H5.16823V13.4329H56.8349V42.3662Z" fill="#0078FF"/>
</svg>
