<svg width="46" height="49" viewBox="0 0 46 49" fill="none" xmlns="http://www.w3.org/2000/svg">
<path fill-rule="evenodd" clip-rule="evenodd" d="M45.1025 10.6785L23.3058 0.0704675C23.1125 -0.0234892 22.8875 -0.0234892 22.6943 0.0704675L0.897459 10.6785C0.654427 10.7967 0.5 11.0449 0.5 11.3169V37.0793C0.5 37.3513 0.654427 37.5994 0.897459 37.7177L22.6942 48.3257C22.7908 48.3727 22.8955 48.3962 23 48.3962C23.1045 48.3962 23.2091 48.3727 23.3058 48.3257L45.1025 37.7177C45.3456 37.5994 45.5 37.3513 45.5 37.0793V11.317C45.5 11.0448 45.3455 10.7968 45.1025 10.6785ZM23.001 1.49609L43.1803 11.3168L37.3307 14.1637C37.2937 14.1352 37.2546 14.109 37.2116 14.0881L17.1694 4.33417L23.001 1.49609ZM35.7304 14.9423L15.5805 5.1358L11.4619 7.1483L31.6035 16.9508L35.7304 14.9423ZM36.2015 16.2871V23.7116L32.3467 25.5877V18.1632L36.2015 16.2871ZM23.703 46.5577L44.0934 36.6344V12.4464L37.6079 15.6027V24.1567C37.6079 24.4288 37.4535 24.6768 37.2105 24.7951L31.9492 27.3556C31.8523 27.4028 31.7478 27.4261 31.6435 27.4261C31.5133 27.4261 31.3834 27.3897 31.2696 27.3177C31.0646 27.1879 30.9402 26.9612 30.9402 26.7172V18.2102C30.9388 18.2083 30.9373 18.2065 30.9359 18.2047C30.934 18.2024 30.9322 18.2001 30.9304 18.1977L9.8063 7.91699L2.82053 11.3168L18.0447 18.7262C18.3945 18.8964 18.5411 19.3202 18.3723 19.6728C18.251 19.9261 17.9999 20.0737 17.7385 20.0737C17.636 20.0737 17.5319 20.051 17.4333 20.003L1.90625 12.4463V36.6342L22.2966 46.5577V22.3698L20.4384 21.4655C20.0887 21.2952 19.942 20.8714 20.1109 20.5188C20.2798 20.1662 20.7001 20.0182 21.0499 20.1886L22.9998 21.1377L27.9553 18.7259C28.3051 18.5555 28.7254 18.7036 28.8943 19.0561C29.0632 19.4087 28.9165 19.8325 28.5668 20.0027L23.703 22.3698V46.5577Z" fill="#111827"/>
<path d="M7.77478 33.6571L4.82622 32.3243C4.50366 32.1783 4.11628 32.3051 3.96062 32.6069C3.80496 32.9088 3.94014 33.2717 4.26252 33.4175L7.21109 34.7503C7.30192 34.7914 7.39795 34.8108 7.49242 34.8108C7.73338 34.8108 7.96484 34.6844 8.0766 34.4676C8.23234 34.1657 8.09717 33.8029 7.77478 33.6571Z" fill="#111827"/>
<path d="M10.2862 31.8149L4.06937 28.9363C3.71506 28.7722 3.28934 28.9147 3.11831 29.2545C2.94738 29.5943 3.0959 30.0027 3.45011 30.1667L9.6669 33.0453C9.76671 33.0915 9.87221 33.1134 9.97601 33.1134C10.2408 33.1134 10.4951 32.9712 10.6179 32.7272C10.7889 32.3872 10.6404 31.9788 10.2862 31.8149Z" fill="#111827"/>
</svg>

