<svg width="32" height="45" viewBox="0 0 32 45" fill="none" xmlns="http://www.w3.org/2000/svg">
<path fill-rule="evenodd" clip-rule="evenodd" d="M0.875341 0H31.1245C31.4916 0.00020979 31.7892 0.298032 31.7894 0.665478V44.3345C31.7892 44.702 31.4916 44.9998 31.1245 45H0.875341C0.508218 44.9998 0.210659 44.702 0.210449 44.3345V0.665478C0.210659 0.298032 0.508218 0.00020979 0.875341 0ZM16.666 29.5342H30.4608V1.33008H16.666V29.5342ZM15.3353 1.33105V29.5352H1.54053V1.33105H15.3353ZM1.54053 30.8662V43.6692H30.4599V30.8662H1.54053Z" fill="#111827"/>
<path d="M18.3686 24.4743C18.8045 24.4741 19.1578 24.1783 19.158 23.8134V6.97726C19.158 6.61228 18.8046 6.31641 18.3686 6.31641C17.9326 6.31641 17.5791 6.61228 17.5791 6.97726V23.8134C17.5794 24.1783 17.9327 24.4741 18.3686 24.4743Z" fill="#111827"/>
<path d="M13.6313 24.4743C14.0672 24.4741 14.4205 24.1783 14.4207 23.8134V6.97726C14.4207 6.61228 14.0673 6.31641 13.6313 6.31641C13.1953 6.31641 12.8418 6.61228 12.8418 6.97726V23.8134C12.842 24.1783 13.1954 24.4741 13.6313 24.4743Z" fill="#111827"/>
<path d="M20.0902 31.5791H12.6994C12.3423 31.5791 12.0527 31.9326 12.0527 32.3686C12.0527 32.8046 12.3423 33.158 12.6994 33.158H20.0902C20.4474 33.158 20.7369 32.8046 20.7369 32.3686C20.7369 31.9326 20.4474 31.5791 20.0902 31.5791Z" fill="#111827"/>
<path fill-rule="evenodd" clip-rule="evenodd" d="M10.6253 24.4733H4.79537C4.44328 24.4731 4.15792 24.1837 4.15771 23.8266V16.4358C4.15792 16.0787 4.44328 15.7893 4.79537 15.7891H10.6253C10.9774 15.7893 11.2628 16.0787 11.263 16.4358V23.8266C11.2628 24.1837 10.9774 24.4731 10.6253 24.4733ZM7.07425 17.082H5.43457V23.1795H9.98923V17.082H8.34955V18.6526C8.34955 19.0097 8.06406 19.2993 7.7119 19.2993C7.35973 19.2993 7.07425 19.0097 7.07425 18.6526V17.082Z" fill="#111827"/>
</svg>

