<svg width="52" height="52" viewBox="0 0 52 52" fill="none" xmlns="http://www.w3.org/2000/svg">
<path d="M10.0055 52C7.72999 52 5.57902 50.7323 4.70731 48.6568C3.46201 45.7063 5.01297 42.4978 7.74131 41.4208L13.9904 38.919C14.4546 38.7283 14.8282 38.3693 15.032 37.9094L17.0924 33.1639C17.3754 32.5132 18.349 32.7151 18.349 33.4219V39.839C18.349 40.5458 17.9188 41.1852 17.2509 41.4432L9.2017 44.6181L9.07717 44.6406C8.06961 45.0332 7.50357 46.2336 7.97904 47.3443C8.29603 48.0623 9.05453 48.4886 9.84699 48.4886H26.0585C26.8283 48.4886 27.451 47.8715 27.451 47.1087C27.451 46.3458 26.8283 45.7288 26.0585 45.7288H20.0924C19.3679 45.7288 19.1867 44.7191 19.866 44.4723L26.1151 42.2173C28.8095 42.251 30.9831 44.4274 30.9831 47.0974C30.9831 47.4452 30.9152 47.7818 30.8586 48.0735L30.768 48.4773H40.153C40.9455 48.4773 41.704 48.051 42.021 47.333C42.4964 46.2336 41.9304 45.0332 40.9228 44.6293L33.2586 41.0618C32.5793 40.7477 32.1378 40.097 32.0812 39.3566L31.651 33.3995C31.651 32.6927 32.6246 32.502 32.9076 33.1414L35.0133 37.9991C35.1831 38.3806 35.4888 38.6835 35.885 38.8405L42.2587 41.3872C44.9983 42.4641 46.5493 45.6727 45.2927 48.6232C44.4097 50.6986 42.2587 51.9663 39.9945 51.9663H10.0055V52ZM39.587 37.3709C38.8964 37.2363 38.319 36.7763 38.0473 36.1368L34.0058 26.758C32.9642 24.3348 30.5642 22.7642 27.8925 22.7642H22.0962C19.4358 22.7642 17.0358 24.3348 15.9829 26.758L11.9414 36.1593C11.6697 36.7875 11.1036 37.2475 10.4244 37.3709L2.08086 39.0088C1.12991 39.1995 0.212916 38.5825 0.0317817 37.6401C-0.149352 36.709 0.461976 35.8115 1.40161 35.6208L8.06961 34.2745C8.63566 34.1623 9.09981 33.7809 9.32623 33.2648L12.7225 25.3894C14.3414 21.6648 18.0094 19.264 22.0962 19.264H27.8925C31.968 19.264 35.6586 21.676 37.2662 25.3894L40.6398 33.1975C40.8889 33.7585 41.3983 34.1736 41.9983 34.297L48.5984 35.6208C49.538 35.8115 50.1494 36.709 49.9682 37.6401C49.7871 38.5825 48.8588 39.1883 47.9191 39.0088L39.5983 37.3821L39.587 37.3709ZM25.0057 17.0427C20.5452 17.0427 16.9112 13.4415 16.9112 9.02134C16.9112 4.60119 20.5452 1 25.0057 1C29.4661 1 33.1001 4.60119 33.1001 9.02134C33.1001 13.4415 29.4661 17.0427 25.0057 17.0427ZM25.0057 4.51144C22.4471 4.51144 20.4547 6.49714 20.4547 9.02134C20.4547 11.5455 22.4585 13.5312 25.0057 13.5312C27.5529 13.5312 29.5567 11.5455 29.5567 9.02134C29.5567 6.49714 27.5529 4.51144 25.0057 4.51144Z" fill="#111827"/>
</svg>
