<svg width="46" height="45" viewBox="0 0 46 45" fill="none" xmlns="http://www.w3.org/2000/svg">
<path d="M40.7631 33.9481C41.1989 33.9481 41.5526 33.5944 41.5526 33.1586C41.5526 32.7229 41.1989 32.3691 40.7631 32.3691C40.3274 32.3691 39.9736 32.7229 39.9736 33.1586C39.9736 33.5944 40.3274 33.9481 40.7631 33.9481Z" fill="#111827"/>
<path fill-rule="evenodd" clip-rule="evenodd" d="M42.8633 45H3.13672C1.68275 45 0.5 43.8173 0.5 42.3633V20.7422C0.5 20.2567 0.893448 19.8633 1.37891 19.8633H13.332V9.66797C13.332 9.18251 13.7255 8.78906 14.2109 8.78906H20.8906C20.8906 3.92864 24.823 0 29.6797 0C34.526 0 38.4688 3.94272 38.4688 8.78906H44.6211C45.1066 8.78906 45.5 9.18251 45.5 9.66797V42.3633C45.5 43.8173 44.3173 45 42.8633 45ZM2.25781 39.1992V42.3633C2.25781 42.8481 2.65195 43.2422 3.13672 43.2422H21.7695C22.2543 43.2422 22.6484 42.8481 22.6484 42.3633V39.1992H2.25781ZM42.8635 43.2422H24.2554C24.3529 42.9672 24.4064 42.6716 24.4064 42.3633V39.1992H43.7424V42.3633C43.7424 42.8481 43.3482 43.2422 42.8635 43.2422ZM36.7109 8.78906C36.7109 4.91192 33.5568 1.75781 29.6797 1.75781C25.7916 1.75781 22.6484 4.90334 22.6484 8.78906H36.7109ZM15.0898 10.5469H20.8906V14.5898H20.0117C19.5263 14.5898 19.1328 14.9833 19.1328 15.4688C19.1328 15.9542 19.5263 16.3477 20.0117 16.3477H23.5273C24.0128 16.3477 24.4062 15.9542 24.4062 15.4688C24.4062 14.9833 24.0128 14.5898 23.5273 14.5898H22.6484V10.5469H36.7109V14.5898H35.832C35.3466 14.5898 34.9531 14.9833 34.9531 15.4688C34.9531 15.9542 35.3466 16.3477 35.832 16.3477H39.3477C39.8331 16.3477 40.2266 15.9542 40.2266 15.4688C40.2266 14.9833 39.8331 14.5898 39.3477 14.5898H38.4688V10.5469H43.7422V37.4414H24.4062V20.7422C24.4062 20.2567 24.0128 19.8633 23.5273 19.8633H15.0898V10.5469ZM22.6484 37.4414V21.6211H2.25781V37.4414H22.6484Z" fill="#111827"/>
<path d="M6.92862 26.9995V28.7364C6.92862 31.6151 9.35132 33.9469 12.3422 33.9469C15.3274 33.9469 17.7557 31.6096 17.7557 28.7364V26.9995C18.254 26.9995 18.6579 26.6108 18.6579 26.1311C18.6579 25.6514 18.254 25.2627 17.7557 25.2627H15.9512C15.4528 25.2627 15.0489 25.6514 15.0489 26.1311C15.0489 26.6108 15.4528 26.9995 15.9512 26.9995V28.7364C15.9512 30.6517 14.3321 32.2101 12.3422 32.2101C10.3487 32.2101 8.73313 30.655 8.73313 28.7364V26.9995C9.23149 26.9995 9.63539 26.6108 9.63539 26.1311C9.63539 25.6514 9.23149 25.2627 8.73313 25.2627H6.92862C6.43027 25.2627 6.02637 25.6514 6.02637 26.1311C6.02637 26.6108 6.43027 26.9995 6.92862 26.9995Z" fill="#111827"/>
<path d="M40.7631 30.0006C41.1992 30.0006 41.5526 29.6119 41.5526 29.1322V22.1848C41.5526 21.7052 41.1992 21.3164 40.7631 21.3164C40.327 21.3164 39.9736 21.7052 39.9736 22.1848V29.1322C39.9736 29.6119 40.327 30.0006 40.7631 30.0006Z" fill="#111827"/>
</svg>
