<svg width="46" height="45" viewBox="0 0 46 45" fill="none" xmlns="http://www.w3.org/2000/svg">
<path fill-rule="evenodd" clip-rule="evenodd" d="M8.22458 6.78649L6.6477 5.57628C6.24911 5.26935 6.06234 4.77221 6.16053 4.27886C6.25872 3.78585 6.62058 3.39858 7.10535 3.26812L9.02658 2.75107L9.68405 0.87516C9.85159 0.400345 10.2656 0.0686954 10.7648 0.00930058C11.264 -0.0497509 11.7447 0.175469 12.0186 0.597412V0.597755L13.1042 2.27008L15.0869 2.31952C15.5888 2.33256 16.0314 2.62439 16.2422 3.08032C16.4533 3.53694 16.3884 4.06394 16.0729 4.45567L14.8226 6.0068L15.3897 7.91499C15.5325 8.39804 15.3918 8.91028 15.022 9.25189C14.653 9.59281 14.1328 9.69271 13.6638 9.51247L11.8058 8.7987L10.175 9.92755C9.95081 10.0817 9.69229 10.16 9.43308 10.16C9.21404 10.16 8.99431 10.1044 8.79381 9.99243C8.35401 9.74696 8.09721 9.2821 8.12296 8.77879L8.22458 6.78649ZM10.266 3.19466C10.1225 3.60219 9.78773 3.91255 9.37128 4.02447L7.4624 4.53843L9.03242 5.74624C9.37402 6.00922 9.56491 6.42361 9.54294 6.85448L9.442 8.83305L11.0676 7.71279C11.4237 7.46766 11.8768 7.41341 12.2802 7.56859L14.1232 8.27687L13.5612 6.37692C13.4386 5.96322 13.5272 5.51552 13.7977 5.1801L15.0412 3.63789L13.0651 3.58536C12.6335 3.57403 12.2356 3.35087 12.0004 2.98867L10.9238 1.33008L10.266 3.19466Z" fill="#111827"/>
<path fill-rule="evenodd" clip-rule="evenodd" d="M31.1074 14.1399C30.8657 13.7629 30.8599 13.2915 31.0916 12.9091C31.3244 12.5256 31.7463 12.3117 32.1961 12.3522L33.6731 12.4847L34.6144 11.3545C34.9001 11.0115 35.3481 10.8625 35.7838 10.9659C36.2191 11.0689 36.5529 11.4029 36.6545 11.8375L36.9889 13.2699L38.3683 13.8141C38.7872 13.9792 39.0698 14.3599 39.1058 14.8073C39.1415 15.2529 38.9245 15.6718 38.5393 15.9001L37.2735 16.652L37.1835 18.1142C37.1564 18.5584 36.8838 18.9423 36.4725 19.1153C36.3245 19.1774 36.1694 19.208 36.0156 19.208C35.7395 19.208 35.4683 19.1098 35.2503 18.921L34.129 17.9514L32.6922 18.3154C32.2565 18.4252 31.8047 18.2817 31.5129 17.9405C31.2228 17.6012 31.151 17.1364 31.3261 16.7268L31.9019 15.3796L31.1074 14.1399ZM34.6345 13.3888C34.389 13.6834 34.0145 13.8392 33.631 13.8046L32.3857 13.693L33.0545 14.7367C33.2629 15.0618 33.2969 15.4676 33.1452 15.8219L32.6573 16.9638L33.8775 16.6548C33.9726 16.6308 34.0691 16.6191 34.1652 16.6191C34.444 16.6191 34.7176 16.7183 34.9332 16.9048L35.8852 17.7284L35.9611 16.4887C35.9848 16.1041 36.197 15.7567 36.529 15.56L37.595 14.9269L36.4321 14.4682C36.0744 14.3271 35.8087 14.0202 35.7218 13.6463L35.4368 12.4258L34.6345 13.3888Z" fill="#111827"/>
<path fill-rule="evenodd" clip-rule="evenodd" d="M45.5 31.7285V20.8301C45.5 19.7397 44.6128 18.8525 43.5224 18.8525C42.432 18.8525 41.5449 19.7397 41.5449 20.8301V22.5C41.5449 22.8639 41.8398 23.1592 42.2041 23.1592C42.5683 23.1592 42.8633 22.8639 42.8633 22.5V20.8301C42.8633 20.4665 43.1589 20.1709 43.5224 20.1709C43.886 20.1709 44.1816 20.4665 44.1816 20.8301V31.7285C44.1816 32.0921 43.886 32.3877 43.5224 32.3877H33.5029C33.1393 32.3877 32.8437 32.0921 32.8437 31.7285C32.8437 31.3649 33.1393 31.0693 33.5029 31.0693H42.2041C42.5683 31.0693 42.8633 30.7741 42.8633 30.4101V25.2977C42.8633 24.9335 42.5683 24.6386 42.2041 24.6386C41.8398 24.6386 41.5449 24.9335 41.5449 25.2977V29.751H37.9929V25.9298C37.9929 24.596 36.9073 23.5107 35.5735 23.5107H28.6267C28.3404 21.206 26.5747 19.3555 24.3118 18.9411C24.3722 18.7609 24.4062 18.5693 24.4062 18.3691C24.4062 17.3756 23.5981 16.5674 22.6045 16.5674C21.6109 16.5674 20.8027 17.3756 20.8027 18.3691C20.8027 18.569 20.8367 18.7609 20.8971 18.9411C18.6343 19.3555 16.8686 21.206 16.5823 23.5107H10.9686C9.63478 23.5107 8.5492 24.596 8.5492 25.9298V29.751H4.45508V20.8301C4.45508 19.7397 3.56793 18.8525 2.47754 18.8525C1.38715 18.8525 0.5 19.7397 0.5 20.8301V31.7285C0.5 32.8041 1.36346 33.6813 2.43359 33.7047V34.4147C2.43359 34.7786 2.72885 35.0738 3.09277 35.0738C3.45669 35.0738 3.75195 34.7786 3.75195 34.4147V33.706H11.0469V41.0449H3.75195V37.2601C3.75195 36.8959 3.45669 36.6009 3.09277 36.6009C2.72885 36.6009 2.43359 36.8959 2.43359 37.2601V41.0459C1.36346 41.0696 0.5 41.9468 0.5 43.0224C0.5 44.1128 1.38715 45 2.47754 45H43.5224C44.6128 45 45.5 44.1128 45.5 43.0224C45.5 41.9468 44.6365 41.0696 43.5664 41.0459V33.705C44.6365 33.6813 45.5 32.8041 45.5 31.7285ZM42.248 33.706V41.0449H34.9531V33.706H42.248ZM33.6332 33.706H33.5014C32.411 33.706 31.5239 32.8189 31.5239 31.7285C31.5239 31.4974 31.564 31.2757 31.6372 31.0693H24.976V41.0449H33.6332V33.706ZM22.3393 31.0693H23.6576V41.0449H22.3393V31.0693ZM23.0879 18.3691C23.0879 18.1024 22.8709 17.8857 22.6045 17.8857C22.3381 17.8857 22.1211 18.1024 22.1211 18.3691C22.1211 18.6355 22.3381 18.8525 22.6045 18.8525C22.8709 18.8525 23.0879 18.6355 23.0879 18.3691ZM21.8564 20.1709H23.3505C25.3312 20.1709 26.9801 21.6183 27.2953 23.5107H17.9116C18.2268 21.6183 19.8758 20.1709 21.8564 20.1709ZM1.81836 31.7285C1.81836 32.0921 2.11396 32.3877 2.47754 32.3877H12.4971C12.8606 32.3877 13.1562 32.0921 13.1562 31.7285C13.1562 31.3649 12.8606 31.0693 12.4971 31.0693H3.7959C3.43197 31.0693 3.13672 30.7741 3.13672 30.4101V20.8301C3.13672 20.4665 2.84112 20.1709 2.47754 20.1709C2.11396 20.1709 1.81836 20.4665 1.81836 20.8301V31.7285ZM12.3655 33.706H12.4973C13.5877 33.706 14.4749 32.8189 14.4749 31.7285C14.4749 31.4975 14.4347 31.2757 14.3616 31.0693H17.3753C17.7392 31.0693 18.0344 30.7741 18.0344 30.4102C18.0344 30.0459 17.7392 29.751 17.3753 29.751H9.86816V25.9298C9.86816 25.3228 10.3619 24.8291 10.9689 24.8291H35.5737C36.1807 24.8291 36.6748 25.3228 36.6748 25.9298V29.751H20.1878C19.8238 29.751 19.5286 30.0459 19.5286 30.4102C19.5286 30.7741 19.8238 31.0693 20.1878 31.0693H21.0227V41.0449H12.3655V33.706ZM43.5224 43.6816C43.886 43.6816 44.1816 43.386 44.1816 43.0224C44.1816 42.6589 43.886 42.3633 43.5224 42.3633H2.47754C2.11396 42.3633 1.81836 42.6589 1.81836 43.0224C1.81836 43.386 2.11396 43.6816 2.47754 43.6816H43.5224Z" fill="#111827"/>
<path fill-rule="evenodd" clip-rule="evenodd" d="M7.25195 17.1719C7.25195 15.8391 8.33617 14.7549 9.66894 14.7549C11.0017 14.7549 12.0859 15.8391 12.0859 17.1719C12.0859 18.5043 11.0017 19.5889 9.66894 19.5889C8.33617 19.5889 7.25195 18.5043 7.25195 17.1719ZM8.57031 17.1719C8.57031 17.7775 9.06298 18.2705 9.66894 18.2705C10.2749 18.2705 10.7676 17.7775 10.7676 17.1719C10.7676 16.5659 10.2749 16.0732 9.66894 16.0732C9.06298 16.0732 8.57031 16.5659 8.57031 17.1719Z" fill="#111827"/>
<path fill-rule="evenodd" clip-rule="evenodd" d="M33.6226 5.80957C33.6226 7.14235 32.5383 8.22656 31.2056 8.22656C29.8731 8.22656 28.7886 7.14235 28.7886 5.80957C28.7886 4.47713 29.8731 3.39258 31.2056 3.39258C32.5383 3.39258 33.6226 4.47713 33.6226 5.80957ZM32.3042 5.80957C32.3042 5.20395 31.8115 4.71094 31.2056 4.71094C30.5999 4.71094 30.1069 5.20395 30.1069 5.80957C30.1069 6.41553 30.5999 6.9082 31.2056 6.9082C31.8115 6.9082 32.3042 6.41553 32.3042 5.80957Z" fill="#111827"/>
</svg>
