<svg width="62" height="62" viewBox="0 0 62 62" fill="none" xmlns="http://www.w3.org/2000/svg">
<g clip-path="url(#clip0_1_343)">
<path d="M61.09 31.9707C61.5926 31.9707 62 31.5632 62 31.0607V0.91002C62 0.40748 61.5926 0 61.09 0H0.91002C0.407359 0 0 0.40748 0 0.91002V61.0901C0 61.5925 0.407359 62 0.91002 62H61.0901C61.5928 62 62.0001 61.5925 62.0001 61.09V35.4892C62.0001 34.9866 61.5928 34.5792 61.0901 34.5792C60.5874 34.5792 60.1801 34.9866 60.1801 35.4892V50.4736H1.81992V1.81992H60.18V31.0607C60.1801 31.5632 60.5873 31.9707 61.09 31.9707ZM60.1801 52.2935V60.18H1.81992V52.2935H60.1801Z" fill="#111827"/>
<path d="M26.1468 13.5886H24.0893C23.6727 10.0666 20.8723 7.26617 17.3503 6.8496V4.7921C17.3503 4.28956 16.9429 3.88208 16.4403 3.88208C15.9376 3.88208 15.5302 4.28956 15.5302 4.7921V6.8496C12.0082 7.26617 9.20782 10.0666 8.79125 13.5886H6.73387C6.23121 13.5886 5.82385 13.9961 5.82385 14.4986C5.82385 15.0012 6.23121 15.4086 6.73387 15.4086H8.79138C9.20794 18.9306 12.0084 21.7311 15.5304 22.1476V24.2051C15.5304 24.7077 15.9377 25.1151 16.4404 25.1151C16.943 25.1151 17.3504 24.7077 17.3504 24.2051V22.1476C20.8724 21.7311 23.6728 18.9306 24.0894 15.4086H26.1469C26.6496 15.4086 27.0569 15.0012 27.0569 14.4986C27.0567 13.9961 26.6494 13.5886 26.1468 13.5886ZM21.2935 15.4086H22.2541C21.8616 17.9262 19.8677 19.9201 17.3502 20.3126V19.3519C17.3502 18.8494 16.9428 18.4419 16.4401 18.4419C15.9375 18.4419 15.5301 18.8494 15.5301 19.3519V20.3126C13.0126 19.9201 11.0187 17.9262 10.6262 15.4086H11.5868C12.0895 15.4086 12.4968 15.0012 12.4968 14.4986C12.4968 13.9961 12.0895 13.5886 11.5868 13.5886H10.6262C11.0187 11.0711 13.0126 9.07712 15.5301 8.68466V9.6453C15.5301 10.1478 15.9375 10.5553 16.4401 10.5553C16.9428 10.5553 17.3502 10.1478 17.3502 9.6453V8.68466C19.8677 9.07712 21.8616 11.0711 22.2541 13.5886H21.2935C20.7908 13.5886 20.3834 13.9961 20.3834 14.4986C20.3836 15.0012 20.7908 15.4086 21.2935 15.4086Z" fill="#111827"/>
<path d="M55.2662 13.5886H53.2087C52.7921 10.0666 49.9917 7.26617 46.4697 6.8496V4.7921C46.4697 4.28956 46.0623 3.88208 45.5596 3.88208C45.057 3.88208 44.6496 4.28956 44.6496 4.7921V6.8496C41.1276 7.26617 38.3272 10.0666 37.9106 13.5886H35.8531C35.3505 13.5886 34.9431 13.9961 34.9431 14.4986C34.9431 15.0012 35.3505 15.4086 35.8531 15.4086H37.9106C38.3272 18.9306 41.1276 21.7311 44.6496 22.1476V24.2051C44.6496 24.7077 45.057 25.1151 45.5596 25.1151C46.0623 25.1151 46.4697 24.7077 46.4697 24.2051V22.1476C49.9917 21.7311 52.7921 18.9306 53.2087 15.4086H55.2662C55.7688 15.4086 56.1762 15.0012 56.1762 14.4986C56.1762 13.9961 55.7688 13.5886 55.2662 13.5886ZM50.413 15.4086H51.3736C50.9811 17.9262 48.9872 19.9201 46.4697 20.3126V19.3519C46.4697 18.8494 46.0623 18.4419 45.5596 18.4419C45.057 18.4419 44.6496 18.8494 44.6496 19.3519V20.3126C42.1321 19.9201 40.1382 17.9262 39.7457 15.4086H40.7063C41.209 15.4086 41.6164 15.0012 41.6164 14.4986C41.6164 13.9961 41.209 13.5886 40.7063 13.5886H39.7457C40.1382 11.0711 42.1321 9.07712 44.6496 8.68466V9.6453C44.6496 10.1478 45.057 10.5553 45.5596 10.5553C46.0623 10.5553 46.4697 10.1478 46.4697 9.6453V8.68466C48.9872 9.07712 50.9811 11.0711 51.3736 13.5886H50.413C49.9103 13.5886 49.5029 13.9961 49.5029 14.4986C49.5029 15.0012 49.9103 15.4086 50.413 15.4086Z" fill="#111827"/>
<path d="M55.2662 36.8845H53.2087C52.7921 33.3625 49.9917 30.5621 46.4697 30.1455V28.088C46.4697 27.5855 46.0623 27.178 45.5596 27.178C45.057 27.178 44.6496 27.5855 44.6496 28.088V30.1455C41.1276 30.5621 38.3272 33.3625 37.9106 36.8845H35.8531C35.3505 36.8845 34.9431 37.292 34.9431 37.7945C34.9431 38.297 35.3505 38.7045 35.8531 38.7045H37.9106C38.3272 42.2265 41.1276 45.027 44.6496 45.4435V47.501C44.6496 48.0036 45.057 48.411 45.5596 48.411C46.0623 48.411 46.4697 48.0036 46.4697 47.501V45.4435C49.9917 45.027 52.7921 42.2265 53.2087 38.7045H55.2662C55.7688 38.7045 56.1762 38.297 56.1762 37.7945C56.1762 37.2918 55.7688 36.8845 55.2662 36.8845ZM50.413 38.7044H51.3736C50.9811 41.2219 48.9872 43.2159 46.4697 43.6083V42.6477C46.4697 42.1452 46.0623 41.7377 45.5596 41.7377C45.057 41.7377 44.6496 42.1452 44.6496 42.6477V43.6083C42.1321 43.2159 40.1382 41.2219 39.7457 38.7044H40.7063C41.209 38.7044 41.6164 38.2969 41.6164 37.7944C41.6164 37.2919 41.209 36.8844 40.7063 36.8844H39.7457C40.1382 34.3668 42.1321 32.3729 44.6496 31.9804V32.9411C44.6496 33.4436 45.057 33.8511 45.5596 33.8511C46.0623 33.8511 46.4697 33.4436 46.4697 32.9411V31.9804C48.9872 32.3729 50.9811 34.3668 51.3736 36.8844H50.413C49.9103 36.8844 49.5029 37.2919 49.5029 37.7944C49.5029 38.2971 49.9103 38.7044 50.413 38.7044Z" fill="#111827"/>
<path d="M26.1468 36.8845H24.0893C23.6727 33.3625 20.8723 30.5621 17.3503 30.1455V28.088C17.3503 27.5855 16.9429 27.178 16.4403 27.178C15.9376 27.178 15.5302 27.5855 15.5302 28.088V30.1455C12.0082 30.5621 9.20782 33.3625 8.79125 36.8845H6.73387C6.23121 36.8845 5.82385 37.292 5.82385 37.7945C5.82385 38.297 6.23121 38.7045 6.73387 38.7045H8.79138C9.20794 42.2265 12.0084 45.027 15.5304 45.4435V47.501C15.5304 48.0036 15.9377 48.411 16.4404 48.411C16.943 48.411 17.3504 48.0036 17.3504 47.501V45.4435C20.8724 45.027 23.6728 42.2265 24.0894 38.7045H26.1469C26.6496 38.7045 27.0569 38.297 27.0569 37.7945C27.0567 37.2918 26.6494 36.8845 26.1468 36.8845ZM21.2935 38.7044H22.2541C21.8616 41.2219 19.8677 43.2159 17.3502 43.6083V42.6477C17.3502 42.1452 16.9428 41.7377 16.4401 41.7377C15.9375 41.7377 15.5301 42.1452 15.5301 42.6477V43.6083C13.0126 43.2159 11.0187 41.2219 10.6262 38.7044H11.5868C12.0895 38.7044 12.4968 38.2969 12.4968 37.7944C12.4968 37.2919 12.0895 36.8844 11.5868 36.8844H10.6262C11.0187 34.3668 13.0126 32.3729 15.5301 31.9804V32.9411C15.5301 33.4436 15.9375 33.8511 16.4401 33.8511C16.9428 33.8511 17.3502 33.4436 17.3502 32.9411V31.9804C19.8677 32.3729 21.8616 34.3668 22.2541 36.8844H21.2935C20.7908 36.8844 20.3834 37.2919 20.3834 37.7944C20.3836 38.2971 20.7908 38.7044 21.2935 38.7044Z" fill="#111827"/>
<path d="M35.8532 54.3557H26.1467C25.6441 54.3557 25.2367 54.7632 25.2367 55.2657V58.1777C25.2367 58.6802 25.6441 59.0877 26.1467 59.0877H35.8532C36.3559 59.0877 36.7632 58.6802 36.7632 58.1777V55.2657C36.7632 54.7631 36.3559 54.3557 35.8532 54.3557ZM34.9433 57.2677H27.0569V56.1756H34.9433V57.2677Z" fill="#111827"/>
<path d="M41.6771 53.386C40.1049 53.386 38.8258 54.6651 38.8258 56.2373C38.8258 57.8094 40.1049 59.0885 41.6771 59.0885C43.2492 59.0885 44.5284 57.8094 44.5284 56.2373C44.5284 54.6651 43.2494 53.386 41.6771 53.386ZM41.6771 57.2686C41.1084 57.2686 40.6457 56.806 40.6457 56.2373C40.6457 55.6685 41.1083 55.2059 41.6771 55.2059C42.2457 55.2059 42.7084 55.6685 42.7084 56.2373C42.7084 56.806 42.2457 57.2686 41.6771 57.2686Z" fill="#111827"/>
<path d="M49.4422 53.386C47.8701 53.386 46.5909 54.6651 46.5909 56.2373C46.5909 57.8094 47.8701 59.0885 49.4422 59.0885C51.0144 59.0885 52.2935 57.8094 52.2935 56.2373C52.2935 54.6651 51.0145 53.386 49.4422 53.386ZM49.4422 57.2686C48.8736 57.2686 48.4109 56.806 48.4109 56.2373C48.4109 55.6685 48.8734 55.2059 49.4422 55.2059C50.0109 55.2059 50.4736 55.6685 50.4736 56.2373C50.4736 56.806 50.011 57.2686 49.4422 57.2686Z" fill="#111827"/>
<path d="M12.5578 53.386C10.9857 53.386 9.70654 54.6651 9.70654 56.2373C9.70654 57.8094 10.9857 59.0885 12.5578 59.0885C14.13 59.0885 15.4091 57.8094 15.4091 56.2373C15.4091 54.6651 14.13 53.386 12.5578 53.386ZM12.5578 57.2686C11.9892 57.2686 11.5265 56.806 11.5265 56.2373C11.5265 55.6685 11.989 55.2059 12.5578 55.2059C13.1266 55.2059 13.5892 55.6685 13.5892 56.2373C13.5892 56.806 13.1265 57.2686 12.5578 57.2686Z" fill="#111827"/>
<path d="M20.323 53.386C18.7508 53.386 17.4717 54.6651 17.4717 56.2373C17.4717 57.8094 18.7508 59.0885 20.323 59.0885C21.8951 59.0885 23.1742 57.8094 23.1742 56.2373C23.1742 54.6651 21.8951 53.386 20.323 53.386ZM20.323 57.2686C19.7543 57.2686 19.2916 56.806 19.2916 56.2373C19.2916 55.6685 19.7542 55.2059 20.323 55.2059C20.8917 55.2059 21.3543 55.6685 21.3543 56.2373C21.3543 56.806 20.8916 57.2686 20.323 57.2686Z" fill="#111827"/>
</g>
<defs>
<clipPath id="clip0_1_343">
<rect width="62" height="62" fill="white"/>
</clipPath>
</defs>
</svg>
