<svg width="42" height="45" viewBox="0 0 42 45" fill="none" xmlns="http://www.w3.org/2000/svg">
<path fill-rule="evenodd" clip-rule="evenodd" d="M18.561 9.54336L14.3301 8.41099C13.8676 8.28722 13.3489 8.38977 12.9763 8.67854C12.6929 8.89801 12.5164 9.20898 12.478 9.54845L12.0093 11.2957C11.8712 11.6154 11.87 11.98 12.0099 12.3171C12.0559 12.4281 12.116 12.5332 12.1877 12.6306C11.7398 13.562 11.2292 14.7106 10.6932 15.9886L10.6914 15.9929C10.2232 17.1094 9.73597 18.3238 9.25471 19.5778C7.61402 20.0223 5.52183 21.9404 4.91314 24.2088L0.885795 39.222C0.498237 40.667 1.44996 42.1816 3.00731 42.5984L7.13029 43.7019L7.13047 43.702L11.2533 44.8054C11.5215 44.8771 11.7939 44.9128 12.0638 44.9128C12.5337 44.9128 12.9958 44.8049 13.4138 44.5928C14.1034 44.2428 14.5888 43.6561 14.7807 42.9408L15.3347 40.8757L15.335 40.8748L15.3352 40.874L18.8082 27.9278C19.4168 25.6592 18.5649 22.9534 17.3666 21.7489C17.6685 19.8502 17.9195 18.0151 18.0968 16.4303L18.0984 16.4165C18.1871 15.6224 18.2571 14.892 18.3058 14.2477C18.686 14.0616 18.9876 13.7199 19.1056 13.2804L19.6178 11.3713C19.8308 10.5763 19.3567 9.75635 18.561 9.54336ZM13.0848 42.4865C13.0236 42.7145 12.8582 42.907 12.6188 43.0285C12.3478 43.166 12.0246 43.1952 11.7085 43.1106L7.58578 42.0073L7.5856 42.0072L3.46262 40.9037C2.85129 40.7401 2.44854 40.1778 2.58308 39.6759L2.91004 38.457L13.4118 41.2677L13.0848 42.4865ZM3.36377 36.7621L13.8656 39.5729L16.8842 28.3205L6.38248 25.5098L3.36377 36.7621ZM17.2467 26.6015L6.9292 23.84C7.6907 22.3386 9.23602 21.2521 9.91884 21.2349C10.2755 21.2259 10.5914 21.0022 10.7179 20.669C11.1743 19.4669 11.6382 18.2962 12.0872 17.209H16.2373C16.0926 18.3868 15.9126 19.6744 15.7058 21.0045L15.4911 20.9471C15.0224 20.8216 14.541 21.0993 14.4155 21.5673C14.29 22.0353 14.568 22.5163 15.0365 22.6416L16.0446 22.9115C16.6168 23.3682 17.3347 24.9989 17.2467 26.6015ZM17.4505 12.628C17.4544 12.6278 17.4584 12.6275 17.4623 12.6274L17.8531 11.1706L14.1287 10.1738L13.7375 11.6305C13.7408 11.6325 13.7441 11.6346 13.7473 11.6368C13.7495 11.6383 13.7518 11.6398 13.7541 11.6413C13.7585 11.644 13.7627 11.6468 13.767 11.6496C13.7688 11.6508 13.7705 11.652 13.7723 11.6531C13.7892 11.6643 13.8055 11.6758 13.8214 11.688L13.8244 11.6903C13.8301 11.6947 13.8358 11.699 13.8413 11.7035C13.8565 11.7158 13.8711 11.7287 13.8853 11.742C13.8875 11.744 13.8897 11.7459 13.8918 11.7478C13.8954 11.751 13.899 11.7542 13.9025 11.7576C13.9207 11.7754 13.9381 11.794 13.9546 11.8133C13.9587 11.8179 13.9624 11.8228 13.9661 11.8276C13.968 11.8301 13.97 11.8327 13.972 11.8352C13.9825 11.8483 13.9928 11.8614 14.0025 11.875C14.0089 11.8841 14.015 11.8934 14.021 11.9027C14.0295 11.9156 14.0376 11.9286 14.0454 11.9418C14.0507 11.951 14.056 11.9602 14.061 11.9696C14.0691 11.9845 14.0764 11.9997 14.0836 12.0151C14.0848 12.0177 14.086 12.0204 14.0873 12.023C14.0898 12.0283 14.0923 12.0336 14.0946 12.039C14.1041 12.061 14.1128 12.0836 14.1204 12.1064L14.1221 12.1109C14.1305 12.1366 14.1377 12.1628 14.1438 12.1893L14.1459 12.2002C14.1507 12.2223 14.1546 12.2444 14.1576 12.2668C14.1586 12.2741 14.1593 12.2814 14.1601 12.2887C14.1621 12.3073 14.1637 12.3261 14.1644 12.3451C14.1649 12.3541 14.1651 12.3632 14.1652 12.3722L14.1652 12.3723C14.1655 12.3894 14.1651 12.4065 14.1643 12.4237C14.1638 12.4339 14.1635 12.4442 14.1626 12.4544C14.1614 12.4703 14.1592 12.4862 14.1571 12.5021L14.157 12.5027C14.1565 12.5063 14.156 12.5099 14.1556 12.5136C14.1547 12.5208 14.1538 12.5281 14.1525 12.5353C14.1486 12.5575 14.1435 12.5798 14.1378 12.602C14.1308 12.6291 14.1224 12.6559 14.1127 12.6826C14.1118 12.685 14.1111 12.6874 14.1103 12.6898C14.1096 12.6923 14.1089 12.6947 14.108 12.6971C14.1071 12.6992 14.1062 12.7014 14.1052 12.7035C14.1042 12.7056 14.1032 12.7077 14.1024 12.7099C14.0928 12.7339 14.0825 12.7576 14.071 12.7804C13.7068 13.5001 13.2841 14.413 12.8301 15.4552H16.4346C16.5104 14.706 16.5659 14.0314 16.5979 13.4571C16.5994 13.4307 16.6025 13.4042 16.6063 13.3777C16.6068 13.375 16.6069 13.3722 16.6072 13.3695C16.6073 13.3684 16.6075 13.3673 16.6077 13.3662C16.6082 13.3631 16.6089 13.3601 16.6096 13.357C16.6102 13.3544 16.6108 13.3517 16.6113 13.3491C16.6162 13.322 16.6221 13.2952 16.6293 13.269C16.6355 13.2469 16.6423 13.2251 16.65 13.2039C16.6538 13.1931 16.6586 13.1827 16.663 13.1721C16.6689 13.1577 16.6748 13.1433 16.6814 13.1293C16.6858 13.1202 16.6904 13.1114 16.695 13.1025L16.6964 13.1C16.7039 13.0856 16.7116 13.0713 16.7199 13.0574C16.725 13.0489 16.7303 13.0404 16.7356 13.0321C16.7452 13.0172 16.7552 13.0026 16.7656 12.9884C16.7707 12.9815 16.7756 12.9746 16.7808 12.968C16.7935 12.9516 16.8068 12.9358 16.8206 12.9204C16.8222 12.9187 16.8237 12.9169 16.8252 12.9152C16.8272 12.9127 16.8293 12.9103 16.8315 12.908C16.8497 12.8886 16.8685 12.8699 16.8882 12.8522C16.8897 12.8508 16.8913 12.8495 16.8929 12.8483C16.894 12.8474 16.8951 12.8465 16.8962 12.8455C16.913 12.8308 16.9302 12.8168 16.9481 12.8035C16.9556 12.7978 16.9634 12.7926 16.9711 12.7872C16.9846 12.7778 16.9981 12.7686 17.0121 12.76C17.0213 12.7543 17.0307 12.7487 17.0401 12.7434C17.0535 12.7358 17.0671 12.7286 17.0808 12.7216C17.0905 12.7167 17.1002 12.7118 17.1101 12.7073C17.1261 12.7 17.1424 12.6934 17.1588 12.687C17.1622 12.6857 17.1656 12.6843 17.1689 12.683C17.1734 12.6812 17.1778 12.6794 17.1823 12.6778C17.2067 12.6691 17.2315 12.6616 17.2567 12.6551C17.2603 12.6542 17.2639 12.6535 17.2675 12.6527C17.2699 12.6522 17.2724 12.6517 17.2748 12.6511C17.2955 12.6463 17.3162 12.6421 17.3372 12.6387C17.3428 12.6379 17.3484 12.6371 17.354 12.6364C17.3556 12.6362 17.3572 12.636 17.3589 12.6358C17.3799 12.633 17.401 12.6309 17.4224 12.6296C17.4288 12.6292 17.4351 12.6287 17.4416 12.6286C17.4446 12.6285 17.4476 12.6282 17.4505 12.628Z" fill="#111827"/>
<path d="M12.9901 20.2774L12.9695 20.272C12.501 20.1473 12.0196 20.4254 11.8947 20.8935C11.7696 21.3616 12.0482 21.8423 12.5169 21.9671L12.5374 21.9726C12.6132 21.9928 12.6894 22.0024 12.7643 22.0024C13.1524 22.0024 13.5075 21.7434 13.6123 21.351C13.7373 20.8829 13.4587 20.4023 12.9901 20.2774Z" fill="#111827"/>
<path fill-rule="evenodd" clip-rule="evenodd" d="M10.9801 29.3467C11.8345 29.5754 12.5486 30.1226 12.9909 30.8878C13.4332 31.6528 13.5507 32.5441 13.3216 33.3973C12.9344 34.8411 11.6197 35.8494 10.1247 35.8494C9.83596 35.8494 9.54712 35.8113 9.26626 35.7361C8.41193 35.5075 7.69785 34.9602 7.25558 34.1952C6.81331 33.4301 6.69589 32.5388 6.92484 31.6854C7.31196 30.2417 8.62657 29.2334 10.1216 29.2334C10.4104 29.2334 10.6993 29.2716 10.9801 29.3467ZM10.1249 34.0946C10.8264 34.0946 11.4434 33.6211 11.6253 32.943C11.7327 32.5423 11.6775 32.1238 11.47 31.7645C11.2623 31.4052 10.927 31.1482 10.5258 31.0408C10.393 31.0053 10.2572 30.9873 10.1218 30.9873C9.42033 30.9873 8.80338 31.4609 8.62159 32.139C8.514 32.5398 8.56916 32.9582 8.77685 33.3175C8.98447 33.6767 9.31977 33.9337 9.72094 34.0411C9.85373 34.0766 9.98959 34.0946 10.1249 34.0946Z" fill="#111827"/>
<path fill-rule="evenodd" clip-rule="evenodd" d="M41.1109 39.2218L37.0835 24.2088C36.4749 21.9402 34.3827 20.0221 32.742 19.5777C32.2608 18.3238 31.7735 17.1093 31.3053 15.9929L31.3035 15.9885C30.7675 14.7105 30.2569 13.5618 29.809 12.6305C29.8805 12.5332 29.9407 12.4281 29.9867 12.3172C30.1266 11.9801 30.1254 11.6153 29.9873 11.2957L29.5185 9.54842C29.4801 9.20903 29.3038 8.89806 29.0204 8.67859C28.6478 8.38973 28.129 8.28719 27.6664 8.41105L23.4354 9.54333C23.0506 9.6464 22.7287 9.8935 22.5289 10.2391C22.3291 10.5848 22.2758 10.9869 22.379 11.3713L22.891 13.2804C23.0091 13.72 23.3106 14.0617 23.6909 14.2476C23.7396 14.8916 23.8095 15.6216 23.8981 16.4153L23.8992 16.4254L23.9 16.4321C24.0772 18.0164 24.3282 19.8507 24.6299 21.7488C23.4317 22.9532 22.5799 25.6592 23.1884 27.9276L27.2158 42.9406C27.4078 43.656 27.8933 44.2426 28.5829 44.5926C29.0008 44.8047 29.4629 44.9126 29.9329 44.9126C30.2027 44.9126 30.4752 44.877 30.7433 44.8052L38.9893 42.5983C39.7246 42.4015 40.3513 41.9529 40.7539 41.3352C41.1761 40.6876 41.3028 39.9372 41.1109 39.2218ZM24.667 12.6395C24.6539 12.6374 24.6406 12.6357 24.6274 12.6341C24.6123 12.6322 24.5972 12.6308 24.5819 12.6298L24.5818 12.6298C24.5715 12.6291 24.5611 12.6284 24.5506 12.628L24.5431 12.6276C24.5401 12.6274 24.5372 12.6272 24.5343 12.6272L24.1436 11.1703L27.868 10.1738L28.2589 11.6305C28.2557 11.6324 28.2526 11.6345 28.2495 11.6366L28.2424 11.6413L28.2239 11.6533C28.2072 11.6644 28.1909 11.6759 28.1751 11.688L28.1674 11.6939L28.1548 11.7037C28.1399 11.7158 28.1255 11.7286 28.1114 11.7416L28.1037 11.7487C28.1004 11.7517 28.097 11.7547 28.0938 11.7578C28.0758 11.7755 28.0584 11.794 28.042 11.8131C28.0378 11.818 28.0339 11.823 28.03 11.8281L28.0236 11.8363C28.0135 11.8489 28.0035 11.8616 27.9941 11.8747C27.9884 11.8826 27.9831 11.8908 27.9777 11.899L27.9777 11.899L27.975 11.9032C27.9667 11.9158 27.9587 11.9284 27.9512 11.9414C27.9456 11.9508 27.9403 11.9603 27.9351 11.97C27.9272 11.9846 27.92 11.9994 27.913 12.0144L27.9099 12.0209L27.9099 12.0209L27.9099 12.0209L27.9099 12.0209C27.907 12.027 27.9041 12.033 27.9015 12.0392C27.8923 12.0608 27.8839 12.0828 27.8763 12.1051L27.8754 12.1075L27.8741 12.1111C27.8657 12.1367 27.8586 12.1628 27.8525 12.1891L27.8512 12.1964L27.8503 12.2012C27.8456 12.2228 27.8417 12.2446 27.8387 12.2666L27.8372 12.2794L27.8362 12.2891C27.8342 12.3076 27.8327 12.3262 27.8318 12.345C27.8314 12.3541 27.8311 12.3633 27.8309 12.3725C27.8308 12.3894 27.8312 12.4064 27.832 12.4235C27.8324 12.4339 27.8329 12.4442 27.8336 12.4546C27.8349 12.4704 27.837 12.4862 27.8392 12.502L27.8393 12.5027L27.8406 12.5129C27.8415 12.5204 27.8425 12.5279 27.8438 12.5353C27.848 12.5587 27.8531 12.5819 27.8592 12.6051C27.8655 12.6295 27.8734 12.6537 27.8821 12.6778L27.885 12.6869L27.885 12.687C27.8861 12.6904 27.8872 12.6939 27.8885 12.6973L27.8903 12.7016L27.892 12.7053C27.9022 12.7313 27.9133 12.7566 27.9258 12.7811C28.29 13.5007 28.7125 14.4133 29.1664 15.4552H25.562C25.4862 14.7059 25.4306 14.0313 25.3987 13.4571C25.3972 13.4305 25.3941 13.4037 25.3902 13.377L25.3896 13.3717L25.389 13.3663C25.3884 13.3629 25.3876 13.3595 25.3868 13.3562L25.3853 13.3489C25.3806 13.3231 25.3753 13.2975 25.3684 13.2725C25.362 13.249 25.3547 13.226 25.3465 13.2035C25.344 13.1968 25.3413 13.1902 25.3385 13.1837L25.3344 13.1739C25.3282 13.1586 25.3218 13.1432 25.3147 13.1284C25.3112 13.121 25.3075 13.1138 25.3037 13.1065L25.3008 13.101C25.2929 13.0858 25.2847 13.0708 25.2761 13.0562C25.2713 13.0481 25.2664 13.0402 25.2614 13.0323C25.2515 13.017 25.2412 13.002 25.2304 12.9873L25.2254 12.9805C25.2222 12.9761 25.219 12.9717 25.2157 12.9674C25.2032 12.9514 25.1901 12.9359 25.1767 12.9208L25.171 12.9143L25.1644 12.9068C25.1467 12.888 25.1284 12.8698 25.1092 12.8526C25.1054 12.8491 25.1013 12.8458 25.0972 12.8425L25.0888 12.8355C25.0763 12.825 25.0639 12.8145 25.0508 12.8048C25.0419 12.798 25.0327 12.7916 25.0234 12.7853L25.0234 12.7853L25.0172 12.781L25.0144 12.7791C25.0061 12.7735 24.9979 12.768 24.9895 12.7627C24.9763 12.7544 24.9628 12.7464 24.9491 12.7387C24.9432 12.7355 24.9372 12.7323 24.9313 12.7292L24.9262 12.7265C24.9109 12.7186 24.8954 12.7108 24.8796 12.7037L24.8651 12.6976C24.812 12.675 24.7564 12.6576 24.6987 12.6458L24.6947 12.645C24.6855 12.6431 24.6763 12.6411 24.667 12.6395ZM26.9604 22.6416L25.9523 22.9113C25.3801 23.368 24.662 24.9987 24.75 26.6014L35.0676 23.84C34.3061 22.3384 32.7608 21.252 32.0781 21.2348C31.7214 21.2258 31.4056 21.0021 31.279 20.669C30.8227 19.4669 30.3587 18.2962 29.9098 17.209H25.7596C25.9044 18.3866 26.0843 19.6743 26.2911 21.0045L26.5058 20.947C26.9741 20.8215 27.4558 21.0994 27.5813 21.5673C27.7069 22.0352 27.4289 22.5163 26.9604 22.6416ZM28.1299 39.5739L25.1113 28.3214L35.6131 25.5107L38.6317 36.7632L28.1299 39.5739ZM38.5357 40.9037C38.8517 40.8191 39.117 40.6324 39.2829 40.378C39.4294 40.1533 39.4763 39.904 39.4151 39.6759L39.0882 38.457L28.5864 41.2677L28.9134 42.4865C28.9746 42.7146 29.1401 42.907 29.3795 43.0285C29.6505 43.166 29.9736 43.1952 30.2896 43.1106L38.5357 40.9037Z" fill="#111827"/>
<path d="M30.1036 20.8927C29.9781 20.4248 29.4968 20.1469 29.0281 20.2723L29.0077 20.2778C28.5391 20.4032 28.2611 20.8841 28.3866 21.352C28.4916 21.744 28.8464 22.0026 29.2343 22.0026C29.3094 22.0026 29.386 21.9928 29.462 21.9725L29.4825 21.9669C29.951 21.8416 30.2291 21.3606 30.1036 20.8927Z" fill="#111827"/>
<path fill-rule="evenodd" clip-rule="evenodd" d="M31.8753 29.2334C33.3703 29.2334 34.685 30.2417 35.0722 31.6855C35.3011 32.5388 35.1836 33.4301 34.7414 34.1953C34.2991 34.9604 33.585 35.5077 32.7307 35.7363C32.4498 35.8114 32.161 35.8495 31.8723 35.8495H31.8721C30.3772 35.8494 29.0625 34.8411 28.6752 33.3976C28.4464 32.5442 28.5639 31.6529 29.0061 30.8878C29.4484 30.1226 30.1624 29.5753 31.0168 29.3467C31.2977 29.2716 31.5865 29.2334 31.8753 29.2334ZM32.2764 34.0421C32.6775 33.9347 33.0128 33.6778 33.2205 33.3185C33.4281 32.9592 33.4833 32.5406 33.3758 32.14C33.1939 31.4619 32.5769 30.9883 31.8754 30.9883C31.7401 30.9883 31.6042 31.0063 31.4715 31.0418C31.0703 31.1492 30.735 31.4062 30.5273 31.7655C30.3197 32.1248 30.2645 32.5433 30.372 32.944C30.5539 33.622 31.171 34.0956 31.8725 34.0956H31.8725C32.0078 34.0956 32.1437 34.0776 32.2764 34.0421Z" fill="#111827"/>
<path d="M20.9988 0C20.5138 0 20.1206 0.392719 20.1206 0.877193V3.22491C20.1206 3.70939 20.5138 4.10211 20.9988 4.10211C21.4838 4.10211 21.8771 3.70939 21.8771 3.22491V0.877193C21.8771 0.392719 21.4839 0 20.9988 0Z" fill="#111827"/>
<path d="M18.0613 4.40322L16.8673 2.37006C16.6219 1.95217 16.0838 1.81208 15.6655 2.05726C15.2471 2.30235 15.1069 2.8398 15.3523 3.2577L16.5463 5.29085C16.7098 5.56928 17.0033 5.72436 17.3047 5.72436C17.4556 5.72436 17.6086 5.6855 17.7482 5.60366C18.1665 5.35849 18.3067 4.82103 18.0613 4.40322Z" fill="#111827"/>
<path d="M26.3318 2.05724C25.9133 1.81206 25.3752 1.95224 25.1298 2.37005L23.9358 4.40321C23.6904 4.8211 23.8306 5.35856 24.249 5.60364C24.3886 5.68549 24.5415 5.72435 24.6925 5.72435C24.9939 5.72435 25.2873 5.56926 25.4509 5.29084L26.6449 3.25768C26.8903 2.83978 26.75 2.30233 26.3318 2.05724Z" fill="#111827"/>
</svg>

