<svg width="62" height="54" viewBox="0 0 62 54" fill="none" xmlns="http://www.w3.org/2000/svg">
<rect x="56.8125" y="49.0674" width="1.81641" height="1.83258" fill="#0078FF"/>
<rect x="53.7852" y="49.0674" width="1.81641" height="1.83258" fill="#0078FF"/>
<rect x="42.0703" y="49.0674" width="10.5037" height="1.83258" fill="#0078FF"/>
<rect x="51.6055" y="18.0029" width="1.81641" height="1.83258" fill="#0078FF"/>
<rect x="54.6328" y="18.0029" width="1.81641" height="1.83258" fill="#0078FF"/>
<rect x="39.8906" y="18.0029" width="10.5037" height="1.83258" fill="#0078FF"/>
<path fill-rule="evenodd" clip-rule="evenodd" d="M1.75781 22.2615V15.5771H60.2461V22.2615H1.75781ZM3.57422 20.429H58.4297V17.4097H3.57422V20.429Z" fill="#0078FF"/>
<rect x="2.84375" y="23.7881" width="1.81641" height="20.9598" fill="#0078FF"/>
<rect x="57.3359" y="23.7881" width="1.81641" height="20.9598" fill="#0078FF"/>
<rect x="10.6289" y="23.7881" width="1.81641" height="20.9598" fill="#0078FF"/>
<rect x="49.5547" y="23.7881" width="1.81641" height="20.9598" fill="#0078FF"/>
<rect x="18.4141" y="23.7881" width="1.81641" height="20.9598" fill="#0078FF"/>
<rect x="41.7695" y="23.7881" width="1.81641" height="20.9598" fill="#0078FF"/>
<rect x="26.1992" y="23.7881" width="1.81641" height="20.9598" fill="#0078FF"/>
<rect x="33.9844" y="23.7881" width="1.81641" height="20.9598" fill="#0078FF"/>
<path fill-rule="evenodd" clip-rule="evenodd" d="M0 53.8977V46.2754H62V53.8977H0ZM1.81641 52.0651H60.1836V48.108H1.81641V52.0651Z" fill="#0078FF"/>
<rect x="54.3125" y="30.8076" width="1.81641" height="10.5068" fill="#0078FF"/>
<rect x="54.3125" y="27.7539" width="1.81641" height="1.83258" fill="#0078FF"/>
<rect x="54.3125" y="24.6992" width="1.81641" height="1.83258" fill="#0078FF"/>
<rect x="15.3867" y="35.7324" width="1.81641" height="8.93932" fill="#0078FF"/>
<rect x="5.875" y="26.8418" width="1.81641" height="1.83258" fill="#0078FF"/>
<rect x="5.875" y="23.7881" width="1.81641" height="1.83258" fill="#0078FF"/>
<rect x="5.875" y="29.8965" width="1.81641" height="1.83258" fill="#0078FF"/>
<path d="M39.0859 5.98622C39.0859 4.84538 39.527 4.30843 40.0852 3.62854C40.7166 2.85972 41.5022 1.90299 41.5022 0.101562H39.6858C39.6858 1.24253 39.2448 1.77947 38.6864 2.45936C38.0552 3.22806 37.2695 4.18479 37.2695 5.98622C37.2695 7.78764 38.0552 8.74437 38.6864 9.51308C39.2449 10.193 39.6858 10.7299 39.6858 11.8709H41.5022C41.5022 10.0694 40.7166 9.11272 40.0852 8.34389C39.527 7.66413 39.0859 7.12706 39.0859 5.98622Z" fill="#0078FF"/>
<path d="M22.3125 5.98622C22.3125 4.84538 22.7535 4.30843 23.3118 3.62854C23.9431 2.85972 24.7288 1.90299 24.7288 0.101562H22.9124C22.9124 1.24253 22.4714 1.77947 21.913 2.45936C21.2817 3.22806 20.4961 4.18479 20.4961 5.98622C20.4961 7.78764 21.2817 8.74437 21.913 9.51308C22.4714 10.193 22.9124 10.7299 22.9124 11.8709H24.7288C24.7288 10.0694 23.9431 9.11272 23.3118 8.34389C22.7535 7.66413 22.3125 7.12706 22.3125 5.98622Z" fill="#0078FF"/>
<path d="M31.2983 0.101562C31.2983 0.630201 31.2059 1.06086 31.0078 1.45669L32.6291 2.28306C32.9558 1.6303 33.1147 0.916694 33.1147 0.101562H31.2983Z" fill="#0078FF"/>
<path d="M31.6985 8.34358C31.1402 7.66382 30.6992 7.12675 30.6992 5.98591C30.6992 5.86386 30.7044 5.74449 30.7146 5.63124L28.9056 5.46582C28.8906 5.63393 28.8828 5.80888 28.8828 5.98591C28.8828 7.78721 29.6685 8.74394 30.2997 9.51277C30.858 10.1927 31.299 10.7296 31.299 11.8706H33.1154C33.1154 10.0691 32.3297 9.11241 31.6985 8.34358Z" fill="#0078FF"/>
<path d="M30.4354 2.29395L30.3006 2.45876C29.9533 2.88184 29.5596 3.36124 29.2773 3.99947L30.936 4.7463C31.117 4.33715 31.3868 4.00838 31.6993 3.62782C31.7466 3.57028 31.7937 3.51285 31.8407 3.45507L30.4354 2.29395Z" fill="#0078FF"/>
</svg>
