<svg width="60" height="63" viewBox="0 0 60 63" fill="none" xmlns="http://www.w3.org/2000/svg">
<path fill-rule="evenodd" clip-rule="evenodd" d="M29.8919 0.698299C29.6323 0.716761 29.3831 0.80752 29.1724 0.960329L1.26542 21.224C0.770886 21.5795 0.563526 22.2151 0.753036 22.7945C0.942546 23.3739 1.48519 23.7634 2.09391 23.757H7.67531V60.7906C7.67538 61.5624 8.30006 62.188 9.07065 62.1881H50.9311C51.7017 62.188 52.3264 61.5624 52.3265 60.7906V23.757H57.9079C58.5166 23.7634 59.0592 23.3739 59.2487 22.7945C59.4382 22.2151 59.2309 21.5795 58.7364 21.224L30.8294 0.960329C30.5584 0.763131 30.2256 0.670126 29.8919 0.698299ZM30.0009 3.82083L53.6128 20.962H50.9311C50.1605 20.9621 49.5358 21.5877 49.5358 22.3595V41.9244H44.6521V25.1545C44.652 24.3827 44.0273 23.7571 43.2567 23.757H33.4893C33.4457 23.7549 33.402 23.7549 33.3584 23.757C32.6393 23.8249 32.0908 24.4311 32.0939 25.1545V41.9244H10.466V22.3595C10.4659 21.5877 9.84125 20.9621 9.07065 20.962H6.38897L30.0009 3.82083ZM15.3497 25.1545C15.3466 24.4311 15.8952 23.8249 16.6143 23.757C16.6578 23.7549 16.7015 23.7549 16.7451 23.757H26.5125C27.2831 23.7571 27.9078 24.3827 27.9079 25.1545V34.2382C27.9078 35.01 27.2831 35.6356 26.5125 35.6357H16.7451C15.9745 35.6356 15.3498 35.01 15.3497 34.2382V25.1545ZM18.1404 26.552H25.1172V32.8407H18.1404V26.552ZM41.8614 26.552H34.8846V41.9244H41.8614V26.552ZM10.466 44.7194H13.2567V48.2131C13.2568 48.9849 13.8815 49.6106 14.652 49.6106H19.5358V52.4056C19.5358 53.1774 20.1605 53.8031 20.9311 53.8031H25.8148V55.8994C25.8149 56.6712 26.4396 57.2968 27.2102 57.2969H32.0939V59.3931H10.466V44.7194ZM49.5358 44.7194H16.0474V46.8157H20.9311C21.7017 46.8157 22.3264 47.4414 22.3265 48.2131V51.0081H27.2102C27.9808 51.0082 28.6055 51.6338 28.6055 52.4056V54.5019H33.4893C34.2599 54.502 34.8845 55.1276 34.8846 55.8994V59.3931H49.5358V44.7194Z" fill="#0078FF"/>
</svg>
