<svg width="62" height="62" viewBox="0 0 62 62" fill="none" xmlns="http://www.w3.org/2000/svg">
<g clip-path="url(#clip0_1_374)">
<path d="M60.9667 0H1.03333C0.462675 0 0 0.462675 0 1.03333V56.8333C0 57.404 0.462675 57.8667 1.03333 57.8667H4.13333V60.9667C4.13333 61.5373 4.59601 62 5.16667 62H56.8333C57.404 62 57.8667 61.5373 57.8667 60.9667V57.8667H60.9667C61.5373 57.8667 62 57.404 62 56.8333V1.03333C62 0.462675 61.5373 0 60.9667 0ZM55.8 59.9333H6.2V57.8667H55.8V59.9333ZM59.9333 55.8H2.06667V2.06667H59.9333V55.8Z" fill="#111827"/>
<path d="M52.7 12.3999H9.29997C6.44797 12.4033 4.13666 14.7146 4.1333 17.5666V47.5332C4.13666 50.3852 6.44797 52.6965 9.29997 52.6999H52.7C55.552 52.6965 57.8633 50.3852 57.8666 47.5332V17.5666C57.8633 14.7146 55.552 12.4033 52.7 12.3999ZM9.32683 42.3666H9.29997C8.72931 42.3666 8.26663 42.8292 8.26663 43.3999C8.27038 44.5216 8.64303 45.6108 9.32683 46.4999H9.29997C8.72931 46.4999 8.26663 46.9626 8.26663 47.5332C8.27038 48.6549 8.64303 49.7442 9.32683 50.6332H9.29997C7.58786 50.6332 6.19997 49.2453 6.19997 47.5332V17.5666C6.19997 15.8545 7.58786 14.4666 9.29997 14.4666H52.7C54.4121 14.4666 55.8 15.8545 55.8 17.5666V26.8841C52.0346 19.8084 43.9585 16.1771 36.1666 18.0564V16.5332H25.8333V22.7332H27.869C24.8405 25.7743 23.0255 29.816 22.7643 34.0999H20.6666V23.7666H17.5666V20.6666H20.6666V18.5999H12.4V20.6666H15.5V23.7666H12.4V34.0999H9.29997C8.72931 34.0999 8.26663 34.5626 8.26663 35.1332C8.27038 36.2549 8.64303 37.3442 9.32683 38.2332H9.29997C8.72931 38.2332 8.26663 38.6959 8.26663 39.2666C8.27038 40.3883 8.64303 41.4775 9.32683 42.3666ZM34.1 18.5999V20.6666H27.9V18.5999H34.1ZM18.6 25.8332V34.0999H14.4666V25.8332H18.6ZM38.2333 50.6332H13.4333C12.1199 50.6317 10.9496 49.8042 10.51 48.5666H41.1566C40.717 49.8042 39.5467 50.6317 38.2333 50.6332ZM38.2333 46.4999H13.4333C12.1199 46.4984 10.9496 45.6709 10.51 44.4332H41.1566C40.717 45.6709 39.5467 46.4984 38.2333 46.4999ZM38.2333 42.3666H13.4333C12.1199 42.365 10.9496 41.5376 10.51 40.2999H41.1566C40.717 41.5376 39.5467 42.365 38.2333 42.3666ZM38.2333 38.2332H13.4333C12.1199 38.2317 10.9496 37.4042 10.51 36.1666H41.1566C40.717 37.4042 39.5467 38.2317 38.2333 38.2332ZM42.3398 42.3666C43.0236 41.4775 43.3962 40.3883 43.4 39.2666C43.4 38.6959 42.9373 38.2332 42.3666 38.2332H42.3398C43.0236 37.3442 43.3962 36.2549 43.4 35.1332C43.4 34.5626 42.9373 34.0999 42.3666 34.0999H30.0193C30.5872 28.4212 35.6509 24.2782 41.3296 24.846C47.0082 25.4138 51.1513 30.4776 50.5834 36.1562C50.1604 40.3864 47.1898 43.9257 43.0972 45.076C43.2913 44.5381 43.3936 43.9716 43.4 43.3999C43.4 42.8292 42.9373 42.3666 42.3666 42.3666H42.3398ZM55.8 47.5332C55.8 49.2453 54.4121 50.6332 52.7 50.6332H48.5491C51.629 48.9855 54.1522 46.4623 55.8 43.3823V47.5332ZM44.462 50.0485C43.8117 50.2292 43.1505 50.3673 42.4824 50.4617C43.0794 49.6018 43.3996 48.58 43.4 47.5332C43.3984 47.4046 43.3728 47.2774 43.3245 47.1581C49.9673 45.4932 54.0027 38.7583 52.3378 32.1155C50.6728 25.4726 43.9379 21.4373 37.2952 23.1023C32.149 24.3921 28.3936 28.813 27.9528 34.0999H24.862C25.1659 29.5955 27.4152 25.4463 31.0237 22.7332H36.1666V20.2026C44.4084 17.912 52.9465 22.7362 55.2373 30.9779C57.528 39.2196 52.7037 47.7579 44.462 50.0485Z" fill="#111827"/>
<path d="M13.4333 4.1333H5.16663C4.59598 4.1333 4.1333 4.59598 4.1333 5.16663V9.29997C4.1333 9.87063 4.59598 10.3333 5.16663 10.3333H13.4333C14.004 10.3333 14.4666 9.87063 14.4666 9.29997V5.16663C14.4666 4.59598 14.004 4.1333 13.4333 4.1333ZM12.4 8.26663H6.19997V6.19997H12.4V8.26663Z" fill="#111827"/>
<path d="M25.8333 4.1333H17.5667C16.996 4.1333 16.5333 4.59598 16.5333 5.16663V9.29997C16.5333 9.87063 16.996 10.3333 17.5667 10.3333H25.8333C26.404 10.3333 26.8667 9.87063 26.8667 9.29997V5.16663C26.8667 4.59598 26.404 4.1333 25.8333 4.1333ZM24.8 8.26663H18.6V6.19997H24.8V8.26663Z" fill="#111827"/>
<path d="M57.8667 4.1333H55.8V10.3333H57.8667V4.1333Z" fill="#111827"/>
<path d="M53.7333 4.1333H51.6666V10.3333H53.7333V4.1333Z" fill="#111827"/>
<path d="M49.6 4.1333H47.5333V10.3333H49.6V4.1333Z" fill="#111827"/>
</g>
<defs>
<clipPath id="clip0_1_374">
<rect width="62" height="62" fill="white"/>
</clipPath>
</defs>
</svg>
