<svg width="52" height="52" viewBox="0 0 52 52" fill="none" xmlns="http://www.w3.org/2000/svg">
<path fill-rule="evenodd" clip-rule="evenodd" d="M51.1878 10.0092C50.6629 9.47439 49.9497 9.17725 49.1771 9.17725H2.82286C1.2381 9.17725 0 10.4352 0 12.0496V29.5315C0 31.1361 1.2381 32.4039 2.82286 32.4039H49.1771C50.7817 32.4039 52 31.1658 52 29.5315V12.0496C52 11.2672 51.7128 10.5441 51.1878 10.0092ZM2.20876 29.5216V12.0496C2.20876 11.6633 2.52571 11.4256 2.82286 11.4256H49.1771C49.5535 11.4256 49.7912 11.6633 49.7912 12.0496V29.5315C49.7912 29.9178 49.5535 30.1555 49.1771 30.1555H2.82286C2.44648 30.1555 2.20876 29.9178 2.20876 29.5315V29.5216ZM22.2856 17.2495H28.9515C29.5854 17.2495 30.0312 16.8335 30.0312 16.2491C30.0312 15.6647 29.5854 15.2487 28.9515 15.2487H22.2856C21.6517 15.2487 21.206 15.6647 21.206 16.2491C21.206 16.8335 21.6517 17.2495 22.2856 17.2495ZM47.1071 28.6105H4.14025C3.48653 28.6105 3.03092 28.1945 3.03092 27.6101C3.03092 27.0257 3.48653 26.6097 4.14025 26.6097H47.1071C47.7608 26.6097 48.2164 27.0257 48.2164 27.6101C48.2164 28.1945 47.7608 28.6105 47.1071 28.6105ZM4.14025 25.5796H47.1071C47.7608 25.5796 48.2164 25.1636 48.2164 24.5792C48.2164 23.9948 47.7608 23.5788 47.1071 23.5788H4.14025C3.48653 23.5788 3.03092 23.9948 3.03092 24.5792C3.03092 25.1636 3.48653 25.5796 4.14025 25.5796ZM24.9896 36.7819C24.9896 37.0692 25.3066 37.5347 26.1782 37.9705L26.1584 37.9804C27.6243 38.7134 28.5058 39.9713 28.5058 41.1994C28.5058 42.4276 27.6738 43.5667 26.1683 44.4086C25.9306 44.5274 25.7919 44.5274 25.6037 44.5274C25.1976 44.5274 24.8411 44.3294 24.6034 43.9728C24.435 43.6855 24.3954 43.3587 24.4944 43.0714C24.5935 42.7941 24.8015 42.5663 25.0788 42.4574C25.9306 41.9819 26.2476 41.5263 26.2476 41.2787C26.2476 40.9914 25.9306 40.5259 25.059 40.0901C23.5138 39.1293 22.7116 38.0101 22.7116 36.7819C22.7116 35.5537 23.5436 34.4147 25.0491 33.5728C25.3264 33.4143 25.6533 33.3747 25.9405 33.4737C26.2178 33.5629 26.4456 33.7709 26.5546 34.0482C26.6933 34.3751 26.6933 34.7316 26.5744 35.0189C26.4754 35.2467 26.3169 35.4052 26.099 35.5042C25.1877 36.1876 24.9896 36.5739 24.9896 36.7819ZM17.0857 39.4857C16.2141 39.0499 15.8971 38.5844 15.8971 38.2971C15.8971 38.0891 16.0952 37.7029 17.0065 37.0194C17.264 36.9006 17.4621 36.6926 17.5512 36.4251C17.6503 36.1379 17.6107 35.8111 17.4621 35.5733C17.3531 35.296 17.1352 35.088 16.848 34.9989C16.5509 34.8998 16.2339 34.9394 15.9566 35.0979C14.451 35.9398 13.619 37.0789 13.619 38.3071C13.619 39.5352 14.4213 40.6545 15.9665 41.6152C16.8381 42.0511 17.155 42.5166 17.155 42.8038C17.155 43.0514 16.8381 43.5071 15.9863 43.9825C15.709 44.0914 15.501 44.3192 15.4019 44.5966C15.3029 44.8838 15.3425 45.2107 15.5109 45.4979C15.7486 45.8545 16.1051 46.0526 16.5112 46.0526C16.6994 46.0526 16.8381 46.0526 17.0758 45.9337C18.5813 45.0918 19.4133 43.9528 19.4133 42.7246C19.4133 41.4964 18.5318 40.2385 17.0659 39.5055L17.0857 39.4857ZM34.8352 38.2971C34.8352 38.5844 35.1521 39.0499 36.0237 39.4857L36.0039 39.4956C37.4698 40.2286 38.3514 41.4865 38.3514 42.7147C38.3514 43.9429 37.5194 45.0819 36.0138 45.9238C35.7761 46.0427 35.6375 46.0427 35.4493 46.0427C35.0432 46.0427 34.6866 45.8446 34.4489 45.488C34.2805 45.2008 34.2409 44.8739 34.3399 44.5867C34.439 44.3093 34.647 44.0815 34.9243 43.9726C35.7761 43.4971 36.0931 43.0415 36.0931 42.7939C36.0931 42.5067 35.7761 42.0411 34.9045 41.6053C33.3594 40.6446 32.5571 39.5253 32.5571 38.2971C32.5571 37.0689 33.3891 35.9299 34.8946 35.088C35.1719 34.9295 35.4988 34.8899 35.786 34.9889C36.0733 35.0781 36.2912 35.2861 36.4001 35.5634C36.5388 35.8903 36.5388 36.2469 36.4199 36.5341C36.3209 36.7619 36.1624 36.9204 35.9445 37.0194C35.0333 37.7029 34.8352 38.0891 34.8352 38.2971Z" fill="#111827"/>
</svg>
