<svg id="Layer_1" data-name="Layer 1" xmlns="http://www.w3.org/2000/svg" viewBox="0 0 24 24" stroke-width="1.5" width="24" height="24" color="#000000"><defs><style>.cls-637b7068f95e86b59c579e3e-1{fill:none;stroke:currentColor;stroke-miterlimit:10;}</style></defs><path class="cls-637b7068f95e86b59c579e3e-1" d="M1.76,10l-.26.07V1.5H8.18A8.86,8.86,0,0,1,1.76,10Z"></path><path class="cls-637b7068f95e86b59c579e3e-1" d="M8.18,22.5H1.5V10.09h0A13.27,13.27,0,0,1,8.18,21.6Z"></path><path class="cls-637b7068f95e86b59c579e3e-1" d="M22.24,10l.26.07V1.5H15.82A8.86,8.86,0,0,0,22.24,10Z"></path><path class="cls-637b7068f95e86b59c579e3e-1" d="M15.82,22.5H22.5V10.09h0A13.27,13.27,0,0,0,15.82,21.6Z"></path><rect class="cls-637b7068f95e86b59c579e3e-1" x="1.5" y="1.5" width="21" height="21"></rect><line class="cls-637b7068f95e86b59c579e3e-1" x1="4.36" y1="12" x2="19.64" y2="12"></line><line class="cls-637b7068f95e86b59c579e3e-1" x1="12" y1="1.5" x2="12" y2="22.5"></line></svg>