<svg width="62" height="49" viewBox="0 0 62 49" fill="none" xmlns="http://www.w3.org/2000/svg">
<path d="M3.8318 35.4118H5.46703L11.1258 44.3228C11.2808 45.1777 11.1183 46.06 10.6688 46.8031C10.4799 47.0077 10.2467 47.1662 9.9871 47.2663C9.7275 47.3664 9.44843 47.4055 9.17137 47.3806C8.97084 47.3806 8.77853 47.4604 8.63673 47.6025C8.49494 47.7446 8.41528 47.9373 8.41528 48.1383C8.41528 48.3392 8.49494 48.5319 8.63673 48.674C8.77853 48.8161 8.97084 48.896 9.17137 48.896C9.67178 48.9249 10.1721 48.8383 10.6339 48.6428C11.0956 48.4473 11.5063 48.1481 11.8343 47.7683C12.2585 47.2233 12.5276 46.5735 12.613 45.8877C13.4102 46.4251 14.3491 46.7124 15.3099 46.7128H41.564C42.5248 46.7124 43.4638 46.4252 44.2611 45.8877C44.3465 46.5735 44.6155 47.2233 45.0395 47.7683C45.3675 48.1481 45.7783 48.4473 46.24 48.6428C46.7017 48.8383 47.2021 48.9249 47.7025 48.896C47.903 48.896 48.0953 48.8161 48.2371 48.674C48.3789 48.5319 48.4586 48.3392 48.4586 48.1383C48.4586 47.9373 48.3789 47.7446 48.2371 47.6025C48.0953 47.4604 47.903 47.3806 47.7025 47.3806C47.4261 47.4054 47.1477 47.3665 46.8886 47.2669C46.6295 47.1673 46.3966 47.0097 46.2077 46.806C45.755 46.0634 45.5913 45.1797 45.7478 44.3238L51.4072 35.4118H53.0421C53.411 35.4125 53.7765 35.3402 54.1175 35.1991C54.4586 35.058 54.7685 34.8509 55.0296 34.5897C55.2907 34.3285 55.4979 34.0182 55.6392 33.6767C55.7805 33.3352 55.8533 32.9691 55.8533 32.5994C55.8533 32.2296 55.7805 31.8635 55.6392 31.522C55.4979 31.1805 55.2907 30.8702 55.0296 30.609C54.7685 30.3478 54.4586 30.1407 54.1175 29.9997C53.7765 29.8586 53.411 29.7863 53.0421 29.7869H51.748V6.40139C51.7462 4.70299 51.0716 3.07479 49.8725 1.8745C48.6735 0.674207 47.0479 0 45.3531 0C43.6583 0 42.0328 0.674207 40.8337 1.8745C39.6346 3.07479 38.9601 4.70299 38.9582 6.40139V7.28353C38.38 7.41932 37.8508 7.71349 37.4298 8.1332L35.0788 10.4888C34.9731 10.5947 34.901 10.7297 34.8719 10.8767C34.8427 11.0236 34.8577 11.176 34.9149 11.3144C34.9721 11.4529 35.069 11.5712 35.1933 11.6544C35.3176 11.7377 35.4638 11.7821 35.6133 11.7821H43.8153C43.9648 11.7821 44.111 11.7377 44.2353 11.6544C44.3596 11.5712 44.4565 11.4529 44.5137 11.3144C44.571 11.176 44.5859 11.0236 44.5568 10.8767C44.5276 10.7297 44.4556 10.5947 44.3498 10.4888L41.9992 8.13282C41.5779 7.71328 41.0486 7.41923 40.4704 7.28346V6.40139C40.472 5.10474 40.9871 3.86176 41.9026 2.94547C42.8181 2.02917 44.0592 1.5145 45.3531 1.5145C46.647 1.5145 47.888 2.02917 48.8035 2.94547C49.719 3.86176 50.2342 5.10474 50.2358 6.40139V29.7869H44.4143C44.1324 28.6147 43.4648 27.5718 42.5192 26.8263C41.5736 26.0808 40.4051 25.676 39.2019 25.6773C38.438 25.6772 37.6832 25.8438 36.9901 26.1657C36.4763 24.7205 35.4979 23.4875 34.2086 22.6603C32.9193 21.8331 31.3923 21.4586 29.8676 21.5958C28.3428 21.733 26.9068 22.374 25.7852 23.4181C24.6635 24.4622 23.9199 25.8502 23.6712 27.364C23.0225 26.9867 22.2946 26.767 21.5459 26.7225C20.7972 26.6781 20.0485 26.8101 19.3599 27.1079C18.5458 26.1409 17.4827 25.4161 16.2863 25.0121C15.0899 24.6082 13.8058 24.5406 12.5738 24.8168C11.3417 25.093 10.2088 25.7023 9.29812 26.5785C8.38744 27.4548 7.73389 28.5644 7.4085 29.7869H3.8318C3.08825 29.7881 2.37557 30.0849 1.85024 30.6122C1.3249 31.1395 1.02984 31.8542 1.02984 32.5993C1.02984 33.3444 1.3249 34.0591 1.85024 34.5864C2.37557 35.1137 3.08825 35.4106 3.8318 35.4118V35.4118ZM41.99 10.2668H37.439L38.499 9.20461C38.8265 8.89134 39.2618 8.71654 39.7145 8.71654C40.1673 8.71654 40.6026 8.89134 40.9301 9.20461L41.99 10.2668ZM44.386 43.645C44.085 44.1218 43.6683 44.5144 43.1747 44.7858C42.6812 45.0573 42.127 45.1989 41.564 45.1974H15.3099C14.7469 45.1989 14.1928 45.0573 13.6993 44.7858C13.2058 44.5143 12.7891 44.1218 12.4882 43.645L7.25975 35.4118H25.6305V39.2772C25.63 39.5795 25.6889 39.8788 25.8039 40.1582C25.919 40.4376 26.0879 40.6915 26.3009 40.9054C26.514 41.1193 26.7671 41.289 27.0457 41.4048C27.3242 41.5206 27.6229 41.5802 27.9245 41.5802C28.2261 41.5802 28.5247 41.5206 28.8033 41.4048C29.0819 41.289 29.335 41.1193 29.548 40.9054C29.7611 40.6915 29.93 40.4376 30.045 40.1582C30.16 39.8788 30.219 39.5795 30.2184 39.2772V35.4118H49.6145L44.386 43.645ZM39.9835 31.3023V32.0859C39.9846 32.4364 40.0661 32.782 40.2217 33.0959C40.3774 33.4099 40.6029 33.6838 40.8809 33.8965H30.2185V31.3023L39.9835 31.3023ZM54.3364 32.5994C54.336 32.9432 54.1995 33.2729 53.9568 33.5161C53.7142 33.7592 53.3852 33.896 53.042 33.8965H43.6737C43.9518 33.6838 44.1774 33.4099 44.333 33.096C44.4887 32.782 44.5702 32.4364 44.5714 32.0859V31.3023H53.042C53.3852 31.3027 53.7142 31.4395 53.9568 31.6826C54.1995 31.9258 54.336 32.2555 54.3364 32.5994ZM14.0838 26.1653C14.9573 26.1662 15.8175 26.3794 16.5908 26.7866C17.364 27.1937 18.0271 27.7827 18.5233 28.5031C18.6332 28.662 18.7994 28.7729 18.9882 28.8131C19.1769 28.8533 19.3738 28.8197 19.5386 28.7192C20.2123 28.3095 21.0096 28.1537 21.7876 28.2797C22.5656 28.4058 23.2733 28.8054 23.7839 29.4069C23.89 29.5236 24.0305 29.6033 24.1849 29.6346C24.3393 29.6659 24.4996 29.647 24.6426 29.5808C24.7911 29.5129 24.9152 29.4009 24.9983 29.2601C25.0813 29.1192 25.1193 28.9563 25.1071 28.7932C25.1 28.6925 25.0923 28.5923 25.0923 28.4898C25.0919 27.1457 25.5913 25.8497 26.4931 24.8547C27.3948 23.8597 28.6341 23.2371 29.9692 23.1083C31.3043 22.9796 32.6393 23.354 33.7138 24.1584C34.7884 24.9628 35.5252 26.1396 35.7807 27.4591C35.805 27.5838 35.8603 27.7003 35.9413 27.798C36.0224 27.8957 36.1267 27.9714 36.2446 28.0182C36.3625 28.0649 36.4902 28.0812 36.616 28.0655C36.7419 28.0499 36.8617 28.0028 36.9646 27.9285C37.6142 27.4528 38.3974 27.1953 39.2019 27.1927C40.1538 27.1913 41.0725 27.5432 41.7807 28.1806C42.4889 28.8179 42.9365 29.6955 43.0371 30.6441C43.0431 30.6689 43.0505 30.6935 43.0592 30.7175V32.0859C43.0586 32.2932 42.9759 32.4919 42.8294 32.6382C42.6828 32.7846 42.4844 32.8668 42.2775 32.8668C42.0705 32.8668 41.8721 32.7846 41.7255 32.6382C41.579 32.4919 41.4963 32.2932 41.4957 32.0859V30.5446C41.4957 30.3436 41.416 30.1509 41.2742 30.0088C41.1324 29.8667 40.9401 29.7869 40.7396 29.7869H29.4624C29.2619 29.7869 29.0696 29.8667 28.9278 30.0088C28.786 30.1509 28.7063 30.3436 28.7063 30.5446V39.2772C28.7066 39.3803 28.6866 39.4824 28.6475 39.5778C28.6084 39.6731 28.5508 39.7597 28.4782 39.8328C28.4056 39.9058 28.3193 39.9637 28.2243 40.0032C28.1293 40.0427 28.0274 40.0631 27.9246 40.0631C27.8217 40.0631 27.7198 40.0427 27.6248 40.0032C27.5298 39.9637 27.4435 39.9058 27.3709 39.8328C27.2983 39.7597 27.2407 39.6731 27.2016 39.5778C27.1625 39.4824 27.1425 39.3803 27.1428 39.2772V30.5446C27.1428 30.3436 27.0631 30.1509 26.9213 30.0088C26.7795 29.8667 26.5872 29.7869 26.3867 29.7869H8.99042C9.35709 28.7267 10.0451 27.8078 10.9582 27.1585C11.8714 26.5092 12.9642 26.162 14.0838 26.1653ZM3.8318 31.3023H25.6305V33.8965H3.8318C3.48906 33.8956 3.16063 33.7586 2.91856 33.5154C2.6765 33.2723 2.54055 32.9428 2.54055 32.5994C2.54055 32.2559 2.6765 31.9264 2.91856 31.6833C3.16063 31.4401 3.48906 31.3031 3.8318 31.3023ZM39.7143 21.5518C39.5138 21.5518 39.3215 21.472 39.1797 21.3299C39.0379 21.1878 38.9582 20.9951 38.9582 20.7941V14.1581C38.9582 13.9571 39.0379 13.7644 39.1797 13.6223C39.3215 13.4802 39.5138 13.4004 39.7143 13.4004C39.9148 13.4004 40.1072 13.4802 40.249 13.6223C40.3908 13.7644 40.4704 13.9571 40.4704 14.1581V20.7941C40.4704 20.9951 40.3908 21.1878 40.249 21.3299C40.1072 21.472 39.9148 21.5518 39.7143 21.5518ZM34.374 18.0908L35.301 14.8336C35.3283 14.738 35.3741 14.6486 35.4358 14.5707C35.4975 14.4928 35.5739 14.4278 35.6607 14.3794C35.7474 14.3311 35.8429 14.3004 35.9415 14.289C36.0401 14.2776 36.14 14.2858 36.2355 14.3131C36.3309 14.3404 36.4201 14.3863 36.4978 14.4481C36.5756 14.5099 36.6405 14.5865 36.6887 14.6735C36.7369 14.7604 36.7676 14.856 36.779 14.9549C36.7903 15.0537 36.7821 15.1538 36.7549 15.2495L35.8279 18.5066C35.7728 18.6998 35.6435 18.8632 35.4682 18.9608C35.293 19.0585 35.0862 19.0823 34.8934 19.0272C34.7007 18.972 34.5376 18.8424 34.4402 18.6668C34.3428 18.4912 34.319 18.284 34.374 18.0908ZM43.699 18.5066L42.7719 15.2495C42.7169 15.0563 42.7407 14.8491 42.8381 14.6735C42.9355 14.4979 43.0986 14.3682 43.2914 14.3131C43.4842 14.258 43.6909 14.2818 43.8662 14.3794C44.0414 14.4771 44.1708 14.6404 44.2258 14.8336L45.1528 18.0908C45.1801 18.1865 45.1882 18.2866 45.1769 18.3854C45.1655 18.4842 45.1348 18.5799 45.0866 18.6668C45.0384 18.7538 44.9735 18.8303 44.8958 18.8922C44.818 18.954 44.7288 18.9999 44.6334 19.0272C44.5379 19.0545 44.438 19.0627 44.3394 19.0513C44.2408 19.0399 44.1453 19.0092 44.0586 18.9608C43.9718 18.9125 43.8954 18.8475 43.8337 18.7696C43.772 18.6917 43.7262 18.6023 43.699 18.5066ZM11.0081 20.0013C11.5632 20.0014 12.1058 19.8365 12.5674 19.5275C13.029 19.2185 13.3888 18.7793 13.6013 18.2654C13.8138 17.7515 13.8694 17.186 13.7612 16.6404C13.6529 16.0948 13.3856 15.5936 12.9931 15.2002C12.6006 14.8069 12.1006 14.539 11.5561 14.4304C11.0117 14.3219 10.4474 14.3775 9.93452 14.5904C9.42166 14.8033 8.98331 15.1637 8.6749 15.6263C8.3665 16.0888 8.20189 16.6326 8.20189 17.1888C8.20271 17.9344 8.49861 18.6493 9.02469 19.1765C9.55076 19.7038 10.2641 20.0004 11.0081 20.0013ZM11.0081 15.8917C11.2641 15.8917 11.5144 15.9677 11.7273 16.1101C11.9402 16.2526 12.1062 16.4552 12.2042 16.6922C12.3022 16.9292 12.3279 17.19 12.278 17.4417C12.2281 17.6933 12.1049 17.9244 11.9239 18.1059C11.7429 18.2873 11.5122 18.4109 11.2611 18.461C11.01 18.5111 10.7498 18.4854 10.5132 18.3872C10.2767 18.2891 10.0745 18.1228 9.93225 17.9095C9.79001 17.6962 9.71408 17.4454 9.71408 17.1888C9.7145 16.845 9.85095 16.5154 10.0935 16.2722C10.3361 16.0291 10.665 15.8922 11.0081 15.8917ZM59.1934 21.5681C58.6384 21.5681 58.0958 21.7331 57.6343 22.0422C57.1728 22.3512 56.8131 22.7905 56.6008 23.3044C56.3884 23.8183 56.3329 24.3837 56.4412 24.9292C56.5495 25.4748 56.8168 25.9758 57.2093 26.3691C57.6019 26.7624 58.1019 27.0302 58.6463 27.1387C59.1907 27.2472 59.755 27.1914 60.2678 26.9785C60.7805 26.7656 61.2188 26.4051 61.5272 25.9426C61.8355 25.4801 62 24.9364 62 24.3802C61.9991 23.6346 61.7031 22.9198 61.177 22.3926C60.6508 21.8654 59.9375 21.5689 59.1934 21.5681H59.1934ZM59.1934 25.6773C58.9375 25.6773 58.6873 25.6012 58.4745 25.4587C58.2617 25.3161 58.0958 25.1136 57.9979 24.8766C57.9 24.6396 57.8744 24.3789 57.9243 24.1273C57.9742 23.8758 58.0975 23.6447 58.2785 23.4633C58.4595 23.282 58.69 23.1585 58.9411 23.1084C59.1921 23.0584 59.4523 23.084 59.6888 23.1822C59.9253 23.2803 60.1274 23.4465 60.2696 23.6597C60.4118 23.873 60.4878 24.1237 60.4878 24.3802C60.4874 24.7241 60.3509 25.0538 60.1083 25.2969C59.8656 25.5401 59.5366 25.6769 59.1934 25.6773L59.1934 25.6773ZM2.80657 43.631C3.36165 43.631 3.90428 43.466 4.36582 43.157C4.82736 42.848 5.18708 42.4087 5.39951 41.8948C5.61193 41.3809 5.66751 40.8154 5.55922 40.2698C5.45093 39.7243 5.18363 39.2231 4.79112 38.8298C4.39862 38.4364 3.89853 38.1686 3.35411 38.0601C2.80969 37.9515 2.24538 38.0072 1.73255 38.2201C1.21971 38.433 0.781384 38.7935 0.472994 39.256C0.164603 39.7185 0 40.2622 0 40.8185C0.000816536 41.5642 0.29677 42.2791 0.822926 42.8063C1.34908 43.3336 2.06247 43.6302 2.80657 43.631ZM2.80657 39.5214C3.06257 39.5214 3.31283 39.5975 3.52569 39.74C3.73855 39.8825 3.90445 40.0851 4.00242 40.3221C4.10039 40.5591 4.12603 40.8199 4.07608 41.0716C4.02614 41.3232 3.90286 41.5543 3.72184 41.7357C3.54081 41.9171 3.31018 42.0406 3.05909 42.0907C2.80801 42.1407 2.54775 42.115 2.31123 42.0169C2.07472 41.9187 1.87256 41.7524 1.73033 41.5391C1.58811 41.3258 1.51219 41.075 1.5122 40.8185C1.51261 40.4746 1.64912 40.1449 1.89177 39.9018C2.13442 39.6586 2.46341 39.5218 2.80657 39.5214Z" fill="#0078FF"/>
</svg>
