<svg width="62" height="48" viewBox="0 0 62 48" fill="none" xmlns="http://www.w3.org/2000/svg">
<path d="M58.6624 33.4392H54.9073L53.8973 2.82256C53.8512 1.42538 52.7202 0.331055 51.3224 0.331055C49.9245 0.331055 48.7933 1.4255 48.7473 2.82256L47.7374 33.4392H41.1518C40.6492 33.4392 40.2418 33.8467 40.2418 34.3492C40.2418 34.8517 40.6492 35.2592 41.1518 35.2592H58.6622C59.4985 35.2592 60.1788 35.9395 60.1788 36.7758V44.331C60.1788 45.1672 59.4985 45.8477 58.6622 45.8477H20.4608C19.9581 45.8477 19.5508 46.255 19.5508 46.7577C19.5508 47.2603 19.9581 47.6677 20.4608 47.6677H58.6625C60.5023 47.6677 61.9991 46.1709 61.9991 44.3311V36.7759C61.999 34.936 60.5021 33.4392 58.6624 33.4392ZM50.5664 2.8825C50.58 2.47235 50.912 2.15097 51.3225 2.15097C51.7329 2.15097 52.0649 2.47235 52.0785 2.8825L53.0864 33.4392H49.5585L50.5664 2.8825Z" fill="#0078FF"/>
<path d="M16.8219 45.8477H3.33662C2.50034 45.8477 1.82004 45.1673 1.82004 44.331V36.7758C1.82004 35.9395 2.50034 35.2592 3.33662 35.2592H37.5131C38.0158 35.2592 38.4232 34.8519 38.4232 34.3492C38.4232 33.8467 38.0158 33.4392 37.5131 33.4392H14.2622L13.2523 2.82256C13.2061 1.42538 12.0751 0.331055 10.6773 0.331055C9.27941 0.331055 8.14828 1.4255 8.10226 2.82256L7.64271 16.7543C7.62612 17.2566 8.01992 17.6771 8.52221 17.6937C9.02185 17.7066 9.44507 17.3165 9.46166 16.8142L9.92121 2.8825C9.93477 2.47235 10.2668 2.15097 10.6773 2.15097C11.0877 2.15097 11.4197 2.47235 11.4333 2.8825L12.4412 33.4392H8.91335L9.34166 20.4514C9.35825 19.9491 8.96445 19.5285 8.46215 19.5119C7.96046 19.4961 7.53918 19.8891 7.52271 20.3914L7.09234 33.4392H3.33662C1.49684 33.4392 0 34.936 0 36.7758V44.331C0 46.1707 1.49684 47.6676 3.33662 47.6676H16.8219C17.3245 47.6676 17.7319 47.2601 17.7319 46.7576C17.7319 46.255 17.3244 45.8477 16.8219 45.8477Z" fill="#0078FF"/>
<path d="M7.05455 41.5811C6.55189 41.5811 6.14453 41.9885 6.14453 42.4911C6.14453 42.9936 6.55189 43.4011 7.05455 43.4011H9.96153C10.4642 43.4011 10.8716 42.9936 10.8716 42.4911C10.8716 41.9885 10.4642 41.5811 9.96153 41.5811H7.05455Z" fill="#0078FF"/>
<path d="M16.821 41.5811H13.9139C13.4113 41.5811 13.0039 41.9885 13.0039 42.4911C13.0039 42.9936 13.4113 43.4011 13.9139 43.4011H16.821C17.3237 43.4011 17.731 42.9936 17.731 42.4911C17.7309 41.9884 17.3236 41.5811 16.821 41.5811Z" fill="#0078FF"/>
<path d="M20.7772 41.5811C20.2745 41.5811 19.8672 41.9885 19.8672 42.4911C19.8672 42.9936 20.2745 43.4011 20.7772 43.4011H23.6842C24.1868 43.4011 24.5942 42.9936 24.5942 42.4911C24.5942 41.9885 24.1868 41.5811 23.6842 41.5811H20.7772Z" fill="#0078FF"/>
<path d="M27.6405 41.5811C27.1378 41.5811 26.7305 41.9885 26.7305 42.4911C26.7305 42.9936 27.1378 43.4011 27.6405 43.4011H30.5475C31.0501 43.4011 31.4575 42.9936 31.4575 42.4911C31.4575 41.9885 31.0501 41.5811 30.5475 41.5811H27.6405Z" fill="#0078FF"/>
<path d="M48.2115 43.4001C48.7142 43.4001 49.1215 42.9926 49.1215 42.4901C49.1215 41.9876 48.7142 41.5801 48.2115 41.5801H45.3045C44.8019 41.5801 44.3945 41.9876 44.3945 42.4901C44.3945 42.9926 44.8019 43.4001 45.3045 43.4001H48.2115Z" fill="#0078FF"/>
<path d="M54.9811 43.4001C55.4837 43.4001 55.8911 42.9926 55.8911 42.4901C55.8911 41.9876 55.4837 41.5801 54.9811 41.5801H52.0741C51.5714 41.5801 51.1641 41.9876 51.1641 42.4901C51.1641 42.9926 51.5714 43.4001 52.0741 43.4001H54.9811Z" fill="#0078FF"/>
<path d="M19.8581 15.2965C26.001 9.15337 35.9964 9.15361 42.1393 15.2965C42.317 15.4741 42.5499 15.563 42.7827 15.563C43.0156 15.563 43.2485 15.4741 43.4262 15.2965C43.7815 14.9412 43.7815 14.3649 43.4262 14.0096C36.5737 7.15702 25.4237 7.1569 18.5712 14.0096C18.2159 14.3649 18.2159 14.9412 18.5712 15.2965C18.9266 15.6519 19.5027 15.6519 19.8581 15.2965Z" fill="#0078FF"/>
<path d="M39.9769 18.7488C40.3322 18.3934 40.3322 17.8172 39.9769 17.4619C35.0325 12.5177 26.9906 12.5127 22.0399 17.4468C21.758 17.7154 21.6709 18.1461 21.8541 18.5126C22.0135 18.8314 22.335 19.0158 22.6687 19.0158C22.8054 19.0158 22.9443 18.9849 23.075 18.9196C23.1658 18.8741 23.2468 18.8148 23.3159 18.7447C27.5562 14.5088 34.4515 14.5105 38.6899 18.7488C39.0453 19.1041 39.6215 19.1041 39.9769 18.7488Z" fill="#0078FF"/>
<path d="M35.9465 22.4018C36.1793 22.4018 36.4122 22.3129 36.59 22.1353C36.9453 21.78 36.9453 21.2037 36.59 20.8484C35.097 19.3554 33.112 18.5332 31.0005 18.5332C28.8893 18.5332 26.9042 19.3554 25.4111 20.8484C25.0557 21.2037 25.0557 21.78 25.4111 22.1353C25.7664 22.4907 26.3425 22.4907 26.6981 22.1353C27.8473 20.9861 29.3753 20.3531 31.0004 20.3531C32.6257 20.3531 34.1536 20.9861 35.3027 22.1353C35.4807 22.313 35.7136 22.4018 35.9465 22.4018Z" fill="#0078FF"/>
<path d="M28.3795 23.8093C28.2073 23.9797 28.1095 24.2125 28.1095 24.4563C28.0982 25.2627 29.1202 25.671 29.6682 25.0945C30.0252 24.74 30.4986 24.5448 31.002 24.5448C31.5078 24.5448 31.9834 24.7418 32.341 25.0994C33.2225 25.9218 34.4501 24.6933 33.6279 23.8126C32.181 22.3656 29.8277 22.3646 28.3795 23.8093Z" fill="#0078FF"/>
</svg>
