<svg width="62" height="54" viewBox="0 0 62 54" fill="none" xmlns="http://www.w3.org/2000/svg">
<path d="M62 19.4924C62 17.8751 60.6842 16.5593 59.0669 16.5593H56.0844V13.5433C56.0844 12.4467 55.6233 11.4563 54.8856 10.7538C55.6173 10.1501 56.0844 9.23653 56.0844 8.21607C56.0844 7.28026 55.6915 6.43442 55.0621 5.83476C55.6915 5.23511 56.0844 4.38927 56.0844 3.45345C56.0844 3.41422 56.0837 3.37486 56.0823 3.33418C56.0189 1.55652 54.5498 0.164062 52.7379 0.164062H48.1234C47.6218 0.164062 47.2152 0.570695 47.2152 1.07227C47.2152 1.57384 47.6218 1.98047 48.1234 1.98047H52.7379C53.5532 1.98047 54.2391 2.61682 54.267 3.39787C54.2676 3.41652 54.2679 3.43517 54.2679 3.45357C54.2679 4.26575 53.6072 4.92656 52.7952 4.92668H13.7969C13.2954 4.92668 12.8887 5.33331 12.8887 5.83488C12.8887 6.33645 13.2954 6.74309 13.7969 6.74309H52.7954C53.6075 6.74321 54.2682 7.40402 54.2682 8.21619C54.2682 9.02849 53.6074 9.6893 52.7951 9.6893C51.5236 9.6893 10.2457 9.6893 10.0095 9.6893C8.75362 9.6893 7.73196 8.66751 7.73196 7.41177V4.258C7.73196 3.00214 8.75375 1.98047 10.0095 1.98047H43.8708C44.3724 1.98047 44.779 1.57384 44.779 1.07227C44.779 0.570695 44.3724 0.164062 43.8708 0.164062H10.0095C7.75206 0.164062 5.91555 2.00057 5.91555 4.258V7.41152C5.91555 8.66182 6.47961 9.7823 7.36589 10.5339C6.48275 11.2409 5.91555 12.3268 5.91555 13.5433V16.5593H2.93313C1.3158 16.5594 0 17.8751 0 19.4924C0 20.8855 0.976621 22.0541 2.28092 22.3515L2.92647 33.1757C2.95529 33.658 3.35539 34.0299 3.83225 34.0299C3.85042 34.0299 3.8687 34.0294 3.88711 34.0283C4.38783 33.9984 4.76952 33.5684 4.73973 33.0677L4.10508 22.4256H57.8952L56.1403 51.8486C56.1346 51.9444 56.0549 52.0193 55.959 52.0193H49.8261C49.7259 52.0193 49.6444 51.9378 49.6444 51.8377V49.8772C49.6444 48.909 48.8567 48.1213 47.8886 48.1213H14.1113C13.1432 48.1213 12.3554 48.909 12.3554 49.8772V51.8377C12.3554 51.9378 12.2739 52.0193 12.1738 52.0193H6.041C5.9451 52.0193 5.86542 51.9442 5.85973 51.8484L4.99197 37.2984C4.96206 36.7978 4.53387 36.4177 4.03133 36.4458C3.53061 36.4757 3.14892 36.9057 3.17871 37.4064L4.04647 51.9565C4.10932 53.0102 4.98531 53.8357 6.041 53.8357H12.1739C13.2756 53.8357 14.172 52.9394 14.172 51.8377V49.9377H47.8283V51.8377C47.8283 52.9394 48.7246 53.8357 49.8263 53.8357H55.9592C57.0148 53.8357 57.8909 53.0103 57.9538 51.9566L59.7193 22.3516C61.0234 22.0541 62 20.8856 62 19.4924ZM7.73196 13.5433C7.73196 12.4197 8.64609 11.5055 9.76984 11.5055H52.2304C53.354 11.5055 54.2683 12.4196 54.2683 13.5433V16.5593H7.73196V13.5433ZM59.0669 20.6092C57.5584 20.6092 4.44087 20.6092 2.93301 20.6092C2.31725 20.6092 1.81629 20.1082 1.81629 19.4926C1.81629 18.8768 2.31725 18.3758 2.93301 18.3758H59.0669C59.6826 18.3758 60.1836 18.8768 60.1836 19.4926C60.1836 20.1082 59.6826 20.6092 59.0669 20.6092Z" fill="#0078FF"/>
<path d="M28.4199 29.8623H33.5059C34.9414 29.8623 36.1094 28.6944 36.1094 27.2588C36.1094 25.8232 34.9414 24.6553 33.5059 24.6553H28.4199C26.9844 24.6553 25.8164 25.8232 25.8164 27.2588C25.8164 28.6944 26.9844 29.8623 28.4199 29.8623ZM28.4199 26.4717H33.5059C33.9399 26.4717 34.293 26.8248 34.293 27.2588C34.293 27.6928 33.9399 28.0459 33.5059 28.0459H28.4199C27.9859 28.0459 27.6328 27.6928 27.6328 27.2588C27.6328 26.8248 27.9859 26.4717 28.4199 26.4717Z" fill="#0078FF"/>
<path d="M28.4199 37.7256H33.5059C34.9414 37.7256 36.1094 36.5576 36.1094 35.1221C36.1094 33.6865 34.9414 32.5186 33.5059 32.5186H28.4199C26.9844 32.5186 25.8164 33.6865 25.8164 35.1221C25.8164 36.5576 26.9844 37.7256 28.4199 37.7256ZM28.4199 34.335H33.5059C33.9399 34.335 34.293 34.6881 34.293 35.1221C34.293 35.5561 33.9399 35.9092 33.5059 35.9092H28.4199C27.9859 35.9092 27.6328 35.5561 27.6328 35.1221C27.6328 34.6881 27.9859 34.335 28.4199 34.335Z" fill="#0078FF"/>
<path d="M28.4199 45.5889H33.5059C34.9414 45.5889 36.1094 44.4209 36.1094 42.9854C36.1094 41.5498 34.9414 40.3818 33.5059 40.3818H28.4199C26.9844 40.3818 25.8164 41.5498 25.8164 42.9854C25.8164 44.4209 26.9844 45.5889 28.4199 45.5889ZM28.4199 42.1982H33.5059C33.9399 42.1982 34.293 42.5514 34.293 42.9854C34.293 43.4194 33.9399 43.7725 33.5059 43.7725H28.4199C27.9859 43.7725 27.6328 43.4194 27.6328 42.9854C27.6328 42.5514 27.9859 42.1982 28.4199 42.1982Z" fill="#0078FF"/>
<path d="M11.6152 29.8623H16.7012C18.1367 29.8623 19.3047 28.6944 19.3047 27.2588C19.3047 25.8232 18.1367 24.6553 16.7012 24.6553H11.6152C10.1797 24.6553 9.01172 25.8232 9.01172 27.2588C9.01172 28.6944 10.1797 29.8623 11.6152 29.8623ZM11.6152 26.4717H16.7012C17.1352 26.4717 17.4883 26.8248 17.4883 27.2588C17.4883 27.6928 17.1352 28.0459 16.7012 28.0459H11.6152C11.1812 28.0459 10.8281 27.6928 10.8281 27.2588C10.8281 26.8248 11.1812 26.4717 11.6152 26.4717Z" fill="#0078FF"/>
<path d="M11.6152 37.7256H16.7012C18.1367 37.7256 19.3047 36.5576 19.3047 35.1221C19.3047 33.6865 18.1367 32.5186 16.7012 32.5186H11.6152C10.1797 32.5186 9.01172 33.6865 9.01172 35.1221C9.01172 36.5576 10.1797 37.7256 11.6152 37.7256ZM11.6152 34.335H16.7012C17.1352 34.335 17.4883 34.6881 17.4883 35.1221C17.4883 35.5561 17.1352 35.9092 16.7012 35.9092H11.6152C11.1812 35.9092 10.8281 35.5561 10.8281 35.1221C10.8281 34.6881 11.1812 34.335 11.6152 34.335Z" fill="#0078FF"/>
<path d="M11.6152 45.5889H16.7012C18.1367 45.5889 19.3047 44.4209 19.3047 42.9854C19.3047 41.5498 18.1367 40.3818 16.7012 40.3818H11.6152C10.1797 40.3818 9.01172 41.5498 9.01172 42.9854C9.01172 44.4209 10.1797 45.5889 11.6152 45.5889ZM11.6152 42.1982H16.7012C17.1352 42.1982 17.4883 42.5514 17.4883 42.9854C17.4883 43.4194 17.1352 43.7725 16.7012 43.7725H11.6152C11.1812 43.7725 10.8281 43.4194 10.8281 42.9854C10.8281 42.5514 11.1812 42.1982 11.6152 42.1982Z" fill="#0078FF"/>
<path d="M45.2988 29.8623H50.3848C51.8203 29.8623 52.9883 28.6944 52.9883 27.2588C52.9883 25.8232 51.8203 24.6553 50.3848 24.6553H45.2988C43.8633 24.6553 42.6953 25.8232 42.6953 27.2588C42.6953 28.6944 43.8633 29.8623 45.2988 29.8623ZM45.2988 26.4717H50.3848C50.8188 26.4717 51.1719 26.8248 51.1719 27.2588C51.1719 27.6928 50.8188 28.0459 50.3848 28.0459H45.2988C44.8648 28.0459 44.5117 27.6928 44.5117 27.2588C44.5117 26.8248 44.8648 26.4717 45.2988 26.4717Z" fill="#0078FF"/>
<path d="M45.2988 37.7256H50.3848C51.8203 37.7256 52.9883 36.5576 52.9883 35.1221C52.9883 33.6865 51.8203 32.5186 50.3848 32.5186H45.2988C43.8633 32.5186 42.6953 33.6865 42.6953 35.1221C42.6953 36.5576 43.8633 37.7256 45.2988 37.7256ZM45.2988 34.335H50.3848C50.8188 34.335 51.1719 34.6881 51.1719 35.1221C51.1719 35.5561 50.8188 35.9092 50.3848 35.9092H45.2988C44.8648 35.9092 44.5117 35.5561 44.5117 35.1221C44.5117 34.6881 44.8648 34.335 45.2988 34.335Z" fill="#0078FF"/>
<path d="M45.2988 45.5889H50.3848C51.8203 45.5889 52.9883 44.4209 52.9883 42.9854C52.9883 41.5498 51.8203 40.3818 50.3848 40.3818H45.2988C43.8633 40.3818 42.6953 41.5498 42.6953 42.9854C42.6953 44.4209 43.8633 45.5889 45.2988 45.5889ZM45.2988 42.1982H50.3848C50.8188 42.1982 51.1719 42.5514 51.1719 42.9854C51.1719 43.4194 50.8188 43.7725 50.3848 43.7725H45.2988C44.8648 43.7725 44.5117 43.4194 44.5117 42.9854C44.5117 42.5514 44.8648 42.1982 45.2988 42.1982Z" fill="#0078FF"/>
</svg>
