<svg width="52" height="52" viewBox="0 0 52 52" fill="none" xmlns="http://www.w3.org/2000/svg">
<path d="M37.7339 3.48709e-06H14.3692C13.6774 -0.00079304 12.9922 0.134876 12.353 0.399242C11.7137 0.663608 11.1328 1.05148 10.6437 1.54064C10.1545 2.02981 9.76663 2.61066 9.50226 3.24993C9.2379 3.88921 9.10223 4.57436 9.10303 5.26614V20.3503C8.96566 20.6921 8.96566 21.0738 9.10303 21.4156V42.5528C9.10275 43.8233 9.56231 45.0509 10.3968 46.0089C11.2313 46.9669 12.3843 47.5905 13.6428 47.7645V50.2402C13.6428 50.6415 13.8022 51.0264 14.086 51.3102C14.3698 51.594 14.7547 51.7534 15.1561 51.7534C15.5574 51.7534 15.9423 51.594 16.2261 51.3102C16.5099 51.0264 16.6693 50.6415 16.6693 50.2402V47.8189H35.4337V50.2402C35.4337 50.6415 35.5931 51.0264 35.8769 51.3102C36.1607 51.594 36.5456 51.7534 36.947 51.7534C37.3483 51.7534 37.7332 51.594 38.017 51.3102C38.3008 51.0264 38.4602 50.6415 38.4602 50.2402V47.7645C39.7187 47.5905 40.8717 46.9669 41.7062 46.0089C42.5407 45.0509 43.0003 43.8233 43 42.5528V5.26614C43.0008 4.57436 42.8651 3.88921 42.6008 3.24993C42.3364 2.61066 41.9485 2.02981 41.4594 1.54064C40.9702 1.05148 40.3893 0.663608 39.7501 0.399242C39.1108 0.134876 38.4256 -0.00079304 37.7339 3.48709e-06V3.48709e-06ZM39.9735 42.5528C39.9735 43.1468 39.7375 43.7164 39.3175 44.1365C38.8975 44.5565 38.3278 44.7924 37.7339 44.7924H14.3692C13.7752 44.7924 13.2055 44.5565 12.7855 44.1365C12.3655 43.7164 12.1295 43.1468 12.1295 42.5528V22.3962H39.9735V42.5528ZM39.9735 19.3697H12.1295V5.26614C12.1295 4.67216 12.3655 4.1025 12.7855 3.68249C13.2055 3.26248 13.7752 3.02652 14.3692 3.02652H37.7339C38.3278 3.02652 38.8975 3.26248 39.3175 3.68249C39.7375 4.1025 39.9735 4.67216 39.9735 5.26614V19.3697Z" fill="#111827"/>
<path d="M16.6685 7.26379C16.2672 7.26379 15.8823 7.42323 15.5985 7.70702C15.3147 7.99081 15.1553 8.37571 15.1553 8.77705V13.6195C15.1553 14.0208 15.3147 14.4057 15.5985 14.6895C15.8823 14.9733 16.2672 15.1327 16.6685 15.1327C17.0699 15.1327 17.4548 14.9733 17.7386 14.6895C18.0224 14.4057 18.1818 14.0208 18.1818 13.6195V8.77705C18.1818 8.37571 18.0224 7.99081 17.7386 7.70702C17.4548 7.42323 17.0699 7.26379 16.6685 7.26379V7.26379Z" fill="#111827"/>
<path d="M16.6685 39.3441C17.0699 39.3441 17.4548 39.1847 17.7386 38.9009C18.0224 38.6171 18.1818 38.2322 18.1818 37.8309V27.5407C18.1818 27.1394 18.0224 26.7545 17.7386 26.4707C17.4548 26.1869 17.0699 26.0275 16.6685 26.0275C16.2672 26.0275 15.8823 26.1869 15.5985 26.4707C15.3147 26.7545 15.1553 27.1394 15.1553 27.5407V37.8309C15.1553 38.2322 15.3147 38.6171 15.5985 38.9009C15.8823 39.1847 16.2672 39.3441 16.6685 39.3441V39.3441Z" fill="#111827"/>
</svg>
