<svg width="62" height="62" viewBox="0 0 62 62" fill="none" xmlns="http://www.w3.org/2000/svg">
<path d="M62 19.8436C62 18.1604 61.3446 16.5788 60.1554 15.391C58.9668 14.2009 57.3852 13.5455 55.702 13.5455H45.8971C42.6633 13.5455 40.0325 10.9147 40.0325 7.68098C40.0325 6.11427 40.6425 4.6414 41.7501 3.53388C42.8574 2.42636 44.3302 1.81641 45.897 1.81641H61.0918C61.5934 1.81641 62 1.40977 62 0.908203C62 0.406633 61.5934 0 61.0918 0H45.897C43.845 0 41.9161 0.798855 40.4655 2.24956C39.015 3.70014 38.216 5.62904 38.216 7.68098C38.216 11.9162 41.6617 15.362 45.897 15.362H55.7019C56.8995 15.362 58.0247 15.8282 58.8708 16.6755C59.7174 17.5209 60.1836 18.646 60.1836 19.8436C60.1836 20.8895 59.8157 21.9076 59.1474 22.7104L56.4464 25.9584C55.4917 25.6284 54.3891 25.8407 53.6271 26.6015L52.5302 27.6984C50.0696 27.6475 47.3113 28.1755 44.923 28.5977C44.4291 28.6851 44.0994 29.1563 44.1869 29.6502C44.2742 30.1441 44.7455 30.4735 45.2393 30.3863C47.5331 29.9806 49.8883 29.6878 52.2396 29.5162C53.1697 29.4477 54.0358 30.0482 54.2964 30.9427C54.5176 31.702 59.9911 50.3379 60.1734 51.1139C60.2337 51.3705 60.0841 51.5571 59.8208 51.5571C57.0616 51.5571 54.8509 53.4534 53.9521 55.9756H15.1572C14.6556 55.9756 14.249 56.3821 14.249 56.8838C14.249 57.3855 14.6556 57.792 15.1572 57.792H54.8501C55.5095 57.792 56.0459 58.3284 56.0459 58.9878C56.0459 59.6471 55.5094 60.1836 54.85 60.1836H1.94343C2.3388 58.8042 3.6115 57.792 5.11609 57.792H11.5243C12.0258 57.792 12.4325 57.3855 12.4325 56.8838C12.4325 56.3821 12.0258 55.9756 11.5243 55.9756H6.08181C13.6456 42.4618 26.8982 34.5387 41.7776 31.0925C42.2662 30.9793 42.5706 30.4915 42.4574 30.0028C42.3443 29.5142 41.8563 29.2097 41.3677 29.323C32.6935 31.333 23.9795 35.0206 16.9706 40.537L15.751 39.3176C14.7054 38.2578 12.9466 38.2667 11.8971 39.3164C10.8519 40.3616 10.8402 42.1216 11.8971 43.168L12.872 44.1429C9.30375 47.6497 6.32061 51.6895 3.906 56.1215C1.66734 56.6667 0 58.6876 0 61.0918C0 61.5935 0.406633 62 0.908203 62H54.85C56.5109 62 57.8622 60.6487 57.8622 58.9878C57.8622 57.686 57.0321 56.5748 55.8734 56.1548C56.5107 54.5112 58.0413 53.3734 59.8208 53.3734C61.2113 53.3734 62.2792 51.9928 61.9292 50.6476C61.927 50.639 61.9246 50.6304 61.9221 50.622L56.3691 31.563L57.4787 30.4542C58.3699 29.5699 58.5255 28.1422 57.8659 27.0924L60.5438 23.8722C61.4828 22.7438 62 21.3132 62 19.8436ZM13.1815 40.6007C13.3535 40.4286 13.5818 40.3339 13.8242 40.3339C14.0663 40.3339 14.2937 40.4282 14.4655 40.6008L15.557 41.6923C15.0939 42.085 14.6389 42.4856 14.1918 42.8938L13.1814 41.8834C12.8278 41.5298 12.8278 40.9544 13.1815 40.6007ZM56.1946 29.1697L55.712 29.652C55.4097 29.1118 54.9809 28.6587 54.4728 28.3247L54.9111 27.8864C55.2654 27.5328 55.8411 27.5326 56.1944 27.886C56.3665 28.058 56.4612 28.2858 56.4612 28.5274C56.4612 28.7696 56.3665 28.9978 56.1946 29.1697ZM30.0669 40.645C28.3929 41.5717 27.3529 43.3375 27.3529 45.2533C27.3529 46.7049 27.9607 48.1067 29.0205 49.099C29.9972 50.0137 31.2956 50.5226 32.6274 50.5225C32.7412 50.5225 50.9222 49.3312 50.9222 49.3312C51.7591 49.2762 52.5237 48.857 53.0198 48.181C53.5158 47.5054 53.6867 46.6508 53.4887 45.8364L51.1228 36.1098C50.7574 34.6077 49.2842 33.6863 47.7693 34.0114C44.1251 34.7944 40.5295 35.8997 37.0821 37.2966C34.6883 38.2666 32.328 39.3931 30.0669 40.645ZM43.0561 48.028L34.8907 48.5648V46.4237C34.8907 46.3949 34.9152 46.3704 34.944 46.3704H43.0028C43.0322 46.3704 43.0561 46.3943 43.0561 46.4237V48.028ZM48.1506 35.7872C48.2249 35.7712 48.2987 35.7636 48.3714 35.7636C48.8332 35.7636 49.2445 36.0735 49.3577 36.5389L51.7236 46.2656C51.7957 46.5618 51.736 46.8603 51.5555 47.106C51.3749 47.352 51.1076 47.4985 50.8029 47.5186L44.8725 47.9084V46.4237C44.8725 45.3927 44.0338 44.554 43.0028 44.554H34.944C33.913 44.554 33.0743 45.3928 33.0743 46.4237V48.6842L32.8503 48.6989C31.8868 48.7617 30.9671 48.4335 30.2619 47.7732C29.5573 47.1133 29.1692 46.2185 29.1692 45.2533C29.1692 43.998 29.8502 42.841 30.9465 42.2341C33.1441 41.0175 35.4378 39.9227 37.7642 38.98C41.1144 37.6224 44.609 36.548 48.1506 35.7872Z" fill="#0078FF"/>
</svg>
