<svg width="63" height="28" viewBox="0 0 63 28" fill="none" xmlns="http://www.w3.org/2000/svg">
<path fill-rule="evenodd" clip-rule="evenodd" d="M57.7936 8.94881H59.4008C60.8344 8.94881 62 10.1144 62.0028 11.5473V15.6076C62.0028 17.0405 60.8372 18.2061 59.4036 18.2061H57.7964V22.728C57.7964 23.576 57.1061 24.2656 56.2581 24.2656H52.2357V25.5696C52.2357 26.5437 51.4435 27.3353 50.4694 27.3353H44.37C43.3959 27.3353 42.6036 26.5437 42.6036 25.5696V18.8667H19.3991V25.5696C19.3991 26.5437 18.6069 27.3353 17.6328 27.3353H11.5334C10.5593 27.3353 9.76707 26.5437 9.76707 25.5696V24.2656H5.74464C4.89593 24.2656 4.20636 23.576 4.20636 22.728V18.2061H2.59918C1.1656 18.2061 0 17.0405 0 15.6076V11.5473C0 10.1144 1.1656 8.94881 2.59918 8.94881H4.20498V4.83063C4.20498 3.98192 4.89524 3.29235 5.74327 3.29235H9.76569V1.98897C9.76569 1.01488 10.5579 0.222656 11.532 0.222656H17.6314C18.6055 0.222656 19.3977 1.01488 19.3977 1.98897V8.69186H42.6009V1.98897C42.6009 1.01488 43.3931 0.222656 44.3672 0.222656H50.4666C51.4407 0.222656 52.2329 1.01488 52.2329 1.98897V3.29235H56.2554C57.1041 3.29235 57.7936 3.98192 57.7936 4.83063V8.94881ZM2.59918 16.3551H4.20567H4.20636V10.7992H2.59918C2.18653 10.7992 1.85104 11.1347 1.85104 11.5473V15.6076C1.85104 16.0196 2.18653 16.3551 2.59918 16.3551ZM6.05671 22.4138V5.1427H9.76638V8.69117V18.8661V22.4138H6.05671ZM11.6167 25.4835H17.5467V2.07301H11.6167V4.82995V10.5422V17.015V22.7273V25.4835ZM42.6023 17.0157H19.3977V10.5429H42.6023V17.0157ZM44.4533 25.4835H50.3833V22.728V4.83063V2.0737H44.4533V25.4835ZM55.9433 22.4145H52.2336V5.1427H55.9433V22.4145ZM59.4008 16.3551C59.8135 16.3551 60.149 16.0196 60.149 15.6076V11.548C60.149 11.1353 59.8135 10.7999 59.4008 10.7999H57.7936V16.3551H59.4008Z" fill="#0078FF"/>
</svg>
