<svg width="40" height="46" viewBox="0 0 40 46" fill="none" xmlns="http://www.w3.org/2000/svg">
<path fill-rule="evenodd" clip-rule="evenodd" d="M35.6434 14.3262H5.15231C4.78072 14.3262 4.47949 14.6304 4.47949 15.0056V41.5039C4.47949 41.8791 4.78072 42.1833 5.15231 42.1833H35.6434C36.015 42.1833 36.3162 41.8791 36.3162 41.5039V15.0056C36.3162 14.6304 36.015 14.3262 35.6434 14.3262ZM34.9681 15.6855V33.6422H5.82568V15.6855H34.9681ZM5.82568 35V40.8238H34.9681V35H5.82568Z" fill="#111827"/>
<path d="M13.1354 19.1026H26.865C27.2496 19.1026 27.5614 18.9244 27.5614 18.7046C27.5614 18.4848 27.2496 18.3066 26.865 18.3066H13.1354C12.7508 18.3066 12.439 18.4848 12.439 18.7046C12.439 18.9244 12.7508 19.1026 13.1354 19.1026Z" fill="#111827"/>
<path fill-rule="evenodd" clip-rule="evenodd" d="M6.86768 5.96931C6.86768 4.4308 8.11488 3.18359 9.65339 3.18359C11.1912 3.18538 12.4373 4.43154 12.4391 5.96931C12.4391 7.50782 11.1919 8.75502 9.65339 8.75502C8.11488 8.75502 6.86768 7.50782 6.86768 5.96931ZM8.12695 5.96906C8.12695 6.81275 8.81091 7.49671 9.6546 7.49671C10.4979 7.49572 11.1813 6.81234 11.1823 5.96906C11.1823 5.12536 10.4983 4.44141 9.6546 4.44141C8.81091 4.44141 8.12695 5.12536 8.12695 5.96906Z" fill="#111827"/>
<path fill-rule="evenodd" clip-rule="evenodd" d="M27.5615 5.96931C27.5615 4.4308 28.8087 3.18359 30.3472 3.18359C31.885 3.18538 33.1312 4.43154 33.133 5.96931C33.133 7.50782 31.8857 8.75502 30.3472 8.75502C28.8087 8.75502 27.5615 7.50782 27.5615 5.96931ZM28.8208 5.96906C28.8208 6.81275 29.5048 7.49671 30.3485 7.49671C31.1917 7.49572 31.8751 6.81234 31.8761 5.96906C31.8761 5.12536 31.1921 4.44141 30.3485 4.44141C29.5048 4.44141 28.8208 5.12536 28.8208 5.96906Z" fill="#111827"/>
<path fill-rule="evenodd" clip-rule="evenodd" d="M16.3338 3.97949H24.4623C24.8551 3.97949 25.1736 4.3077 25.1736 4.71257V7.226C25.1736 7.63087 24.8551 7.95908 24.4623 7.95908H16.3338C15.941 7.95908 15.6226 7.63087 15.6226 7.226V4.71257C15.6226 4.3077 15.941 3.97949 16.3338 3.97949ZM17.0464 6.49257H23.7524V5.44531H17.0464V6.49257Z" fill="#111827"/>
<path fill-rule="evenodd" clip-rule="evenodd" d="M38.8214 1.73764e-06H1.17548C0.802173 0.000847887 0.5 0.300562 0.5 0.669985V44.6974C0.5 45.0674 0.803116 45.3673 1.17703 45.3673H38.823C39.1969 45.3673 39.5 45.0674 39.5 44.6974V0.669985C39.5 0.49203 39.4285 0.321384 39.3012 0.195694C39.1739 0.0700043 39.0013 -0.000403266 38.8214 1.73764e-06ZM1.85555 1.33993H38.1443V11.0068H1.85555V1.33993ZM1.85555 12.3468V44.0273H38.1443V12.3468H1.85555Z" fill="#111827"/>
</svg>
