<svg width="62" height="62" viewBox="0 0 62 62" fill="none" xmlns="http://www.w3.org/2000/svg">
<path d="M61.6559 27.1305L46.5003 13.5403V11.3673C46.5003 9.65815 45.1094 8.2673 43.4003 8.2673C42.6491 8.2673 41.9681 8.5463 41.4308 8.99269L31.6897 0.264271C31.2971 -0.0880902 30.7029 -0.0880902 30.3103 0.264271L0.344091 27.1305C0.0247966 27.4167 -0.0847349 27.8693 0.0681959 28.2692C0.22216 28.6701 0.60552 28.9336 1.03435 28.9336H3.10098V60.9664C3.10098 61.5368 3.5639 61.9998 4.1343 61.9998H57.8667C58.4371 61.9998 58.9001 61.5368 58.9001 60.9664V28.9336H60.9667C61.3955 28.9336 61.7789 28.6701 61.9318 28.2692C62.0847 27.8693 61.9752 27.4167 61.6559 27.1305ZM58.2666 26.867H57.8667H46.5003V16.3168L58.2666 26.867ZM49.6002 49.6H37.2004V47.3938C37.2004 45.7612 38.5282 44.4334 40.1609 44.4334H46.6408C48.2724 44.4334 49.6002 45.7612 49.6002 47.3938V49.6ZM42.367 11.3673C42.367 10.7979 42.831 10.3339 43.4003 10.3339C43.9697 10.3339 44.4336 10.7979 44.4336 11.3673V42.3667H42.367V11.3673ZM31.0005 2.42183L40.3572 10.8062C40.3231 10.988 40.3004 11.1751 40.3004 11.3673V26.867H4.1343H3.7344L31.0005 2.42183ZM5.16761 28.9336H40.3004V42.3667H40.1609C37.3885 42.3667 35.1338 44.6214 35.1338 47.3938V50.4338L31.3343 59.9331H23.7673V40.3001C23.7673 39.7297 23.3044 39.2668 22.734 39.2668H10.3342C9.7638 39.2668 9.30088 39.7297 9.30088 40.3001V59.9331H5.16761V28.9336ZM11.3675 59.9331V41.3334H21.7007V59.9331H11.3675ZM49.4142 59.9331L48.5473 55.5973L46.5209 56.0034L47.3062 59.9331H44.4336V55.7999H42.367V59.9331H39.4944L40.2807 56.0024L38.2544 55.5963L37.3864 59.9331H33.56L36.8666 51.6666H49.934L53.2406 59.9331H49.4142ZM56.8334 59.9331H55.4663L51.6668 50.4338V47.3938C51.6668 44.6214 49.4121 42.3667 46.6398 42.3667H46.5003V28.9336H56.8334V59.9331Z" fill="#0078FF"/>
<path d="M25.8341 23.7671H36.1673C36.7377 23.7671 37.2006 23.3042 37.2006 22.7338V16.5339C37.2006 13.1146 34.4199 10.334 31.0007 10.334C27.5814 10.334 24.8008 13.1146 24.8008 16.5339V22.7338C24.8008 23.3042 25.2637 23.7671 25.8341 23.7671ZM26.8674 18.6005H29.9674V21.7005H26.8674V18.6005ZM32.034 21.7005V18.6005H35.1339V21.7005H32.034ZM35.1339 16.5339H32.034V12.5473C33.8113 13.0092 35.1339 14.614 35.1339 16.5339ZM29.9674 12.5473V16.5339H26.8674C26.8674 14.614 28.1901 13.0092 29.9674 12.5473Z" fill="#0078FF"/>
<path d="M13.4336 49.5996H15.5002V51.6662H13.4336V49.5996Z" fill="#0078FF"/>
<path d="M30.9986 43.3998H33.0652C33.0652 40.5509 35.383 38.2332 38.2318 38.2332V36.1666C35.383 36.1666 33.0652 33.8489 33.0652 31H30.9986C30.9986 33.8489 28.6809 36.1666 25.832 36.1666V38.2332C28.6809 38.2332 30.9986 40.5509 30.9986 43.3998ZM32.0319 34.7065C32.6457 35.7295 33.5023 36.5861 34.5253 37.1999C33.5023 37.8137 32.6457 38.6703 32.0319 39.6933C31.4181 38.6703 30.5615 37.8137 29.5385 37.1999C30.5615 36.5861 31.4181 35.7295 32.0319 34.7065Z" fill="#0078FF"/>
</svg>
